<svg xmlns="http://www.w3.org/2000/svg" width="12" height="11" viewBox="0 0 12 11" fill="none">
    <path d="M4.805 0.17417L-2.19741e-07 5.00417L4.805 9.83417C4.8484 9.89116 4.90353 9.93815 4.96667 9.97198C5.0298 10.0058 5.09947 10.0257 5.17096 10.0302C5.24244 10.0348 5.31407 10.0239 5.38099 9.99842C5.44792 9.97289 5.50858 9.93328 5.55886 9.88227C5.60915 9.83126 5.64789 9.77004 5.67246 9.70276C5.69703 9.63548 5.70685 9.5637 5.70127 9.49229C5.69569 9.42088 5.67483 9.3515 5.64011 9.28885C5.60538 9.2262 5.5576 9.17175 5.5 9.12917L1.905 5.50417L11.47 5.50417C11.6026 5.50417 11.7298 5.45149 11.8236 5.35772C11.9173 5.26396 11.97 5.13678 11.97 5.00417C11.97 4.87156 11.9173 4.74438 11.8236 4.65062C11.7298 4.55685 11.6026 4.50417 11.47 4.50417L1.905 4.50417L5.5 0.87917C5.59349 0.785019 5.64575 0.657584 5.64528 0.524902C5.64481 0.39222 5.59165 0.265158 5.4975 0.17167C5.40335 0.078181 5.27591 0.0259225 5.14323 0.0263918C5.01055 0.026861 4.88349 0.0800188 4.79 0.17417L4.805 0.17417Z" fill="#0B420D"/>
</svg>