<svg width="19" height="17" viewBox="0 0 19 17" fill="none" xmlns="http://www.w3.org/2000/svg">
    <path
        d="M15.0156 4.125H1L3.0625 11.3438C3.13609 11.6057 3.29367 11.8363 3.51103 12C3.72839 12.1638 3.99351 12.2516 4.26563 12.25H11.75C12.0221 12.2516 12.2872 12.1638 12.5046 12C12.722 11.8363 12.8795 11.6057 12.9531 11.3438L15.7812 1.45313C15.8186 1.32246 15.8976 1.20754 16.0061 1.12578C16.1147 1.04401 16.2469 0.999857 16.3828 1H17.6953"
        stroke="#5F6C72" stroke-width="1.5" stroke-linecap="round" stroke-linejoin="round" />
    <path
        d="M3.44531 15.375C3.44531 15.6511 3.66917 15.875 3.94531 15.875C4.22145 15.875 4.44531 15.6511 4.44531 15.375C4.44531 15.0989 4.22145 14.875 3.94531 14.875C3.66917 14.875 3.44531 15.0989 3.44531 15.375Z"
        stroke="#5F6C72" stroke-width="1.5" />
    <path
        d="M11.5703 15.375C11.5703 15.6511 11.7942 15.875 12.0703 15.875C12.3465 15.875 12.5703 15.6511 12.5703 15.375C12.5703 15.0989 12.3465 14.875 12.0703 14.875C11.7942 14.875 11.5703 15.0989 11.5703 15.375Z"
        stroke="#5F6C72" stroke-width="1.5" />
</svg>