<svg width="16" height="16" viewBox="0 0 16 16" fill="none" xmlns="http://www.w3.org/2000/svg">
    <g clip-path="url(#clip0_585_57436)">
        <path
            d="M8 16C3.58172 16 0 12.4183 0 8C0 3.58172 3.58172 0 8 0C12.4183 0 16 3.58172 16 8C16 12.4183 12.4183 16 8 16Z"
            fill="#F1B32B" />
        <path
            d="M8.125 2C11.37 2 14 4.63 14 7.875C14 11.12 11.37 13.75 8.125 13.75C4.88 13.75 2.25 11.12 2.25 7.875C2.25 6.31685 2.86897 4.82252 3.97075 3.72075C5.07252 2.61897 6.56685 2 8.125 2ZM8.125 12.285C9.2946 12.285 10.4163 11.8204 11.2433 10.9933C12.0704 10.1663 12.535 9.0446 12.535 7.875C12.535 6.7054 12.0704 5.58369 11.2433 4.75666C10.4163 3.92962 9.2946 3.465 8.125 3.465C6.9554 3.465 5.83369 3.92962 5.00666 4.75666C4.17962 5.58369 3.715 6.7054 3.715 7.875C3.715 9.0446 4.17962 10.1663 5.00666 10.9933C5.83369 11.8204 6.9554 12.285 8.125 12.285ZM9.59 7.88L8.12 10.08L6.66 7.88L8.12 5.675L9.59 7.88Z"
            fill="white" />
    </g>
    <defs>
        <clipPath id="clip0_585_57436">
            <rect width="16" height="16" fill="white" transform="matrix(-1 0 0 1 16 0)" />
        </clipPath>
    </defs>
</svg>