<svg width="19" height="19" viewBox="0 0 19 19" fill="none" xmlns="http://www.w3.org/2000/svg">
    <path
        d="M3.55 13.75C2.34725 13.75 1.7463 13.75 1.374 14.0611C1 14.3722 1 14.8737 1 15.875C1 16.8763 1.00085 17.3778 1.374 17.6889C1.74715 18 2.34725 18 3.55 18C4.75275 18 5.3537 18 5.726 17.6889C6.1 17.3778 6.1 16.8763 6.1 15.875C6.1 14.8737 6.09915 14.3722 5.726 14.0611C5.35285 13.75 4.75275 13.75 3.55 13.75ZM3.55 13.75C3.55 11.6403 4.1824 11.2 7.2118 11.2H11.7882C14.8176 11.2 15.45 11.6403 15.45 13.75M15.45 13.75C14.2473 13.75 13.6463 13.75 13.274 14.0611C12.9 14.3722 12.9 14.8737 12.9 15.875C12.9 16.8763 12.9009 17.3778 13.274 17.6889C13.6472 18 14.2473 18 15.45 18C16.6528 18 17.2537 18 17.626 17.6889C18 17.3778 18 16.8763 18 15.875C18 14.8737 17.9991 14.3722 17.626 14.0611C17.2528 13.75 16.6528 13.75 15.45 13.75ZM9.5 4.825L10.35 3.55M13.325 4.825C13.325 5.83945 12.922 6.81236 12.2047 7.52968C11.4874 8.24701 10.5145 8.65 9.5 8.65C8.48555 8.65 7.51264 8.24701 6.79532 7.52968C6.07799 6.81236 5.675 5.83945 5.675 4.825C5.675 3.81055 6.07799 2.83764 6.79532 2.12032C7.51264 1.40299 8.48555 1 9.5 1C10.5145 1 11.4874 1.40299 12.2047 2.12032C12.922 2.83764 13.325 3.81055 13.325 4.825Z"
        stroke="#5F6C72" stroke-width="1.5" stroke-linecap="round" stroke-linejoin="round" />
</svg>