<svg width="18" height="12" viewBox="0 0 18 12" fill="none" xmlns="http://www.w3.org/2000/svg">
    <path
        d="M12.375 8.14286C12.196 8.14286 12.0243 8.21059 11.8977 8.33115C11.7711 8.4517 11.7 8.61522 11.7 8.78571C11.7 8.95621 11.7711 9.11972 11.8977 9.24028C12.0243 9.36084 12.196 9.42857 12.375 9.42857H14.625C14.804 9.42857 14.9757 9.36084 15.1023 9.24028C15.2289 9.11972 15.3 8.95621 15.3 8.78571C15.3 8.61522 15.2289 8.4517 15.1023 8.33115C14.9757 8.21059 14.804 8.14286 14.625 8.14286H12.375ZM0 2.78571C0 2.0469 0.308169 1.33834 0.856713 0.815917C1.40526 0.293494 2.14924 0 2.925 0H15.075C15.4591 0 15.8395 0.0720548 16.1943 0.21205C16.5492 0.352045 16.8717 0.557239 17.1433 0.815917C17.4149 1.07459 17.6304 1.38169 17.7773 1.71967C17.9243 2.05765 18 2.41989 18 2.78571V9.21429C18 9.58011 17.9243 9.94235 17.7773 10.2803C17.6304 10.6183 17.4149 10.9254 17.1433 11.1841C16.8717 11.4428 16.5492 11.648 16.1943 11.788C15.8395 11.9279 15.4591 12 15.075 12H2.925C2.14924 12 1.40526 11.7065 0.856713 11.1841C0.308169 10.6617 0 9.9531 0 9.21429V2.78571ZM16.65 3.85714V2.78571C16.65 2.38789 16.4841 2.00636 16.1887 1.72505C15.8933 1.44375 15.4927 1.28571 15.075 1.28571H2.925C2.50728 1.28571 2.10668 1.44375 1.81131 1.72505C1.51594 2.00636 1.35 2.38789 1.35 2.78571V3.85714H16.65ZM1.35 5.14286V9.21429C1.35 10.0423 2.0556 10.7143 2.925 10.7143H15.075C15.4927 10.7143 15.8933 10.5562 16.1887 10.2749C16.4841 9.99364 16.65 9.61211 16.65 9.21429V5.14286H1.35Z"
        fill="#5F6C72" />
</svg>