<svg width="17" height="16" viewBox="0 0 17 16" fill="none" xmlns="http://www.w3.org/2000/svg">
    <path
        d="M8.49981 11.0269V4.97207M6.986 9.89094C7.28407 10.2772 7.65752 10.4215 8.17751 10.4215H8.89672C9.56632 10.4215 10.109 9.87951 10.109 9.2106C10.109 8.54169 9.5667 7.99971 8.89672 7.99971H8.10213C7.43291 7.99971 6.88985 7.45772 6.88985 6.78881C6.88985 6.1199 7.43214 5.57791 8.10213 5.57791H8.82134C9.34171 5.57791 9.71516 5.72179 10.0132 6.10847M8.52327 12.0053V14.9978M16 3.0899V10.6856L8.87095 14.9044C8.76513 14.967 8.64508 15 8.52288 15C8.40069 15 8.28064 14.967 8.17482 14.9044L1 10.6584V3.06231M1 3.06231L4.48453 1L6.971 2.47144C7.81598 2.97125 9.18094 2.97362 10.0205 2.47696L12.492 1.01458L15.9996 3.09029L11.172 5.94686M1 3.06231L5.82757 5.91887"
        stroke="#5F6C72" stroke-linecap="round" stroke-linejoin="round" />
</svg>