<svg width="16" height="16" viewBox="0 0 16 16" fill="none" xmlns="http://www.w3.org/2000/svg">
    <path
        d="M10.8819 2.64715L13.3525 5.11774M14.4931 3.95245C14.8174 3.6281 14.9996 3.18819 14.9996 2.7295C14.9996 2.27081 14.8174 1.8309 14.4931 1.50656C14.1687 1.18221 13.7288 1 13.2701 1C12.8114 1 12.3715 1.18221 12.0472 1.50656L5.11719 8.41186V10.8825H7.58778L14.4931 3.95245Z"
        stroke="currentColor" stroke-width="1.5" stroke-linecap="round" stroke-linejoin="round" />
    <path
        d="M3.47059 4.29688H2.64706C2.21023 4.29688 1.7913 4.4704 1.48241 4.77929C1.17353 5.08817 1 5.50711 1 5.94394V13.3557C1 13.7925 1.17353 14.2115 1.48241 14.5204C1.7913 14.8292 2.21023 15.0028 2.64706 15.0028H10.0588C10.4957 15.0028 10.9146 14.8292 11.2235 14.5204C11.5324 14.2115 11.7059 13.7925 11.7059 13.3557V12.5322"
        stroke="currentColor" stroke-width="1.5" stroke-linecap="round" stroke-linejoin="round" />
</svg>