<svg xmlns="http://www.w3.org/2000/svg" width="16" height="16" viewBox="0 0 16 16" fill="none">
    <path d="M14.75 8.00012C14.75 6.58973 14.3083 5.21475 13.4867 4.06831C12.6652 2.92187 11.5052 2.06156 10.1697 1.60821C8.83414 1.15486 7.39013 1.13125 6.04048 1.54068C4.69082 1.95012 3.50332 2.77204 2.64476 3.89101C1.78619 5.00997 1.2997 6.36976 1.25361 7.77941C1.20751 9.18905 1.60414 10.5777 2.38777 11.7504C3.1714 12.923 4.30267 13.8208 5.6227 14.3175C6.94273 14.8142 8.38519 14.885 9.7475 14.5199" stroke="#0B420D" stroke-width="1.5" stroke-linecap="round"/>
    <path d="M8 11C9.65685 11 11 9.65685 11 8C11 6.34315 9.65685 5 8 5C6.34315 5 5 6.34315 5 8C5 9.65685 6.34315 11 8 11Z" stroke="#0B420D" stroke-width="1.5"/>
    <path d="M11 5.75V9.125C11 9.62228 11.1975 10.0992 11.5492 10.4508C11.9008 10.8025 12.3777 11 12.875 11C13.3723 11 13.8492 10.8025 14.2008 10.4508C14.5525 10.0992 14.75 9.62228 14.75 9.125V8" stroke="#0B420D" stroke-width="1.5" stroke-linecap="round"/>
</svg>