<svg width="26" height="26" viewBox="0 0 26 26" fill="none" xmlns="http://www.w3.org/2000/svg">
<g id="game-icons:farm-tractor">
<path id="Vector" d="M7.76187 3L7.54808 4.01562H9.2653L9.05146 3H7.76187ZM7.94966 4.92969V5.64062H8.86372V4.92969H7.94966ZM6.38991 6.55469L5.99483 11.3281H6.86548L7.17016 7.26562H13.7994L13.6978 6.55469H6.38991ZM21.7622 7.72266V11.511C22.0673 11.5346 22.372 11.5628 22.6762 11.5956V7.72266H21.7622ZM8.01821 8.17969L7.78203 11.3281H8.10195C8.60991 11.3281 9.09442 11.5455 9.57461 11.8687V8.17969H8.01821ZM10.4887 8.17969V12.4585L14.4497 12.8993V11.8179L13.9299 8.17969H10.4887ZM4.34419 12.2422C3.93794 12.2422 3.16139 12.5854 2.44614 13.1576C1.89221 13.6007 1.36683 14.1677 0.986328 14.7403L1.84011 14.9537C2.85675 13.6755 4.42376 12.8516 6.17226 12.8516C8.74149 12.8516 10.9193 14.6301 11.5341 17.0156H12.5704C12.1067 16.064 11.3986 14.9736 10.6244 14.0759C10.1506 13.5265 9.65631 13.0507 9.20527 12.7251C8.75428 12.3995 8.34809 12.2422 8.102 12.2422H4.34419ZM15.3637 12.2452V17.8281H16.9963C17.4577 16.2968 18.3266 15.2499 19.491 14.7207C20.1161 14.4365 20.8106 14.2989 21.5596 14.2851C22.1384 14.2743 22.7502 14.3383 23.3872 14.4648V12.6118C22.8034 12.5214 22.1134 12.4504 21.3745 12.3984C19.3328 12.2546 16.9992 12.246 15.3637 12.2452ZM24.3012 12.7943V13.7656H25.0122V13.0846C24.8102 12.9476 24.5091 12.8507 24.3012 12.7943ZM11.3082 13.4695L11.3166 13.4789C12.332 14.6562 13.2383 16.0987 13.7076 17.3071L13.9495 17.9297H11.6882C11.7007 18.0805 11.7075 18.2329 11.7075 18.3867C11.7075 18.7512 11.6713 19.1077 11.603 19.4531H14.4497V13.8192L11.3082 13.4695ZM6.17231 13.7656C3.62914 13.7656 1.55122 15.8436 1.55122 18.3867C1.55122 20.9298 3.62914 23.0078 6.17231 23.0078C8.71544 23.0078 10.7934 20.9298 10.7934 18.3867C10.7934 15.8436 8.71544 13.7656 6.17231 13.7656ZM24.3012 14.6797V15.3906H25.0122V14.6797H24.3012ZM6.17231 14.8828C8.11012 14.8828 9.67622 16.4489 9.67622 18.3867C9.67622 20.3245 8.11012 21.8906 6.17231 21.8906C4.23445 21.8906 2.66841 20.3245 2.66841 18.3867C2.66841 16.4489 4.23445 14.8828 6.17231 14.8828ZM21.7928 15.2012C21.138 15.2095 20.4029 15.3162 19.8692 15.5528C19.0141 15.9414 18.3624 16.6469 17.9552 17.8281H18.492C19.1997 16.6745 20.4731 15.8984 21.9145 15.8984C22.419 15.8986 22.9189 15.9951 23.3872 16.1828V15.3983C22.8192 15.2757 22.2861 15.2093 21.7928 15.2012ZM6.17231 15.7969C4.72058 15.7969 3.58247 16.935 3.58247 18.3867C3.58247 19.8384 4.72058 20.9766 6.17231 20.9766C7.624 20.9766 8.76216 19.8384 8.76216 18.3867C8.76216 16.935 7.624 15.7969 6.17231 15.7969ZM24.3012 16.3047V16.6942C24.5647 16.8908 24.8034 17.1185 25.0122 17.3725V16.3047H24.3012ZM21.9145 16.8125C20.2137 16.8125 18.8168 18.2094 18.8168 19.9102C18.8168 21.6109 20.2137 23.0078 21.9145 23.0078C23.6153 23.0078 25.0122 21.6109 25.0122 19.9102C25.0122 18.2094 23.6153 16.8125 21.9145 16.8125ZM21.9145 17.9297C23.0071 17.9297 23.895 18.8175 23.895 19.9102C23.895 21.0028 23.0071 21.8906 21.9145 21.8906C20.8218 21.8906 19.934 21.0028 19.934 19.9102C19.934 18.8175 20.8218 17.9297 21.9145 17.9297ZM15.3637 18.7422V19.5231L17.9033 19.9463C17.9031 19.9342 17.9028 19.9222 17.9028 19.9102C17.9028 19.5045 17.9647 19.1124 18.0787 18.7422H15.3637ZM21.9145 18.8438C21.3003 18.8438 20.8481 19.296 20.8481 19.9102C20.8481 20.5244 21.3003 20.9766 21.9145 20.9766C22.5287 20.9766 22.9809 20.5244 22.9809 19.9102C22.9809 19.296 22.5287 18.8438 21.9145 18.8438Z" fill="#363636"/>
</g>
</svg>
