<svg width="25" height="25" viewBox="0 0 25 25" fill="none" xmlns="http://www.w3.org/2000/svg">
<g id="map:furniture-store">
<path id="Vector" d="M23.2474 5.5H1.76041C1.06941 5.5 0.503906 6.1285 0.503906 6.75C0.503906 7.3715 1.06941 7.9995 1.76041 7.9995H2.06391V10.4995H22.9744V7.9995H23.2474C23.9389 7.9995 24.5039 7.3715 24.5039 6.75C24.5039 6.1285 23.9389 5.5 23.2474 5.5ZM12.5039 9.26C12.1569 9.26 11.8759 8.9705 11.8759 8.614C11.8759 8.2575 12.1569 7.968 12.5039 7.968C12.8514 7.968 13.1319 8.2575 13.1319 8.614C13.1319 8.9705 12.8514 9.26 12.5039 9.26ZM2.06391 15.499H22.9744V11.5H2.06391V15.499ZM12.5039 12.812C12.8514 12.812 13.1319 13.101 13.1319 13.4575C13.1319 13.8145 12.8514 14.1035 12.5039 14.1035C12.1569 14.1035 11.8759 13.8145 11.8759 13.4575C11.8754 13.101 12.1569 12.812 12.5039 12.812ZM2.06391 18.9475V21.8545C2.06391 22.2095 2.10841 22.5005 2.45391 22.5005H4.96591C5.31141 22.5005 5.46791 22.2095 5.46791 21.8545V19.9995H19.5704V21.8545C19.5704 22.2095 19.6964 22.5005 20.0414 22.5005H22.5539C22.8984 22.5005 22.9739 22.2095 22.9739 21.8545V16.5H2.06391V18.9475ZM12.5039 17.656C12.8514 17.656 13.1319 17.9455 13.1319 18.3015C13.1319 18.659 12.8514 18.947 12.5039 18.947C12.1569 18.947 11.8759 18.659 11.8759 18.3015C11.8754 17.946 12.1569 17.656 12.5039 17.656Z" fill="#363636"/>
</g>
</svg>
