<svg width="21" height="21" viewBox="0 0 21 21" fill="none" xmlns="http://www.w3.org/2000/svg">
<path d="M1 4.95679C1 3.0913 1 2.15855 1.58056 1.58033C2.15794 1 3.09106 1 4.95833 1C6.82456 1 7.75767 1 8.33611 1.58033C8.91667 2.15855 8.91667 3.0913 8.91667 4.95679C8.91667 6.82229 8.91667 7.75504 8.33611 8.33326C7.75767 8.91359 6.82456 8.91359 4.95833 8.91359C3.09211 8.91359 2.159 8.91359 1.58056 8.33326C1 7.75609 1 6.82335 1 4.95679ZM1 16.0432C1 14.1777 1 13.245 1.58056 12.6667C2.159 12.0864 3.09211 12.0864 4.95833 12.0864C6.82456 12.0864 7.75767 12.0864 8.33611 12.6667C8.91667 13.245 8.91667 14.1777 8.91667 16.0432C8.91667 17.9087 8.91667 18.8415 8.33611 19.4197C7.75767 20 6.82456 20 4.95833 20C3.09211 20 2.159 20 1.58056 19.4197C1 18.8425 1 17.9087 1 16.0432ZM12.0833 4.95679C12.0833 3.0913 12.0833 2.15855 12.6639 1.58033C13.2423 1 14.1754 1 16.0417 1C17.9079 1 18.841 1 19.4194 1.58033C20 2.15855 20 3.0913 20 4.95679C20 6.82229 20 7.75504 19.4194 8.33326C18.841 8.91359 17.9079 8.91359 16.0417 8.91359C14.1754 8.91359 13.2423 8.91359 12.6639 8.33326C12.0833 7.75504 12.0833 6.82229 12.0833 4.95679ZM12.0833 16.0432C12.0833 14.1777 12.0833 13.245 12.6639 12.6667C13.2423 12.0864 14.1754 12.0864 16.0417 12.0864C17.9079 12.0864 18.841 12.0864 19.4194 12.6667C20 13.245 20 14.1777 20 16.0432C20 17.9087 20 18.8415 19.4194 19.4197C18.841 20 17.9079 20 16.0417 20C14.1754 20 13.2423 20 12.6639 19.4197C12.0833 18.8415 12.0833 17.9087 12.0833 16.0432Z" stroke="#5C5C5C" stroke-width="2" stroke-linecap="round" stroke-linejoin="round"/>
</svg>
