<svg width="19" height="11" viewBox="0 0 19 11" fill="none" xmlns="http://www.w3.org/2000/svg">
    <path
        d="M18.1792 0.7925C18.0904 0.578694 17.9205 0.40879 17.7067 0.32C17.6015 0.275164 17.4886 0.251382 17.3742 0.25H12.9992C12.7671 0.25 12.5446 0.342187 12.3805 0.506282C12.2164 0.670376 12.1242 0.892936 12.1242 1.125C12.1242 1.35706 12.2164 1.57962 12.3805 1.74372C12.5446 1.90781 12.7671 2 12.9992 2H15.2655L10.3742 6.89125L7.49546 4.00375C7.41412 3.92174 7.31735 3.85664 7.21072 3.81222C7.10409 3.7678 6.98972 3.74493 6.87421 3.74493C6.7587 3.74493 6.64434 3.7678 6.53771 3.81222C6.43108 3.85664 6.33431 3.92174 6.25296 4.00375L1.00296 9.25375C0.920952 9.33509 0.855857 9.43187 0.811434 9.5385C0.767012 9.64512 0.744141 9.75949 0.744141 9.875C0.744141 9.99051 0.767012 10.1049 0.811434 10.2115C0.855857 10.3181 0.920952 10.4149 1.00296 10.4962C1.08431 10.5783 1.18108 10.6434 1.28771 10.6878C1.39434 10.7322 1.5087 10.7551 1.62421 10.7551C1.73972 10.7551 1.85409 10.7322 1.96072 10.6878C2.06735 10.6434 2.16412 10.5783 2.24546 10.4962L6.87421 5.85875L9.75296 8.74625C9.83431 8.82826 9.93108 8.89336 10.0377 8.93778C10.1443 8.9822 10.2587 9.00507 10.3742 9.00507C10.4897 9.00507 10.6041 8.9822 10.7107 8.93778C10.8173 8.89336 10.9141 8.82826 10.9955 8.74625L16.4992 3.23375V5.5C16.4992 5.73206 16.5914 5.95462 16.7555 6.11872C16.9196 6.28281 17.1421 6.375 17.3742 6.375C17.6063 6.375 17.8288 6.28281 17.9929 6.11872C18.157 5.95462 18.2492 5.73206 18.2492 5.5V1.125C18.2478 1.01066 18.2241 0.897694 18.1792 0.7925Z"
        fill="#5F6C72" />
</svg>