<svg xmlns="http://www.w3.org/2000/svg" width="16" height="16" viewBox="0 0 16 16" fill="none">
    <g clip-path="url(#clip0_412_71280)">
        <path d="M5.60136 7.99687C5.60136 6.67144 6.67558 5.59668 8.00107 5.59668C9.32656 5.59668 10.4014 6.67144 10.4014 7.99687C10.4014 9.32231 9.32656 10.3971 8.00107 10.3971C6.67558 10.3971 5.60136 9.32231 5.60136 7.99687ZM4.30381 7.99687C4.30381 10.0388 5.95907 11.694 8.00107 11.694C10.0431 11.694 11.6983 10.0388 11.6983 7.99687C11.6983 5.95495 10.0431 4.29976 8.00107 4.29976C5.95907 4.29976 4.30387 5.95484 4.30387 7.99687H4.30381ZM10.9807 4.15317C10.9807 4.32405 11.0313 4.49112 11.1261 4.63324C11.221 4.77536 11.3559 4.88616 11.5138 4.95161C11.6716 5.01707 11.8454 5.03425 12.013 5.00098C12.1806 4.96771 12.3346 4.88548 12.4555 4.7647C12.5764 4.64391 12.6587 4.49 12.6921 4.32241C12.7255 4.15483 12.7085 3.9811 12.6432 3.8232C12.5778 3.66529 12.4671 3.53031 12.3251 3.43532C12.183 3.34032 12.016 3.28958 11.8451 3.28952H11.8448C11.6157 3.28962 11.396 3.38064 11.234 3.54257C11.072 3.7045 10.9809 3.92412 10.9807 4.15317ZM5.09215 13.8576C4.39015 13.8256 4.0086 13.7087 3.75503 13.6099C3.41886 13.479 3.17901 13.3231 2.92682 13.0713C2.67464 12.8195 2.51854 12.5799 2.38824 12.2437C2.2894 11.9903 2.17246 11.6086 2.14055 10.9067C2.10565 10.1477 2.09868 9.91973 2.09868 7.99699C2.09868 6.07424 2.10622 5.8469 2.14055 5.08733C2.17252 4.38535 2.29032 4.00445 2.38824 3.75026C2.51912 3.4141 2.67499 3.17426 2.92682 2.92208C3.17866 2.66991 3.41829 2.51382 3.75503 2.38352C4.00848 2.28468 4.39015 2.16775 5.09215 2.13584C5.85112 2.10094 6.07911 2.09397 8.00107 2.09397C9.92303 2.09397 10.1512 2.1014 10.9108 2.13596C11.6128 2.16793 11.9938 2.28572 12.248 2.38364C12.5841 2.51393 12.824 2.67037 13.0762 2.9222C13.3284 3.17403 13.4839 3.41422 13.6148 3.75037C13.7136 4.00381 13.8305 4.38547 13.8624 5.08744C13.8974 5.84701 13.9043 6.07436 13.9043 7.99711C13.9043 9.91985 13.8974 10.1472 13.8624 10.9068C13.8305 11.6087 13.713 11.9903 13.6148 12.2438C13.4839 12.58 13.328 12.8198 13.0762 13.0714C12.8243 13.323 12.5841 13.4791 12.248 13.61C11.9945 13.7088 11.6128 13.8258 10.9108 13.8577C10.1519 13.8926 9.92389 13.8995 8.00107 13.8995C6.07825 13.8995 5.85089 13.8926 5.09215 13.8577V13.8576ZM5.03253 0.840478C4.26602 0.875384 3.74224 0.99692 3.28482 1.1749C2.81139 1.35871 2.41007 1.60529 2.00933 2.00538C1.6086 2.40547 1.36263 2.80683 1.17883 3.28082C1.00083 3.73851 0.879293 4.26198 0.844386 5.02846C0.808903 5.79615 0.800781 6.04158 0.800781 7.99687C0.800781 9.95216 0.808903 10.1976 0.844386 10.9653C0.879293 11.7318 1.00083 12.2552 1.17883 12.7129C1.36263 13.1863 1.60865 13.5885 2.00933 13.9884C2.41002 14.3883 2.81081 14.6345 3.28482 14.8188C3.74311 14.9968 4.26602 15.1184 5.03253 15.1533C5.80066 15.1882 6.0457 15.1969 8.00107 15.1969C9.95644 15.1969 10.2019 15.1888 10.9696 15.1533C11.7362 15.1184 12.2596 14.9968 12.7173 14.8188C13.1907 14.6345 13.5921 14.3885 13.9928 13.9884C14.3935 13.5883 14.639 13.1863 14.8233 12.7129C15.0013 12.2552 15.1234 11.7318 15.1578 10.9653C15.1927 10.197 15.2008 9.95216 15.2008 7.99687C15.2008 6.04158 15.1927 5.79615 15.1578 5.02846C15.1228 4.26192 15.0013 3.73822 14.8233 3.28082C14.639 2.8074 14.3929 2.4061 13.9928 2.00538C13.5927 1.60466 13.1907 1.35871 12.7179 1.1749C12.2596 0.99692 11.7361 0.874808 10.9702 0.840478C10.2023 0.8054 9.95701 0.796875 8.00193 0.796875C6.04685 0.796875 5.80095 0.804997 5.03282 0.840478" fill="#0B420D"/>
    </g>
    <defs>
        <clipPath id="clip0_412_71280">
            <rect width="16" height="16" fill="white"/>
        </clipPath>
    </defs>
</svg>