<svg class="fill-current" width="19" height="19" viewBox="0 0 19 19" fill="none" xmlns="http://www.w3.org/2000/svg">
<path d="M16.2857 2.71429V0H0V6.78571H6.10714V19H19V2.71429H16.2857ZM1.35714 5.42857V1.35714H14.9286V2.71429H6.10714V5.42857H1.35714ZM17.6429 17.6429H7.46429V4.07143H17.6429V17.6429Z" fill="#5C5C5C"/>
<path d="M8.94141 6.14844H10.2623V7.50558H8.94141V6.14844ZM11.5831 6.14844H16.2061V7.50558H11.5831V6.14844ZM8.94141 10.2199H10.2623V11.577H8.94141V10.2199ZM11.5831 10.2199H16.2061V11.577H11.5831V10.2199ZM8.94141 14.2913H10.2623V15.6484H8.94141V14.2913ZM11.5831 14.2913H16.2061V15.6484H11.5831V14.2913Z" fill="#5C5C5C"/>
</svg>
