<svg xmlns="http://www.w3.org/2000/svg" width="49" height="39" viewBox="0 0 49 39" fill="none">
    <path d="M9.57617 10.5C9.57617 10.1022 9.73421 9.72064 10.0155 9.43934C10.2968 9.15804 10.6783 9 11.0762 9H32.0762C32.474 9 32.8555 9.15804 33.1368 9.43934C33.4181 9.72064 33.5762 10.1022 33.5762 10.5C33.5762 10.8978 33.4181 11.2794 33.1368 11.5607C32.8555 11.842 32.474 12 32.0762 12H11.0762C10.6783 12 10.2968 11.842 10.0155 11.5607C9.73421 11.2794 9.57617 10.8978 9.57617 10.5ZM26.0762 18C25.6783 18 25.2968 18.158 25.0155 18.4393C24.7342 18.7206 24.5762 19.1022 24.5762 19.5C24.5762 19.8978 24.7342 20.2794 25.0155 20.5607C25.2968 20.842 25.6783 21 26.0762 21H32.0762C32.474 21 32.8555 20.842 33.1368 20.5607C33.4181 20.2794 33.5762 19.8978 33.5762 19.5C33.5762 19.1022 33.4181 18.7206 33.1368 18.4393C32.8555 18.158 32.474 18 32.0762 18H26.0762ZM24.5762 28.5C24.5762 28.1022 24.7342 27.7206 25.0155 27.4393C25.2968 27.158 25.6783 27 26.0762 27H32.0762C32.474 27 32.8555 27.158 33.1368 27.4393C33.4181 27.7206 33.5762 28.1022 33.5762 28.5C33.5762 28.8978 33.4181 29.2794 33.1368 29.5607C32.8555 29.842 32.474 30 32.0762 30H26.0762C25.6783 30 25.2968 29.842 25.0155 29.5607C24.7342 29.2794 24.5762 28.8978 24.5762 28.5ZM11.0762 18C10.6783 18 10.2968 18.158 10.0155 18.4393C9.73421 18.7206 9.57617 19.1022 9.57617 19.5V28.5C9.57617 28.8978 9.73421 29.2794 10.0155 29.5607C10.2968 29.842 10.6783 30 11.0762 30H20.0762C20.474 30 20.8555 29.842 21.1368 29.5607C21.4181 29.2794 21.5762 28.8978 21.5762 28.5V19.5C21.5762 19.1022 21.4181 18.7206 21.1368 18.4393C20.8555 18.158 20.474 18 20.0762 18H11.0762ZM12.5762 27V21H18.5762V27H12.5762ZM0.576172 6C0.576172 4.4087 1.20831 2.88258 2.33353 1.75736C3.45875 0.632141 4.98487 0 6.57617 0H36.5762C38.1675 0 39.6936 0.632141 40.8188 1.75736C41.944 2.88258 42.5762 4.4087 42.5762 6V9C44.1675 9 45.6936 9.63214 46.8188 10.7574C47.944 11.8826 48.5762 13.4087 48.5762 15V31.5C48.5762 33.4891 47.786 35.3968 46.3795 36.8033C44.9729 38.2098 43.0653 39 41.0762 39H8.07617C6.08705 39 4.17939 38.2098 2.77287 36.8033C1.36635 35.3968 0.576172 33.4891 0.576172 31.5V6ZM39.5762 6C39.5762 5.20435 39.2601 4.44129 38.6975 3.87868C38.1349 3.31607 37.3718 3 36.5762 3H6.57617C5.78052 3 5.01746 3.31607 4.45485 3.87868C3.89224 4.44129 3.57617 5.20435 3.57617 6V31.5C3.57617 32.6935 4.05028 33.8381 4.89419 34.682C5.73811 35.5259 6.8827 36 8.07617 36H41.0762C42.2696 36 43.4142 35.5259 44.2581 34.682C45.1021 33.8381 45.5762 32.6935 45.5762 31.5V15C45.5762 14.2044 45.2601 13.4413 44.6975 12.8787C44.1349 12.3161 43.3718 12 42.5762 12V31.5C42.5762 31.8978 42.4181 32.2794 42.1368 32.5607C41.8555 32.842 41.474 33 41.0762 33C40.6783 33 40.2968 32.842 40.0155 32.5607C39.7342 32.2794 39.5762 31.8978 39.5762 31.5V6Z" fill="white"/>
</svg>