<svg width="16" height="15" viewBox="0 0 16 15" fill="none" xmlns="http://www.w3.org/2000/svg">
    <path
        d="M12.8462 1H3.15385C2.58261 1 2.03477 1.24903 1.63085 1.69229C1.22692 2.13556 1 2.73676 1 3.36364V9.27273C1 9.8996 1.22692 10.5008 1.63085 10.9441C2.03477 11.3873 2.58261 11.6364 3.15385 11.6364H9.07692L12.3077 14V11.6364H12.8462C13.4174 11.6364 13.9652 11.3873 14.3692 10.9441C14.7731 10.5008 15 9.8996 15 9.27273V3.36364C15 2.73676 14.7731 2.13556 14.3692 1.69229C13.9652 1.24903 13.4174 1 12.8462 1Z"
        stroke="#5F6C72" stroke-width="1.5" stroke-linecap="round" stroke-linejoin="round" />
    <path
        d="M5.07692 6.59091C5.07692 6.74763 5.02019 6.89793 4.91921 7.00874C4.81823 7.11956 4.68127 7.18182 4.53846 7.18182C4.39565 7.18182 4.25869 7.11956 4.15771 7.00874C4.05673 6.89793 4 6.74763 4 6.59091C4 6.43419 4.05673 6.28389 4.15771 6.17307C4.25869 6.06226 4.39565 6 4.53846 6C4.68127 6 4.81823 6.06226 4.91921 6.17307C5.02019 6.28389 5.07692 6.43419 5.07692 6.59091ZM8.30769 6.59091C8.30769 6.74763 8.25096 6.89793 8.14998 7.00874C8.049 7.11956 7.91204 7.18182 7.76923 7.18182C7.62642 7.18182 7.48946 7.11956 7.38848 7.00874C7.2875 6.89793 7.23077 6.74763 7.23077 6.59091C7.23077 6.43419 7.2875 6.28389 7.38848 6.17307C7.48946 6.06226 7.62642 6 7.76923 6C7.91204 6 8.049 6.06226 8.14998 6.17307C8.25096 6.28389 8.30769 6.43419 8.30769 6.59091ZM11.5385 6.59091C11.5385 6.74763 11.4817 6.89793 11.3807 7.00874C11.2798 7.11956 11.1428 7.18182 11 7.18182C10.8572 7.18182 10.7202 7.11956 10.6192 7.00874C10.5183 6.89793 10.4615 6.74763 10.4615 6.59091C10.4615 6.43419 10.5183 6.28389 10.6192 6.17307C10.7202 6.06226 10.8572 6 11 6C11.1428 6 11.2798 6.06226 11.3807 6.17307C11.4817 6.28389 11.5385 6.43419 11.5385 6.59091Z"
        stroke="#5F6C72" stroke-linecap="round" stroke-linejoin="round" />
</svg>