<svg width="24" height="24" viewBox="0 0 24 24" fill="none" xmlns="http://www.w3.org/2000/svg">
<g id="wpf:packaging" clip-path="url(#clip0_412_75937)">
<path id="Vector" d="M10.7603 0.609375L9.5492 1.24445L10.4723 3.09061L8.62612 2.16753L7.99105 3.37861L10.4723 4.61922H1.84705C1.81814 4.61786 1.78919 4.61786 1.76028 4.61922C1.73168 4.61789 1.70303 4.61789 1.67443 4.61922C1.46058 4.65989 1.26799 4.77484 1.13067 4.94374C0.993347 5.11265 0.920138 5.32465 0.923971 5.5423V9.23461C0.923971 9.47942 1.02122 9.71421 1.19433 9.88732C1.36744 10.0604 1.60223 10.1577 1.84705 10.1577V22.1577C1.84705 22.4025 1.9443 22.6373 2.11741 22.8104C2.29052 22.9835 2.52531 23.0808 2.77013 23.0808H21.2317C21.4765 23.0808 21.7113 22.9835 21.8844 22.8104C22.0575 22.6373 22.1547 22.4025 22.1547 22.1577V10.1577C22.3996 10.1577 22.6343 10.0604 22.8075 9.88732C22.9806 9.71421 23.0778 9.47942 23.0778 9.23461V5.5423C23.0778 5.29748 22.9806 5.06269 22.8075 4.88958C22.6343 4.71647 22.3996 4.61922 22.1547 4.61922H13.5295L16.0107 3.37861L15.3757 2.16753L13.5295 3.09061L14.4526 1.24445L13.2415 0.609375L12.0009 3.09061L10.7603 0.609375ZM2.77013 6.46537H11.0778V8.31153H2.94274C2.88624 8.29655 2.82844 8.28696 2.77013 8.28291V6.46537ZM12.924 6.46537H21.2317V8.31153H12.924V6.46537ZM3.6932 10.1577H11.0778V21.2346H3.6932V10.1577ZM12.924 10.1577H20.3086V21.2346H12.924V10.1577Z" fill="#363636"/>
</g>
<defs>
<clipPath id="clip0_412_75937">
<rect width="24" height="24" fill="white"/>
</clipPath>
</defs>
</svg>
