<svg width="14" height="16" viewBox="0 0 14 16" fill="none" xmlns="http://www.w3.org/2000/svg">
    <path fill-rule="evenodd" clip-rule="evenodd"
        d="M2.91667 1.10345C2.91667 0.810796 3.03958 0.530129 3.25838 0.323192C3.47717 0.116256 3.77391 0 4.08333 0H11.0833C11.3928 0 11.6895 0.116256 11.9083 0.323192C12.1271 0.530129 12.25 0.810796 12.25 1.10345V3.31034H12.3783C12.6384 3.31035 12.891 3.39255 13.0961 3.5439C13.3011 3.69524 13.4468 3.90704 13.51 4.14566L13.8017 5.2491C13.8448 5.41181 13.8481 5.58166 13.8113 5.74575C13.7746 5.90985 13.6988 6.06387 13.5897 6.1961C13.4806 6.32833 13.3411 6.4353 13.1817 6.50887C13.0223 6.58244 12.8473 6.62069 12.67 6.62069H12.25V7.17241H12.8333C13.1428 7.17241 13.4395 7.28867 13.6583 7.49561C13.8771 7.70254 14 7.98321 14 8.27586V8.82759C14 9.12024 13.8771 9.40091 13.6583 9.60784C13.4395 9.81478 13.1428 9.93103 12.8333 9.93103H12.25V12.1379C12.25 12.4306 12.1271 12.7112 11.9083 12.9182C11.6895 13.1251 11.3928 13.2414 11.0833 13.2414H8.40817L8.06283 13.568L7.09917 15.3898C7.00234 15.5731 6.85349 15.7272 6.66928 15.835C6.48507 15.9427 6.27277 15.9999 6.05617 16H2.5095C2.27944 15.9998 2.05457 15.9353 1.86317 15.8146L0.519167 14.9672C0.359432 14.8664 0.228471 14.7298 0.137906 14.5697C0.0473414 14.4095 -2.82315e-05 14.2307 5.04102e-07 14.0491V9.97076C-5.10234e-05 9.91833 0.00384773 9.86597 0.0116672 9.81407L1.10133 2.60303C1.14094 2.33999 1.27957 2.0993 1.49175 1.92517C1.70393 1.75105 1.97542 1.65517 2.25633 1.65517H2.91667V1.10345ZM2.91667 2.75862H2.25633L1.16667 9.97076V14.0491L2.5095 14.8966H3.5V13.4257C3.5 13.1869 3.58187 12.9546 3.73333 12.7636L6.81333 8.87945L5.83333 7.95255L3.32967 10.3217L2.50367 9.54041L2.91667 9.1509V2.75862ZM4.08333 8.04745L5.0085 7.17241C5.22728 6.96555 5.52398 6.84934 5.83333 6.84934C6.14269 6.84934 6.43938 6.96555 6.65817 7.17241L7.63817 8.09931C7.83673 8.28711 7.95702 8.53634 7.97695 8.80126C7.99688 9.06619 7.91512 9.32902 7.74667 9.54152L5.6875 12.1379H11.0833V1.10345H4.08333V8.04745ZM12.25 5.51724H12.67L12.3783 4.41379H12.25V5.51724ZM12.25 8.27586V8.82759H12.8333V8.27586H12.25ZM4.8125 13.2414L4.66667 13.4257V14.8966H6.05617L6.93117 13.2414H4.8125ZM7 2.75862V2.2069H8.16667V2.75862H7ZM7.58333 2.75862C7.1192 2.75862 6.67409 2.933 6.3459 3.24341C6.01771 3.55381 5.83333 3.97481 5.83333 4.41379H5.25V5.51724H9.91667V4.41379H9.33333C9.33333 3.97481 9.14896 3.55381 8.82077 3.24341C8.49258 2.933 8.04746 2.75862 7.58333 2.75862ZM7.58333 3.86207C7.42862 3.86207 7.28025 3.9202 7.17085 4.02367C7.06146 4.12713 7 4.26747 7 4.41379H8.16667C8.16667 4.26747 8.10521 4.12713 7.99581 4.02367C7.88642 3.9202 7.73804 3.86207 7.58333 3.86207ZM5.42033 9.76993L4.837 9.21821L5.663 8.43697L6.24633 8.98869L5.42033 9.76993Z"
        fill="#5F6C72" />
</svg>