<svg width="24" height="24" viewBox="0 0 24 24" fill="none" xmlns="http://www.w3.org/2000/svg">
<path d="M13.3024 3.52443C14.2535 2.57337 15.5434 2.03906 16.8884 2.03906C18.2334 2.03906 19.5234 2.57337 20.4744 3.52443C21.4255 4.4755 21.9598 5.76542 21.9598 7.11043C21.9598 8.45544 21.4255 9.74537 20.4744 10.6964L10.6964 20.4744C9.74537 21.4255 8.45544 21.9598 7.11043 21.9598C5.76542 21.9598 4.4755 21.4255 3.52443 20.4744C2.57337 19.5234 2.03906 18.2334 2.03906 16.8884C2.03906 15.5434 2.57337 14.2535 3.52443 13.3024L13.3024 3.52443ZM19.4134 4.58543C19.0819 4.25374 18.6883 3.99062 18.255 3.81109C17.8218 3.63157 17.3574 3.53917 16.8884 3.53917C16.4195 3.53917 15.9551 3.63157 15.5218 3.81109C15.0886 3.99062 14.695 4.25374 14.3634 4.58543L10.0044 8.94443L15.0544 13.9944L19.4144 9.63543C19.7461 9.3039 20.0093 8.91027 20.1888 8.47702C20.3683 8.04378 20.4607 7.5794 20.4607 7.11043C20.4607 6.64146 20.3683 6.17709 20.1888 5.74384C20.0093 5.31059 19.7451 4.91696 19.4134 4.58543ZM10.8084 18.2764C10.9409 18.1343 11.013 17.9462 11.0096 17.7519C11.0062 17.5576 10.9275 17.3722 10.7901 17.2348C10.6526 17.0974 10.4673 17.0187 10.273 17.0153C10.0787 17.0118 9.89061 17.084 9.74843 17.2164L8.30743 18.6564C8.02993 18.9342 7.65456 19.0921 7.26192 19.0963C6.86929 19.1004 6.49069 18.9504 6.20743 18.6784L6.19043 18.6624C6.11939 18.5942 6.0356 18.5406 5.94386 18.5048C5.85211 18.469 5.75421 18.4515 5.65573 18.4535C5.55725 18.4555 5.46013 18.4769 5.36992 18.5164C5.2797 18.556 5.19815 18.6129 5.12993 18.6839C5.06171 18.755 5.00815 18.8388 4.97231 18.9305C4.93647 19.0223 4.91905 19.1202 4.92105 19.2186C4.92304 19.3171 4.94442 19.4142 4.98395 19.5044C5.02347 19.5947 5.08039 19.6762 5.15143 19.7444L5.16843 19.7604C5.73483 20.3044 6.49194 20.6046 7.27721 20.5966C8.06248 20.5885 8.81329 20.2729 9.36843 19.7174L10.8084 18.2764Z" fill="#363636"/>
</svg>
