<svg xmlns="http://www.w3.org/2000/svg" width="24" height="24" viewBox="0 0 24 24" fill="none">
    <path d="M12 3C16.9688 3 21 7.03125 21 12C21 16.9688 16.9688 21 12 21C7.03125 21 3 16.9688 3 12C3 7.03125 7.03125 3 12 3ZM12.2812 17.25C12.4667 17.25 12.6479 17.195 12.8021 17.092C12.9563 16.989 13.0764 16.8426 13.1474 16.6713C13.2183 16.5 13.2369 16.3115 13.2007 16.1296C13.1646 15.9477 13.0753 15.7807 12.9442 15.6496C12.8131 15.5185 12.646 15.4292 12.4641 15.393C12.2823 15.3568 12.0938 15.3754 11.9225 15.4464C11.7512 15.5173 11.6048 15.6375 11.5017 15.7917C11.3987 15.9458 11.3438 16.1271 11.3438 16.3125C11.3438 16.5611 11.4425 16.7996 11.6183 16.9754C11.7942 17.1512 12.0326 17.25 12.2812 17.25ZM10.7137 12.4688C11.4736 12.9788 11.5781 13.4461 11.5781 13.875C11.5781 14.049 11.6473 14.216 11.7703 14.339C11.8934 14.4621 12.0603 14.5312 12.2344 14.5312C12.4084 14.5312 12.5753 14.4621 12.6984 14.339C12.8215 14.216 12.8906 14.049 12.8906 13.875C12.8906 12.848 12.4181 12.0314 11.4459 11.3784C10.5422 10.7719 10.0312 10.3875 10.0312 9.54234C10.0312 8.96766 10.3594 8.53125 11.0386 8.20828C11.1984 8.13234 11.5542 8.05828 11.992 8.06344C12.5414 8.07047 12.968 8.20172 13.2966 8.46609C13.9163 8.96484 13.9688 9.50766 13.9688 9.51562C13.9729 9.60181 13.994 9.68632 14.0308 9.76435C14.0676 9.84238 14.1195 9.9124 14.1833 9.9704C14.2472 10.0284 14.3219 10.0732 14.4031 10.1024C14.4843 10.1315 14.5705 10.1444 14.6566 10.1402C14.7428 10.1361 14.8273 10.115 14.9054 10.0782C14.9834 10.0414 15.0534 9.98953 15.1114 9.92565C15.1694 9.86177 15.2143 9.7871 15.2434 9.70589C15.2725 9.62468 15.2854 9.53852 15.2812 9.45234C15.2761 9.33844 15.1969 8.31234 14.1202 7.44609C13.5619 6.99703 12.8517 6.76359 12.0108 6.75328C11.4155 6.74625 10.8563 6.84703 10.477 7.02609C9.34219 7.56281 8.71875 8.45766 8.71875 9.54234C8.71875 11.1281 9.77859 11.8402 10.7137 12.4688Z" fill="#CECECE"/>
</svg>