<svg width="20" height="20" viewBox="0 0 20 20" fill="none" xmlns="http://www.w3.org/2000/svg">
    <path
        d="M10 11.4972C9.98159 11.1726 10.0692 10.8508 10.2495 10.5802C10.4299 10.3097 10.6933 10.1051 11 9.99724C11.3759 9.8535 11.7132 9.62447 11.9856 9.32819C12.2579 9.03191 12.4577 8.67646 12.5693 8.28982C12.6809 7.90319 12.7013 7.49593 12.6287 7.1001C12.5562 6.70427 12.3928 6.33069 12.1513 6.00875C11.9099 5.68682 11.597 5.42532 11.2373 5.24485C10.8776 5.06439 10.4809 4.96988 10.0785 4.96876C9.67611 4.96764 9.27892 5.05995 8.91824 5.23842C8.55756 5.41689 8.24323 5.67664 8 5.99724"
        stroke="#5F6C72" stroke-width="2" stroke-linecap="round" stroke-linejoin="round" />
    <path
        d="M10 15V15.01M1 10C1 11.1819 1.23279 12.3522 1.68508 13.4442C2.13738 14.5361 2.80031 15.5282 3.63604 16.364C4.47177 17.1997 5.46392 17.8626 6.55585 18.3149C7.64778 18.7672 8.8181 19 10 19C11.1819 19 12.3522 18.7672 13.4442 18.3149C14.5361 17.8626 15.5282 17.1997 16.364 16.364C17.1997 15.5282 17.8626 14.5361 18.3149 13.4442C18.7672 12.3522 19 11.1819 19 10C19 8.8181 18.7672 7.64778 18.3149 6.55585C17.8626 5.46392 17.1997 4.47177 16.364 3.63604C15.5282 2.80031 14.5361 2.13738 13.4442 1.68508C12.3522 1.23279 11.1819 1 10 1C8.8181 1 7.64778 1.23279 6.55585 1.68508C5.46392 2.13738 4.47177 2.80031 3.63604 3.63604C2.80031 4.47177 2.13738 5.46392 1.68508 6.55585C1.23279 7.64778 1 8.8181 1 10Z"
        stroke="#5F6C72" stroke-width="2" stroke-linecap="round" stroke-linejoin="round" />
</svg>