<svg width="18" height="17" viewBox="0 0 18 17" fill="none" xmlns="http://www.w3.org/2000/svg">
    <path
        d="M1 9.577V11.385C1 11.5383 1.064 11.6793 1.192 11.808C1.32 11.9367 1.461 12.0007 1.615 12H16.385C16.5383 12 16.6793 11.936 16.808 11.808C16.9367 11.68 17.0007 11.5387 17 11.384V9.577H1ZM1.615 0H16.385C16.8317 0 17.2127 0.157333 17.528 0.472C17.8427 0.786667 18 1.168 18 1.616V11.385C18 11.8317 17.8427 12.2127 17.528 12.528C17.2133 12.8427 16.8323 13 16.385 13H11.923V15.952C11.923 16.2587 11.7967 16.4917 11.544 16.651C11.2913 16.8103 11.0303 16.8197 10.761 16.679L9.354 15.994C9.246 15.9367 9.128 15.908 9 15.908C8.872 15.908 8.754 15.9367 8.646 15.994L7.238 16.679C6.96933 16.8203 6.70867 16.811 6.456 16.651C6.20333 16.491 6.077 16.258 6.077 15.952V13H1.616C1.168 13 0.786667 12.8427 0.472 12.528C0.157333 12.2133 0 11.8323 0 11.385V1.615C0 1.16833 0.157333 0.787333 0.472 0.472C0.786667 0.157333 1.168 0 1.616 0M1 7.423H17V1.616C17 1.462 16.936 1.32067 16.808 1.192C16.68 1.06333 16.539 0.999333 16.385 1H1.615C1.46167 1 1.32067 1.064 1.192 1.192C1.06333 1.32 0.999333 1.461 1 1.615V7.423ZM1 11.385V1H1.616C1.462 1 1.32067 1.064 1.192 1.192C1.06333 1.32 0.999333 1.461 1 1.615V11.385ZM1 11.385C1 11.5383 1.064 11.6793 1.192 11.808C1.32 11.9367 1.461 12.0007 1.615 12H1V11.385Z"
        fill="#5F6C72" />
</svg>