<svg width="17" height="13" viewBox="0 0 17 13" fill="none" xmlns="http://www.w3.org/2000/svg">
    <path
        d="M1.52622 13C1.09115 13 0.728167 12.857 0.437278 12.571C0.146389 12.285 0.00062963 11.9278 0 11.4994V1.50057C0 1.07281 0.145759 0.715928 0.437278 0.429928C0.728796 0.143928 1.09146 0.000619048 1.52528 0H15.4747C15.9092 0 16.2718 0.143309 16.5627 0.429928C16.8536 0.716547 16.9994 1.07343 17 1.50057V11.5004C17 11.9275 16.8542 12.2844 16.5627 12.571C16.2712 12.8576 15.9085 13.0006 15.4747 13H1.52622ZM1.52622 12.0714H15.4747C15.6195 12.0714 15.7527 12.012 15.8742 11.8931C15.9957 11.7743 16.0562 11.643 16.0556 11.4994V1.50057C16.0556 1.35757 15.9951 1.22633 15.8742 1.10686C15.7533 0.987381 15.6202 0.927952 15.4747 0.928571H1.52528C1.38046 0.928571 1.2473 0.988 1.12578 1.10686C1.00426 1.22571 0.943815 1.35695 0.944444 1.50057V11.5004C0.944444 11.6427 1.00489 11.7737 1.12578 11.8931C1.24667 12.0126 1.37983 12.072 1.52528 12.0714M7.08333 8.82143H3.77778C3.64367 8.82143 3.53128 8.86569 3.44061 8.95421C3.34994 9.04274 3.30493 9.15324 3.30556 9.28571C3.30619 9.41819 3.3512 9.52869 3.44061 9.61721C3.53002 9.70574 3.64241 9.75 3.77778 9.75H5.19444V10.2143C5.19444 10.3468 5.23946 10.4573 5.3295 10.5458C5.41954 10.6343 5.53193 10.6786 5.66667 10.6786C5.80141 10.6786 5.9138 10.6343 6.00383 10.5458C6.09387 10.4573 6.13889 10.3468 6.13889 10.2143V9.75H7.30055C7.50833 9.75 7.68148 9.6819 7.82 9.54571C7.95852 9.40952 8.02778 9.23928 8.02778 9.035V6.75071C8.02778 6.54643 7.95852 6.37619 7.82 6.24C7.68148 6.10381 7.50833 6.03571 7.30055 6.03571H4.25V4.17857H7.55556C7.6903 4.17857 7.80269 4.13431 7.89272 4.04579C7.98276 3.95726 8.02778 3.84676 8.02778 3.71429C8.02778 3.58181 7.98276 3.47131 7.89272 3.38278C7.80269 3.29426 7.6903 3.25 7.55556 3.25H6.13889V2.78571C6.13889 2.65386 6.09387 2.54336 6.00383 2.45421C5.9138 2.36507 5.80141 2.32081 5.66667 2.32143C5.53193 2.32205 5.41954 2.36631 5.3295 2.45421C5.23946 2.54212 5.19444 2.65262 5.19444 2.78571V3.25H4.03278C3.825 3.25 3.65185 3.31809 3.51333 3.45429C3.37481 3.59048 3.30556 3.76071 3.30556 3.965V6.24928C3.30556 6.45357 3.37481 6.62381 3.51333 6.76C3.65185 6.89619 3.825 6.96428 4.03278 6.96428H7.08333V8.82143ZM12.4072 10.0694L13.4026 9.09164C13.4687 9.02602 13.4851 8.95576 13.4517 8.88086C13.419 8.80533 13.3592 8.76757 13.2723 8.76757H11.2823C11.1967 8.76757 11.1369 8.80533 11.1029 8.88086C11.0701 8.95514 11.0871 9.0254 11.1539 9.09164L12.1484 10.0694C12.1836 10.1041 12.2268 10.1214 12.2778 10.1214C12.3288 10.1214 12.3719 10.1041 12.4072 10.0694ZM11.2833 4.46457H13.2732C13.3595 4.46457 13.4193 4.42712 13.4527 4.35221C13.486 4.27731 13.469 4.20705 13.4017 4.14143L12.4062 3.16271C12.3722 3.12805 12.3294 3.11071 12.2778 3.11071C12.2261 3.11071 12.1833 3.12805 12.1493 3.16271L11.1529 4.1405C11.0868 4.20612 11.0705 4.27638 11.1038 4.35128C11.1372 4.42619 11.197 4.46395 11.2833 4.46457Z"
        fill="#5F6C72" />
</svg>