<svg width="20" height="20" viewBox="0 0 20 20" fill="none" xmlns="http://www.w3.org/2000/svg">
    <path
        d="M5.64844 5.08594C5.45052 5.26823 5.26302 5.45573 5.08594 5.64844L2.95312 5.95313C2.60561 6.55665 2.33776 7.20265 2.15625 7.875L3.45312 9.60156C3.45312 9.60156 3.42969 10.1328 3.45312 10.3984L2.15625 12.125C2.33691 12.7976 2.60481 13.4437 2.95312 14.0469L5.08594 14.3516C5.08594 14.3516 5.45312 14.7344 5.64844 14.9141L5.95312 17.0469C6.55664 17.3944 7.20265 17.6622 7.875 17.8438L9.60156 16.5469C9.86667 16.5703 10.1333 16.5703 10.3984 16.5469L12.125 17.8438C12.7976 17.6631 13.4437 17.3952 14.0469 17.0469L14.3516 14.9141C14.5443 14.7318 14.7318 14.5443 14.9141 14.3516L17.0469 14.0469C17.3944 13.4434 17.6622 12.7974 17.8438 12.125L16.5469 10.3984C16.5469 10.3984 16.5703 9.86719 16.5469 9.60156L17.8438 7.875C17.6631 7.20236 17.3952 6.55625 17.0469 5.95313L14.9141 5.64844C14.7318 5.45573 14.5443 5.26823 14.3516 5.08594L14.0469 2.95312C13.4434 2.60561 12.7974 2.33776 12.125 2.15625L10.3984 3.45313C10.1333 3.42968 9.86667 3.42968 9.60156 3.45313L7.875 2.15625C7.20236 2.33692 6.55625 2.60481 5.95312 2.95312L5.64844 5.08594Z"
        stroke="currentColor" stroke-width="1.5" stroke-linecap="round" stroke-linejoin="round" />
    <path
        d="M10 13.75C7.92893 13.75 6.25 12.0711 6.25 10C6.25 7.92893 7.92893 6.25 10 6.25C12.0711 6.25 13.75 7.92893 13.75 10C13.75 12.0711 12.0711 13.75 10 13.75Z"
        stroke="currentColor" stroke-width="1.5" stroke-linecap="round" stroke-linejoin="round" />
</svg>