<svg width="22" height="24" viewBox="0 0 22 24" fill="none" xmlns="http://www.w3.org/2000/svg">
<path d="M3.66667 24C4.68518 24 5.55093 23.65 6.26389 22.95C6.97685 22.25 7.33333 21.4 7.33333 20.4C7.33333 20.28 7.30278 20 7.24167 19.56L15.8278 14.64C16.1537 14.94 16.5306 15.1752 16.9583 15.3456C17.3861 15.516 17.8444 15.6008 18.3333 15.6C19.3519 15.6 20.2176 15.25 20.9306 14.55C21.6435 13.85 22 13 22 12C22 11 21.6435 10.15 20.9306 9.45C20.2176 8.75 19.3519 8.4 18.3333 8.4C17.8444 8.4 17.3861 8.4852 16.9583 8.6556C16.5306 8.826 16.1537 9.0608 15.8278 9.36L7.24167 4.44C7.28241 4.3 7.30767 4.1652 7.31744 4.0356C7.32722 3.906 7.33252 3.7608 7.33333 3.6C7.33333 2.6 6.97685 1.75 6.26389 1.05C5.55093 0.35 4.68518 0 3.66667 0C2.64815 0 1.78241 0.35 1.06944 1.05C0.356482 1.75 0 2.6 0 3.6C0 4.6 0.356482 5.45 1.06944 6.15C1.78241 6.85 2.64815 7.2 3.66667 7.2C4.15556 7.2 4.61389 7.1148 5.04167 6.9444C5.46944 6.774 5.8463 6.5392 6.17222 6.24L14.7583 11.16C14.7176 11.3 14.6919 11.4352 14.6813 11.5656C14.6707 11.696 14.6659 11.8408 14.6667 12C14.6675 12.1592 14.6724 12.3044 14.6813 12.4356C14.6903 12.5668 14.716 12.7016 14.7583 12.84L6.17222 17.76C5.8463 17.46 5.46944 17.2252 5.04167 17.0556C4.61389 16.886 4.15556 16.8008 3.66667 16.8C2.64815 16.8 1.78241 17.15 1.06944 17.85C0.356482 18.55 0 19.4 0 20.4C0 21.4 0.356482 22.25 1.06944 22.95C1.78241 23.65 2.64815 24 3.66667 24ZM3.66667 21.6C3.32037 21.6 3.02989 21.4852 2.79522 21.2556C2.56056 21.026 2.44363 20.7408 2.44444 20.4C2.44526 20.0592 2.56259 19.7744 2.79644 19.5456C3.0303 19.3168 3.32037 19.2016 3.66667 19.2C4.01296 19.1984 4.30304 19.3136 4.53689 19.5456C4.77074 19.7776 4.88807 20.0624 4.88889 20.4C4.8897 20.7376 4.77237 21.0228 4.53689 21.2556C4.30141 21.4884 4.01133 21.6032 3.66667 21.6ZM18.3333 13.2C17.987 13.2 17.6966 13.0848 17.4619 12.8544C17.2272 12.624 17.1103 12.3392 17.1111 12C17.1119 11.6608 17.2293 11.376 17.4631 11.1456C17.697 10.9152 17.987 10.8 18.3333 10.8C18.6796 10.8 18.9697 10.9152 19.2036 11.1456C19.4374 11.376 19.5547 11.6608 19.5556 12C19.5564 12.3392 19.439 12.6244 19.2036 12.8556C18.9681 13.0868 18.678 13.2016 18.3333 13.2ZM3.66667 4.8C3.32037 4.8 3.02989 4.6848 2.79522 4.4544C2.56056 4.224 2.44363 3.9392 2.44444 3.6C2.44526 3.2608 2.56259 2.976 2.79644 2.7456C3.0303 2.5152 3.32037 2.4 3.66667 2.4C4.01296 2.4 4.30304 2.5152 4.53689 2.7456C4.77074 2.976 4.88807 3.2608 4.88889 3.6C4.8897 3.9392 4.77237 4.2244 4.53689 4.4556C4.30141 4.6868 4.01133 4.8016 3.66667 4.8Z" fill="black"/>
</svg>
