<svg width="17" height="16" viewBox="0 0 17 16" fill="none" xmlns="http://www.w3.org/2000/svg">
    <path
        d="M1 5.375V6.625C1 7.28804 1.26339 7.92393 1.73223 8.39277C2.20107 8.86161 2.83696 9.125 3.5 9.125C4.16304 9.125 4.79893 8.86161 5.26777 8.39277C5.73661 7.92393 6 7.28804 6 6.625V5.375"
        stroke="currentColor" stroke-width="1.5" stroke-linecap="round" stroke-linejoin="round" />
    <path
        d="M6 5.375V6.625C6 7.28804 6.26339 7.92393 6.73223 8.39277C7.20107 8.86161 7.83696 9.125 8.5 9.125C9.16304 9.125 9.79893 8.86161 10.2678 8.39277C10.7366 7.92393 11 7.28804 11 6.625V5.375"
        stroke="currentColor" stroke-width="1.5" stroke-linecap="round" stroke-linejoin="round" />
    <path
        d="M11 5.375V6.625C11 7.28804 11.2634 7.92393 11.7322 8.39277C12.2011 8.86161 12.837 9.125 13.5 9.125C14.163 9.125 14.7989 8.86161 15.2678 8.39277C15.7366 7.92393 16 7.28804 16 6.625V5.375"
        stroke="currentColor" stroke-width="1.5" stroke-linecap="round" stroke-linejoin="round" />
    <path
        d="M14.2812 1H2.71875C2.58317 1.00112 2.45152 1.04575 2.34322 1.12733C2.23492 1.20891 2.15568 1.32312 2.11719 1.45312L1 5.375H16L14.8828 1.45312C14.8443 1.32312 14.7651 1.20891 14.6568 1.12733C14.5485 1.04575 14.4168 1.00112 14.2812 1V1Z"
        stroke="currentColor" stroke-width="1.5" stroke-linecap="round" stroke-linejoin="round" />
    <path
        d="M14.75 8.78125V14.125C14.75 14.2908 14.6842 14.4497 14.5669 14.5669C14.4497 14.6842 14.2908 14.75 14.125 14.75H2.875C2.70924 14.75 2.55027 14.6842 2.43306 14.5669C2.31585 14.4497 2.25 14.2908 2.25 14.125V8.78125"
        stroke="currentColor" stroke-width="1.5" stroke-linecap="round" stroke-linejoin="round" />
</svg>