<svg width="20" height="21" viewBox="0 0 20 21" fill="none" xmlns="http://www.w3.org/2000/svg">
<path opacity="0.4" d="M9.58334 18C13.9556 18 17.5 14.4556 17.5 10.0833C17.5 5.71107 13.9556 2.16666 9.58334 2.16666C5.21108 2.16666 1.66667 5.71107 1.66667 10.0833C1.66667 14.4556 5.21108 18 9.58334 18Z" fill="white"/>
<path d="M17.75 18.8333C17.6 18.8333 17.45 18.775 17.3417 18.6667L15.7917 17.1167C15.5667 16.8917 15.5667 16.525 15.7917 16.2917C16.0167 16.0667 16.3833 16.0667 16.6167 16.2917L18.1667 17.8417C18.3917 18.0667 18.3917 18.4333 18.1667 18.6667C18.05 18.775 17.9 18.8333 17.75 18.8333Z" fill="white"/>
</svg>
