<svg width="48" height="48" viewBox="0 0 48 48" fill="none" xmlns="http://www.w3.org/2000/svg">
<path opacity="0.988" fill-rule="evenodd" clip-rule="evenodd" d="M24.1422 7.94315C24.4573 7.55618 24.7382 7.14827 24.9843 6.71941C25.3793 6.14787 25.814 5.60399 26.2883 5.08777C27.6562 4.71019 29.0281 4.34758 30.4039 4L30.4718 4.02719C30.9676 4.73862 31.4566 5.45477 31.9387 6.17553C29.5145 6.86381 27.0878 7.54367 24.6584 8.21509C24.4826 8.13175 24.3104 8.04103 24.1422 7.94315Z" fill="#FCE61D"/>
<path opacity="0.982" fill-rule="evenodd" clip-rule="evenodd" d="M26.2874 5.08554C25.8131 5.60177 25.3785 6.14565 24.9835 6.71719C24.9854 6.70528 24.9808 6.6962 24.9699 6.69C24.529 7.03878 24.0712 7.36551 23.598 7.66898C22.7668 7.27106 21.9427 6.85855 21.126 6.43165C22.842 5.96595 24.5626 5.51723 26.2874 5.08554Z" fill="#FB832B"/>
<path opacity="0.985" fill-rule="evenodd" clip-rule="evenodd" d="M24.9841 6.7186C24.738 7.14745 24.4571 7.55536 24.1419 7.94234C23.9539 7.86631 23.7722 7.77538 23.5986 7.6704C24.0718 7.36692 24.5296 7.04019 24.9705 6.69141C24.9814 6.69761 24.986 6.70669 24.9841 6.7186Z" fill="#FC5D35"/>
<path opacity="0.985" fill-rule="evenodd" clip-rule="evenodd" d="M21.0993 8.67957C18.9609 9.17891 16.8873 8.97949 14.8784 8.0813C15.9344 7.78747 16.994 7.50644 18.0568 7.23828C19.0778 7.70405 20.0921 8.18453 21.0993 8.67957Z" fill="#FA822C"/>
<path opacity="0.993" fill-rule="evenodd" clip-rule="evenodd" d="M14.8788 8.0777C16.8877 8.97589 18.9612 9.17531 21.0997 8.67597C21.3732 8.81284 21.6449 8.94881 21.9146 9.08388C21.22 9.73404 20.5591 10.4229 19.9316 11.1506C19.1975 10.8172 18.4684 10.4727 17.7447 10.1173C17.4547 10.2137 17.1601 10.2953 16.8619 10.362C16.773 10.3268 16.6826 10.2905 16.5902 10.2532C16.2373 10.0451 15.8842 9.83659 15.5307 9.62776C15.2314 9.61242 14.9325 9.58976 14.6343 9.55978C14.0638 9.22897 13.4933 8.89811 12.9229 8.56719C13.5727 8.3955 14.2247 8.23232 14.8788 8.0777Z" fill="#FA782E"/>
<path opacity="0.99" fill-rule="evenodd" clip-rule="evenodd" d="M23.1367 12.6735C23.1368 12.1835 23.1549 11.6937 23.191 11.205C23.2413 11.0125 23.2731 10.8131 23.2861 10.6068C23.3356 10.3441 23.4035 10.0903 23.4899 9.84532C23.9649 10.0536 24.4316 10.2804 24.8889 10.5252C27.6672 9.70391 30.4472 8.88809 33.2287 8.0777C33.2629 8.08474 33.2901 8.10288 33.3102 8.13209C33.8073 8.87004 34.3099 9.60431 34.8179 10.3348C31.4972 11.3719 28.1739 12.4007 24.8481 13.4213C24.8028 13.4395 24.7577 13.4395 24.7123 13.4213C24.1837 13.1794 23.6584 12.9301 23.1367 12.6735Z" fill="#FAE41C"/>
<path opacity="0.988" fill-rule="evenodd" clip-rule="evenodd" d="M12.9226 8.56641C13.4927 8.89711 14.0631 9.22799 14.634 9.55899C14.9322 9.58897 15.2311 9.61164 15.5305 9.62698C15.8839 9.8358 16.237 10.0443 16.5899 10.2524C16.6823 10.2897 16.7727 10.326 16.8616 10.3612C16.3207 10.524 15.7774 10.6781 15.2316 10.8235C14.3852 9.85631 13.3529 9.17645 12.1348 8.78396C12.3985 8.71568 12.6611 8.64316 12.9226 8.56641Z" fill="#FA752F"/>
<path opacity="0.995" fill-rule="evenodd" clip-rule="evenodd" d="M12.1349 8.78906C13.353 9.18156 14.3853 9.86141 15.2317 10.8286C14.6648 10.9955 14.0941 11.1496 13.5203 11.2909C12.4353 10.7387 11.3576 10.1721 10.2876 9.59129L12.5695 9.5641C12.1975 9.36887 11.8263 9.17397 11.4557 8.97942C11.6783 8.90316 11.9051 8.83961 12.1349 8.78906Z" fill="#FA5E30"/>
<path opacity="0.989" fill-rule="evenodd" clip-rule="evenodd" d="M11.4555 8.97656C11.8261 9.17111 12.1973 9.36601 12.5693 9.56124L10.2874 9.58843C11.3574 10.1692 12.4351 10.7358 13.5201 11.2881C12.5808 11.5641 11.6391 11.8316 10.6949 12.0903C10.562 12.4224 10.4262 12.7532 10.2874 13.0829H7.95117C8.34601 11.9107 8.74898 10.7414 9.16004 9.57483C9.92125 9.36053 10.6866 9.16107 11.4555 8.97656Z" fill="#FA6032"/>
<path opacity="0.993" fill-rule="evenodd" clip-rule="evenodd" d="M21.9142 9.08594C22.2608 9.24388 22.6049 9.40707 22.9465 9.57543C22.7833 9.83002 22.6203 10.0838 22.4575 10.3369C22.1127 10.8453 21.7954 11.3718 21.5068 11.9141C20.9797 11.6594 20.4546 11.4056 19.9312 11.1527C20.5587 10.425 21.2196 9.7361 21.9142 9.08594Z" fill="#F95834"/>
<path opacity="0.989" fill-rule="evenodd" clip-rule="evenodd" d="M22.947 9.57031L23.4903 9.84225C23.4039 10.0872 23.336 10.341 23.2866 10.6037C23.2735 10.81 23.2417 11.0095 23.1915 11.202C23.2097 11.0378 23.2097 10.8747 23.1915 10.7125C22.9744 10.6173 22.7571 10.5221 22.5395 10.4269C22.4971 10.4063 22.47 10.3746 22.458 10.3317C22.6207 10.0787 22.7837 9.8249 22.947 9.57031Z" fill="#F9BD1C"/>
<path fill-rule="evenodd" clip-rule="evenodd" d="M22.4576 10.3356C22.4696 10.3784 22.4967 10.4102 22.5391 10.4308C22.7567 10.526 22.974 10.6212 23.1911 10.7164C23.2093 10.8785 23.2093 11.0417 23.1911 11.2058C23.1549 11.6945 23.1368 12.1843 23.1368 12.6743L21.5068 11.9129C21.7954 11.3705 22.1128 10.844 22.4576 10.3356Z" fill="#F8B71C"/>
<path opacity="0.988" fill-rule="evenodd" clip-rule="evenodd" d="M7.95092 13.082H10.2872C9.81304 14.3748 9.32403 15.6621 8.82022 16.9436C8.19921 16.61 7.57437 16.2837 6.9458 15.9646C7.26996 15 7.60502 14.0391 7.95092 13.082Z" fill="#F86235"/>
<path fill-rule="evenodd" clip-rule="evenodd" d="M18.3287 13.1092C18.0187 13.5583 17.7017 14.0025 17.3779 14.4417C17.1941 13.9161 16.9669 13.4067 16.6987 12.9188C16.9682 12.8093 17.2488 12.7413 17.5409 12.7148C17.806 12.8475 18.0687 12.979 18.3287 13.1092Z" fill="#F9722F"/>
<path opacity="0.991" fill-rule="evenodd" clip-rule="evenodd" d="M25.5821 18.7924C24.7761 17.8896 24.1603 16.8653 23.7349 15.7194C23.9979 15.8261 24.2562 15.944 24.5091 16.073L36.1631 12.293C36.6974 13.0635 37.2315 13.834 37.7658 14.6045C37.7819 14.6312 37.7729 14.6493 37.7387 14.6589C33.6893 16.0448 29.6371 17.4227 25.5821 18.7924Z" fill="#F8E21A"/>
<path opacity="0.992" fill-rule="evenodd" clip-rule="evenodd" d="M18.3287 13.1055C19.0113 13.4245 19.6905 13.7509 20.3661 14.0845C20.1898 14.4053 20.0442 14.7422 19.9315 15.0906C19.7413 15.4247 19.5876 15.7782 19.4697 16.1512C19.3909 16.2845 19.3366 16.4295 19.3067 16.5863C18.8234 16.367 18.3434 16.1403 17.8669 15.9065C17.762 15.5323 17.6487 15.1606 17.5273 14.7915C17.4899 14.6733 17.4401 14.5645 17.3779 14.4652V14.438C17.7012 13.9996 18.0182 13.5555 18.3287 13.1055Z" fill="#F85634"/>
<path opacity="0.991" fill-rule="evenodd" clip-rule="evenodd" d="M16.6987 12.9219C16.9669 13.4098 17.1941 13.9191 17.3779 14.4447V14.4719C17.0541 14.9844 16.7371 15.5011 16.4271 16.022C15.4679 16.3165 14.5079 16.6111 13.5475 16.9058C13.0003 18.1142 12.457 19.3244 11.9176 20.5362C11.3925 20.255 10.8673 19.974 10.342 19.6932C10.1728 19.6355 10.0092 19.5627 9.85303 19.4757C10.548 17.7442 11.2544 16.0174 11.9719 14.2952C13.5435 13.8236 15.1192 13.3658 16.6987 12.9219Z" fill="#F86033"/>
<path opacity="0.987" fill-rule="evenodd" clip-rule="evenodd" d="M20.3658 14.0857C21.4831 14.6131 22.5969 15.148 23.7072 15.6901C23.7441 15.961 23.7713 16.2331 23.7887 16.506C23.7707 16.5304 23.7528 16.5576 23.7343 16.5875C23.2052 16.3532 22.6708 16.131 22.1316 15.9213C22.0248 15.8489 21.9161 15.7764 21.8056 15.7037L21.0449 15.6765C20.7116 15.4824 20.3767 15.2875 20.0398 15.0919C20.0026 15.0563 19.9665 15.0563 19.9312 15.0919C20.0444 14.742 20.1895 14.4066 20.3658 14.0857Z" fill="#F5A41B"/>
<path opacity="0.978" fill-rule="evenodd" clip-rule="evenodd" d="M17.378 14.4646C17.4402 14.5639 17.49 14.6727 17.5274 14.791C17.6488 15.1601 17.7621 15.5318 17.867 15.9059C17.7101 15.8501 17.5559 15.7865 17.4052 15.7156L16.4272 16.0147C16.7373 15.4938 17.0543 14.9771 17.378 14.4646Z" fill="#F84C35"/>
<path fill-rule="evenodd" clip-rule="evenodd" d="M23.7891 16.5072C23.8544 16.9873 23.9178 17.4678 23.9792 17.9484C23.9572 17.9972 23.9436 18.0516 23.9385 18.1116C23.6832 17.9834 23.4251 17.861 23.1643 17.7445C22.9559 17.5947 22.7381 17.4584 22.5123 17.3366C22.3528 17.3303 22.1945 17.3167 22.0369 17.2958C21.2017 16.9173 20.3594 16.5547 19.5105 16.208C19.4825 16.1989 19.4689 16.1807 19.4698 16.1536C19.5877 15.7807 19.7414 15.4271 19.9316 15.0931C19.9669 15.0575 20.003 15.0575 20.0402 15.0931C20.3771 15.2887 20.712 15.4836 21.0454 15.6777L21.806 15.7049C21.9166 15.7776 22.0252 15.8501 22.132 15.9225C22.6712 16.1322 23.2056 16.3543 23.7347 16.5887C23.7518 16.5608 23.7699 16.5336 23.7891 16.5072Z" fill="#F59F1A"/>
<path opacity="0.982" fill-rule="evenodd" clip-rule="evenodd" d="M6.94627 15.9686C7.57483 16.2877 8.19968 16.614 8.82069 16.9476C8.62046 17.499 8.41217 18.0475 8.19588 18.5928C7.48023 18.574 6.76482 18.5468 6.0498 18.5113C6.35131 17.6647 6.65013 16.8171 6.94627 15.9686Z" fill="#F76436"/>
<path opacity="0.975" fill-rule="evenodd" clip-rule="evenodd" d="M19.4696 16.1523C19.4688 16.1795 19.4824 16.1976 19.5104 16.2067C20.3593 16.5534 21.2016 16.916 22.0368 17.2945C22.1943 17.3154 22.3527 17.329 22.5122 17.3353C22.738 17.4571 22.9558 17.5934 23.1641 17.7432C23.4249 17.8598 23.6831 17.9822 23.9384 18.1103C23.9435 18.0503 23.9571 17.9959 23.9791 17.9472C24.0449 18.2428 24.0903 18.5427 24.1149 18.8446C22.5095 18.0978 20.9068 17.3454 19.3066 16.5875C19.3365 16.4307 19.3909 16.2856 19.4696 16.1523Z" fill="#F49B1A"/>
<path opacity="0.992" fill-rule="evenodd" clip-rule="evenodd" d="M40.1696 18.1171C39.5891 18.8705 38.9189 19.5322 38.1594 20.1022C37.1822 20.4737 36.2043 20.8453 35.2255 21.2172C35.1914 21.3241 35.1642 21.4331 35.144 21.5435C34.1136 21.8333 33.0631 21.9421 31.9928 21.8699H31.9385C32.113 20.9286 32.3032 19.9902 32.509 19.0553C34.7265 18.2594 36.9451 17.4663 39.1645 16.6758C39.5101 17.1487 39.8452 17.6293 40.1696 18.1171Z" fill="#F6E119"/>
<path opacity="0.993" fill-rule="evenodd" clip-rule="evenodd" d="M23.7075 15.6914C23.7257 15.6914 23.7347 15.7005 23.7347 15.7186C24.1601 16.8645 24.7759 17.8888 25.5819 18.7915C25.2907 18.9085 24.9963 19.0173 24.6991 19.1179C24.5061 19.0235 24.3114 18.9329 24.115 18.8459C24.0904 18.544 24.045 18.2442 23.9792 17.9485C23.9178 17.4678 23.8544 16.9874 23.789 16.5072C23.7716 16.2344 23.7445 15.9623 23.7075 15.6914Z" fill="#F7B91A"/>
<path opacity="0.968" fill-rule="evenodd" clip-rule="evenodd" d="M40.1694 18.1133C40.4062 18.4276 40.6327 18.7496 40.8486 19.0787C39.9572 19.432 39.0607 19.7719 38.1592 20.0985C38.9187 19.5284 39.5889 18.8667 40.1694 18.1133Z" fill="#DCCA19"/>
<path opacity="0.994" fill-rule="evenodd" clip-rule="evenodd" d="M18.3555 18.9773C18.3387 18.9803 18.3251 18.9894 18.3148 19.0045C18.2985 19.1237 18.2756 19.2415 18.2468 19.358C18.0862 19.2804 17.9231 19.2079 17.7579 19.1405C17.6538 19.1072 17.5498 19.1072 17.4455 19.1405C17.3926 19.1148 17.3462 19.0777 17.3096 19.0317C17.2493 19.074 17.1814 19.1012 17.1059 19.1133C17.0702 19.0911 17.0381 19.0636 17.0108 19.0317C16.882 19.0605 16.7508 19.1058 16.6169 19.1677C16.5727 19.1999 16.5318 19.2363 16.4947 19.2765C16.4796 19.2623 16.4607 19.2529 16.4403 19.2493C16.4036 19.2784 16.3623 19.3014 16.3181 19.3173C16.3363 19.3263 16.3542 19.3354 16.3724 19.3444C16.3344 19.3803 16.2847 19.412 16.223 19.4396C16.1929 19.4739 16.1882 19.5056 16.2094 19.5348C16.1059 19.5823 16.0108 19.6594 15.9242 19.766C15.9152 19.7478 15.906 19.7297 15.897 19.7116C15.8269 19.8284 15.7816 19.9554 15.7612 20.0923C15.7522 20.0832 15.743 20.0741 15.734 20.0651C15.7226 20.1072 15.6989 20.1451 15.6661 20.1739C15.7118 20.2107 15.7253 20.256 15.7069 20.3098C15.6887 20.2736 15.6707 20.2736 15.6525 20.3098C15.611 20.3925 15.5702 20.4604 15.5303 20.5138C15.5393 20.5229 15.5485 20.5319 15.5575 20.541C15.4944 20.676 15.4311 20.812 15.3673 20.9489C15.3855 20.958 15.4034 20.967 15.4216 20.9761C15.3855 20.9942 15.3492 21.0123 15.313 21.0305C15.3346 21.0386 15.3534 21.0528 15.3673 21.0713C15.3238 21.1763 15.2785 21.2806 15.2315 21.384L15.2586 21.4112C15.2276 21.5646 15.2004 21.7187 15.1771 21.8735C15.1934 21.9178 15.1843 21.9631 15.15 22.0095L15.2043 22.0367C15.1917 22.1021 15.1872 22.1701 15.1907 22.2406C15.1756 22.1837 15.162 22.1791 15.15 22.227C15.1626 22.2743 15.1809 22.32 15.2043 22.363C15.1854 22.6345 15.1763 22.9066 15.1771 23.1788C15.2465 23.317 15.2374 23.453 15.15 23.5867C15.1941 23.6099 15.2032 23.6371 15.1771 23.6683C15.2384 23.7359 15.2384 23.7993 15.1771 23.8587C15.1881 23.8844 15.2063 23.9025 15.2315 23.9131C15.1912 23.9836 15.2003 24.047 15.2586 24.1034C15.2509 24.1566 15.2509 24.2155 15.2586 24.2802C15.0598 24.6783 14.8606 25.0772 14.661 25.4767H12.7051C12.7349 25.2956 12.7666 25.1142 12.8002 24.9328C13.1508 23.5492 13.5817 22.1872 14.0905 20.8537C14.3494 20.2945 14.612 19.737 14.8783 19.1813C15.6743 18.9202 16.4711 18.6619 17.2689 18.4062C17.6326 18.5974 17.995 18.7878 18.3555 18.9773Z" fill="#F55337"/>
<path opacity="0.997" fill-rule="evenodd" clip-rule="evenodd" d="M18.3559 18.9805C18.4007 18.9849 18.4371 19.003 18.4646 19.0349C18.4229 19.2081 18.3776 19.3803 18.3288 19.5516C18.3059 19.5609 18.297 19.579 18.3016 19.606C18.1457 19.5804 18.0009 19.5441 17.8669 19.4972C17.8509 19.5029 17.8373 19.512 17.8262 19.5244L17.5817 19.47C17.5247 19.5003 17.4657 19.5003 17.4051 19.47C17.2464 19.5263 17.0827 19.5672 16.9161 19.5924C16.677 19.7164 16.4497 19.862 16.237 20.0275C16.0966 20.2314 15.9564 20.4354 15.8159 20.6393C15.77 20.8138 15.7111 20.9906 15.6394 21.1696C15.6483 21.1787 15.6576 21.1878 15.6665 21.1968C15.6405 21.2811 15.6179 21.3672 15.5986 21.4552C15.5913 21.5049 15.5685 21.5457 15.5307 21.5775C15.5677 21.6302 15.5587 21.6755 15.5035 21.7135C15.5685 21.7491 15.5685 21.7763 15.5035 21.7951C15.506 21.9137 15.506 22.0315 15.5035 22.1486C15.4853 22.1849 15.4674 22.2211 15.4492 22.2574C15.4568 22.3315 15.4568 22.404 15.4492 22.4749C15.4674 22.5112 15.4853 22.5475 15.5035 22.5837C15.5027 22.684 15.4936 22.7841 15.4764 22.8829C15.5266 23.0044 15.5266 23.1223 15.4764 23.2364C15.4927 23.305 15.5109 23.373 15.5307 23.4403C15.4989 23.5446 15.4989 23.6534 15.5307 23.7667C15.4474 23.9426 15.3567 24.115 15.2591 24.2834C15.2513 24.2187 15.2513 24.1598 15.2591 24.1066C15.2007 24.0502 15.1916 23.9867 15.2319 23.9162C15.2067 23.9057 15.1886 23.8875 15.1776 23.8618C15.2388 23.8025 15.2388 23.7391 15.1776 23.6715C15.2036 23.6403 15.1945 23.6131 15.1504 23.5899C15.2378 23.4562 15.2469 23.3202 15.1776 23.182C15.1767 22.9098 15.1858 22.6377 15.2047 22.3662C15.1813 22.3232 15.163 22.2775 15.1504 22.2302C15.1625 22.1823 15.176 22.1868 15.1911 22.2438C15.1876 22.1732 15.1921 22.1052 15.2047 22.0398L15.1504 22.0126C15.1847 21.9663 15.1938 21.9209 15.1776 21.8767C15.2008 21.7219 15.228 21.5678 15.2591 21.4144L15.2319 21.3872C15.279 21.2837 15.3242 21.1795 15.3677 21.0744C15.3539 21.0559 15.335 21.0418 15.3134 21.0337C15.3496 21.0155 15.3859 20.9974 15.422 20.9793C15.4038 20.9702 15.3859 20.9611 15.3677 20.9521C15.4316 20.8152 15.4948 20.6792 15.5579 20.5442C15.5489 20.5351 15.5397 20.526 15.5307 20.517C15.5706 20.4636 15.6114 20.3956 15.653 20.313C15.6712 20.2768 15.6891 20.2768 15.7073 20.313C15.7258 20.2592 15.7122 20.2139 15.6665 20.177C15.6994 20.1483 15.723 20.1104 15.7344 20.0683C15.7434 20.0773 15.7526 20.0864 15.7616 20.0955C15.782 19.9585 15.8274 19.8316 15.8974 19.7147C15.9064 19.7329 15.9156 19.751 15.9246 19.7691C16.0113 19.6625 16.1063 19.5855 16.2098 19.538C16.1887 19.5088 16.1933 19.4771 16.2234 19.4428C16.2851 19.4152 16.3348 19.3835 16.3728 19.3476C16.3546 19.3386 16.3367 19.3295 16.3185 19.3204C16.3627 19.3046 16.404 19.2816 16.4408 19.2524C16.4617 19.2564 16.4799 19.2654 16.4951 19.2796C16.5322 19.2395 16.5732 19.2031 16.6173 19.1709C16.7513 19.109 16.8825 19.0636 17.0112 19.0349C17.0386 19.0668 17.0706 19.0943 17.1063 19.1165C17.1818 19.1043 17.2497 19.0771 17.31 19.0349C17.3466 19.0808 17.3931 19.118 17.4459 19.1437C17.5502 19.1104 17.6542 19.1104 17.7583 19.1437C17.9235 19.211 18.0866 19.2836 18.2473 19.3612C18.2761 19.2447 18.2989 19.1269 18.3152 19.0077C18.3255 18.9926 18.3391 18.9835 18.3559 18.9805Z" fill="#F55A35"/>
<path opacity="0.997" fill-rule="evenodd" clip-rule="evenodd" d="M18.4644 19.0352C18.5317 19.0642 18.5955 19.1007 18.6546 19.1439C18.6598 19.1901 18.6823 19.2263 18.7225 19.2527C18.7421 19.2965 18.7375 19.3373 18.7089 19.3751C18.7679 19.4256 18.7858 19.4845 18.7633 19.5518C18.8352 19.6201 18.8532 19.6881 18.8176 19.7558C18.8776 19.8406 18.8776 19.9222 18.8176 20.0005C18.8405 20.0189 18.8591 20.0421 18.8719 20.0685C18.857 20.1094 18.857 20.1547 18.8719 20.2045C18.9078 20.1999 18.9396 20.2089 18.967 20.2317C18.9855 20.298 18.9719 20.3569 18.9263 20.4085C18.9371 20.4485 18.9553 20.4848 18.9806 20.5172C18.9304 20.5765 18.8707 20.6271 18.804 20.6668C18.7793 20.6354 18.7565 20.64 18.7361 20.6804C18.8021 20.6927 18.8067 20.7153 18.7497 20.7484C18.707 20.7636 18.6709 20.7455 18.641 20.694C18.6136 20.7168 18.5818 20.7258 18.5459 20.7212C18.4693 20.3069 18.4104 19.8896 18.3694 19.4703C18.3631 19.5039 18.3495 19.5311 18.3286 19.5518C18.3775 19.3806 18.4228 19.2083 18.4644 19.0352Z" fill="#F48022"/>
<path opacity="0.99" fill-rule="evenodd" clip-rule="evenodd" d="M9.853 19.4688C10.0092 19.5558 10.1728 19.6286 10.342 19.6863C10.8673 19.9671 11.3925 20.2481 11.9176 20.5293C11.639 21.1914 11.3492 21.8487 11.0483 22.5009C9.67133 22.4825 8.29476 22.4417 6.91912 22.3785L6.75613 22.4057C6.50211 23.0582 6.24856 23.7109 5.9955 24.3637C5.69338 23.2237 5.4396 22.0715 5.23486 20.91C5.29091 20.6874 5.36355 20.4692 5.45219 20.2574L5.73743 20.2302C6.9739 20.2846 8.20997 20.348 9.44552 20.4205C9.58878 20.1065 9.72464 19.7892 9.853 19.4688Z" fill="#F56537"/>
<path opacity="0.998" fill-rule="evenodd" clip-rule="evenodd" d="M18.3011 19.6047C18.2788 19.6853 18.2606 19.767 18.2468 19.8495C17.6502 19.6077 17.089 19.6938 16.5625 20.1078C16.3419 20.2924 16.1607 20.51 16.0192 20.7605C16.0282 20.7695 16.0374 20.7786 16.0464 20.7877C15.8119 21.3089 15.6853 21.8528 15.6661 22.4193C15.6897 22.7564 15.7079 23.0782 15.7204 23.3847C15.6707 23.5202 15.6074 23.6472 15.5302 23.7654C15.4984 23.6522 15.4984 23.5434 15.5302 23.4391C15.5103 23.3716 15.4922 23.3036 15.4759 23.2351C15.5262 23.121 15.5262 23.0032 15.4759 22.8816C15.493 22.7847 15.502 22.685 15.5031 22.5825C15.4849 22.5462 15.4669 22.51 15.4487 22.4737C15.4563 22.4028 15.4563 22.3302 15.4487 22.2561C15.4669 22.2199 15.4849 22.1836 15.5031 22.1474C15.5055 22.0303 15.5055 21.9124 15.5031 21.7938C15.568 21.7751 15.568 21.7479 15.5031 21.7123C15.5582 21.6743 15.5672 21.629 15.5302 21.5763C15.568 21.5445 15.5908 21.5037 15.5981 21.4539C15.6174 21.366 15.64 21.2799 15.6661 21.1956C15.6571 21.1865 15.6479 21.1774 15.6389 21.1684C15.7106 20.9893 15.7696 20.8125 15.8155 20.6381C15.9559 20.4341 16.0961 20.2302 16.2365 20.0262C16.4492 19.8608 16.6765 19.7151 16.9157 19.5911C17.0822 19.566 17.2459 19.525 17.4046 19.4688C17.4652 19.4991 17.5242 19.4991 17.5812 19.4688L17.8257 19.5231C17.8369 19.5107 17.8504 19.5016 17.8665 19.4959C18.0004 19.5429 18.1452 19.5792 18.3011 19.6047Z" fill="#F56032"/>
<path opacity="0.975" fill-rule="evenodd" clip-rule="evenodd" d="M19.0889 19.3595C19.7516 19.6686 20.404 19.9996 21.0448 20.352C20.6654 20.4862 20.2851 20.6176 19.9038 20.7464C19.8384 20.7134 19.7751 20.6726 19.7137 20.624C19.7226 20.5968 19.7319 20.5696 19.7408 20.5424C19.6145 20.5079 19.5012 20.449 19.4013 20.3656C19.3901 20.2894 19.3948 20.2214 19.4149 20.1617C19.3573 20.1203 19.3483 20.0704 19.3877 20.0121C19.3524 19.9427 19.3252 19.8702 19.3062 19.7946C19.2683 19.7746 19.232 19.7519 19.1975 19.7266C19.2122 19.6791 19.2212 19.6293 19.2247 19.577C19.1573 19.5185 19.112 19.446 19.0889 19.3595Z" fill="#F28B1A"/>
<path opacity="0.995" fill-rule="evenodd" clip-rule="evenodd" d="M18.2467 19.8563V19.9107C18.2068 19.9337 18.1843 19.97 18.1788 20.0195C17.4739 19.8138 16.8809 20.0041 16.3995 20.5906C16.2042 20.8916 16.0637 21.2179 15.9784 21.5695C15.9189 21.9069 15.878 22.2474 15.8562 22.5893C15.8662 22.6556 15.8842 22.7281 15.9105 22.8069C15.8746 22.8867 15.8746 22.9638 15.9105 23.038C15.8543 23.1596 15.7908 23.2777 15.7203 23.3915C15.7079 23.0851 15.6896 22.7633 15.666 22.4262C15.6853 21.8596 15.8119 21.3157 16.0463 20.7945C16.0374 20.7855 16.0281 20.7764 16.0192 20.7673C16.1607 20.5168 16.3419 20.2992 16.5625 20.1147C17.0889 19.7007 17.6502 19.6146 18.2467 19.8563Z" fill="#F56630"/>
<path opacity="0.993" fill-rule="evenodd" clip-rule="evenodd" d="M18.2475 19.9102C18.2326 19.9972 18.2054 20.0788 18.166 20.1549C17.2978 19.9816 16.6684 20.2989 16.278 21.1067C16.1794 21.4158 16.1025 21.7375 16.0471 22.0721C16.0561 22.0811 16.0653 22.0902 16.0743 22.0993C16.0427 22.3501 16.0248 22.5903 16.0199 22.8199C15.9974 22.9011 15.9612 22.9736 15.9113 23.0375C15.8754 22.9632 15.8754 22.8862 15.9113 22.8063C15.8849 22.7276 15.867 22.6551 15.8569 22.5888C15.8787 22.248 15.9194 21.9081 15.9792 21.569C16.0645 21.2174 16.2049 20.891 16.4002 20.59C16.8816 20.0036 17.4746 19.8132 18.1796 20.0189C18.185 19.9694 18.2076 19.9332 18.2475 19.9102Z" fill="#F56D2D"/>
<path opacity="0.98" fill-rule="evenodd" clip-rule="evenodd" d="M18.6545 19.1445C18.8062 19.2024 18.9518 19.2753 19.0891 19.3621C19.1122 19.4486 19.1576 19.5212 19.2249 19.5796C19.2217 19.6304 19.2126 19.6806 19.1978 19.7292C19.232 19.7543 19.2681 19.777 19.3064 19.7972C19.3255 19.8728 19.3526 19.9453 19.3879 20.0147C19.3485 20.073 19.3575 20.1229 19.4151 20.1643C19.395 20.2241 19.3904 20.292 19.4015 20.3683C19.5015 20.4516 19.6148 20.5105 19.7411 20.545C19.7321 20.5722 19.7229 20.5994 19.7139 20.6266C19.7753 20.6752 19.8386 20.716 19.9041 20.749C18.8302 21.1224 17.7526 21.485 16.6714 21.8368C16.7208 21.4518 16.8931 21.1209 17.1875 20.8442C17.4296 20.6578 17.6966 20.608 17.9889 20.6946C18.0606 20.62 18.0921 20.5294 18.084 20.4227C18.1101 20.3737 18.128 20.3193 18.1383 20.2595C18.1361 20.2213 18.1456 20.1834 18.1655 20.1507C18.2049 20.0746 18.232 19.993 18.247 19.906V19.8516C18.2608 19.7691 18.279 19.6874 18.3013 19.6068C18.2967 19.5799 18.3057 19.5617 18.3285 19.5524C18.3494 19.5317 18.363 19.5045 18.3692 19.4709C18.4103 19.8902 18.4692 20.3075 18.5458 20.7218C18.5817 20.7264 18.6134 20.7174 18.6409 20.6946C18.6708 20.7461 18.7069 20.7642 18.7495 20.749C18.8066 20.7159 18.802 20.6933 18.736 20.681C18.7563 20.6406 18.7792 20.636 18.8039 20.6674C18.8706 20.6277 18.9303 20.5771 18.9805 20.5178C18.9553 20.4856 18.9368 20.4486 18.9261 20.4091C18.9718 20.3575 18.9853 20.2986 18.9669 20.2323C18.9394 20.2095 18.9077 20.2005 18.8718 20.2051C18.8569 20.1553 18.8569 20.11 18.8718 20.0691C18.859 20.0427 18.8404 20.0195 18.8175 20.0011C18.8775 19.9228 18.8775 19.8412 18.8175 19.7564C18.853 19.6887 18.8351 19.6207 18.7631 19.5524C18.7857 19.4851 18.7677 19.4262 18.7088 19.3757C18.7373 19.3379 18.7419 19.2971 18.7224 19.2533C18.6822 19.2269 18.6596 19.1907 18.6545 19.1445Z" fill="#F58621"/>
<path opacity="0.991" fill-rule="evenodd" clip-rule="evenodd" d="M18.1651 20.1554C18.1452 20.188 18.1358 20.226 18.138 20.2641C17.4012 20.1502 16.8443 20.4221 16.4673 21.08C16.3832 21.2438 16.3194 21.4174 16.2771 21.5967C16.2625 21.8119 16.2307 22.0256 16.182 22.2357C16.2019 22.3064 16.2108 22.3744 16.2092 22.4397C16.1595 22.5752 16.0962 22.7021 16.019 22.8204C16.0239 22.5908 16.0419 22.3506 16.0734 22.0997C16.0644 22.0907 16.0552 22.0816 16.0462 22.0726C16.1016 21.738 16.1785 21.4162 16.2771 21.1072C16.6675 20.2994 17.2969 19.9821 18.1651 20.1554Z" fill="#F5732A"/>
<path opacity="0.991" fill-rule="evenodd" clip-rule="evenodd" d="M18.1385 20.2596C18.1282 20.3194 18.1103 20.3738 18.0842 20.4228C17.3404 20.3323 16.8199 20.6495 16.5222 21.3746C16.4703 21.5598 16.4205 21.7457 16.3728 21.9321C16.3744 21.9818 16.3836 22.0316 16.3999 22.0816C16.3434 22.204 16.2799 22.3219 16.2098 22.4352C16.2114 22.3699 16.2024 22.3019 16.1826 22.2312C16.2313 22.0211 16.2631 21.8074 16.2777 21.5921C16.3199 21.4128 16.3838 21.2393 16.4679 21.0754C16.8449 20.4176 17.4018 20.1456 18.1385 20.2596Z" fill="#F57927"/>
<path opacity="0.991" fill-rule="evenodd" clip-rule="evenodd" d="M18.084 20.4213C18.0921 20.5281 18.0606 20.6187 17.9889 20.6933C17.6966 20.6066 17.4296 20.6565 17.1875 20.8428C16.893 21.1196 16.7208 21.4505 16.6714 21.8354C16.623 21.8653 16.5687 21.888 16.5084 21.9034C16.476 21.9646 16.4397 22.0236 16.3997 22.0802C16.3834 22.0302 16.3742 21.9803 16.3726 21.9306C16.4203 21.7442 16.4701 21.5584 16.522 21.3731C16.8197 20.6481 17.3402 20.3308 18.084 20.4213Z" fill="#F58024"/>
<path opacity="0.979" fill-rule="evenodd" clip-rule="evenodd" d="M29.4665 21.3481C28.9652 21.1699 28.4753 20.961 27.9996 20.7227C27.9779 20.7102 27.9689 20.6921 27.9724 20.6683C28.5465 20.4533 29.1263 20.2538 29.711 20.07C29.6331 20.4967 29.5516 20.9228 29.4665 21.3481Z" fill="#F6E018"/>
<path opacity="0.994" fill-rule="evenodd" clip-rule="evenodd" d="M27.9723 20.668C27.9687 20.6918 27.9777 20.7099 27.9994 20.7224C28.4752 20.9607 28.9651 21.1696 29.4664 21.3478C29.412 21.629 29.3577 21.91 29.3034 22.1908C28.8812 22.1919 28.4645 22.1919 28.0537 22.1908C27.9461 21.7072 27.8735 21.2164 27.8364 20.7224L27.9723 20.668Z" fill="#F5CF19"/>
<path opacity="0.982" fill-rule="evenodd" clip-rule="evenodd" d="M27.8367 20.7227C27.8738 21.2167 27.9464 21.7075 28.0541 22.1911V22.2183C28.0372 22.2153 28.0236 22.2063 28.0133 22.1911C28.0043 22.1368 27.9951 22.0824 27.9861 22.028C27.978 22.0496 27.9638 22.0685 27.9454 22.0824C27.9102 22.0661 27.8739 22.0525 27.8367 22.0416C27.5917 22.037 27.3472 22.0234 27.1033 22.0008C26.6663 21.825 26.2317 21.6437 25.7993 21.4569C26.4765 21.2067 27.1556 20.9619 27.8367 20.7227Z" fill="#F5B018"/>
<path opacity="0.991" fill-rule="evenodd" clip-rule="evenodd" d="M35.1439 21.5391C35.0784 21.9482 35.006 22.3562 34.9266 22.7628C34.9056 22.742 34.8921 22.7149 34.8858 22.6812C34.8768 22.6903 34.8676 22.6994 34.8586 22.7084C34.7933 22.6715 34.7252 22.6396 34.6549 22.6132L34.8179 22.5588C34.7538 22.5379 34.6941 22.5056 34.6413 22.4637C34.6136 22.4945 34.5957 22.4854 34.587 22.4365C34.4525 22.4119 34.3031 22.3665 34.1388 22.3005C34.0839 22.3362 34.0521 22.3181 34.0437 22.2461L33.9622 22.2733C33.9304 22.2354 33.8896 22.2127 33.8399 22.2053C33.6112 22.1669 33.3845 22.117 33.1608 22.0558C33.072 22.0528 32.9815 22.0528 32.8891 22.0558C32.837 22.042 32.7899 22.0137 32.7533 21.9742C32.6775 22.0221 32.6006 22.0403 32.5224 22.0286C32.5124 21.9902 32.4898 21.963 32.4545 21.947C32.4061 21.9489 32.3564 21.9579 32.3051 21.9742C32.197 21.9394 32.0929 21.9031 31.9927 21.8654C33.063 21.9376 34.1135 21.8288 35.1439 21.5391Z" fill="#F4CF18"/>
<path opacity="0.993" fill-rule="evenodd" clip-rule="evenodd" d="M24.7939 21.8125C24.9069 22.1836 25.0156 22.5552 25.1199 22.9275C25.1423 22.9896 25.1605 23.0532 25.1742 23.1178C25.1242 23.1335 25.0699 23.1289 25.0112 23.1042C24.4499 22.8345 23.879 22.585 23.2998 22.3564C23.7938 22.1642 24.292 21.9829 24.7939 21.8125Z" fill="#F28B18"/>
<path opacity="0.999" fill-rule="evenodd" clip-rule="evenodd" d="M25.7996 21.4609C26.2319 21.6477 26.6666 21.829 27.1035 22.0048C27.3474 22.0274 27.5919 22.041 27.837 22.0456C27.8742 22.0565 27.9106 22.0701 27.9456 22.0864C27.9641 22.0725 27.9782 22.0536 27.9864 22.032C27.9953 22.0864 28.0046 22.1408 28.0135 22.1952C28.0239 22.2103 28.0375 22.2194 28.0543 22.2224C28.1511 22.746 28.278 23.2635 28.4346 23.7724C28.3349 23.8087 28.2352 23.845 28.1358 23.8812C27.8855 23.7607 27.6319 23.6473 27.3752 23.5413L26.696 23.5141C26.5871 23.4777 26.4784 23.4414 26.37 23.4053C25.9751 23.2207 25.5766 23.0439 25.1748 22.875C25.1563 22.8952 25.1381 22.9133 25.1204 22.9294C25.0159 22.5566 24.9072 22.1849 24.7944 21.8145C25.1272 21.6913 25.4624 21.5735 25.7996 21.4609Z" fill="#F4AB18"/>
<path opacity="0.981" fill-rule="evenodd" clip-rule="evenodd" d="M28.0542 22.1914C28.4649 22.1925 28.8817 22.1925 29.3038 22.1914C29.2161 22.6352 29.1301 23.0794 29.0457 23.5239C28.8453 23.6135 28.6414 23.6951 28.4345 23.7687C28.2779 23.2598 28.151 22.7422 28.0542 22.2186V22.1914Z" fill="#F4CA18"/>
<path opacity="0.995" fill-rule="evenodd" clip-rule="evenodd" d="M31.9385 21.8633H31.9928C32.0931 21.901 32.1971 21.9372 32.3052 21.9721C32.3566 21.9558 32.4063 21.9467 32.4547 21.9449C32.49 21.9609 32.5125 21.9881 32.5226 22.0264C32.6008 22.0381 32.6777 22.02 32.7535 21.9721C32.7901 22.0116 32.8372 22.0399 32.8893 22.0536C32.9817 22.0507 33.0721 22.0507 33.161 22.0536C33.3867 22.1154 33.6133 22.1652 33.8401 22.2032C33.8898 22.2106 33.9306 22.2333 33.9623 22.2712L34.0438 22.244C34.0523 22.316 34.084 22.3341 34.1389 22.2984C34.3033 22.3644 34.4527 22.4097 34.5872 22.4344C34.5958 22.4833 34.6138 22.4924 34.6415 22.4616C34.6942 22.5035 34.754 22.5358 34.8181 22.5567L34.6551 22.6111C34.7257 22.6377 34.7936 22.6694 34.8588 22.7063C34.8678 22.6972 34.877 22.6882 34.886 22.6791C34.8922 22.7127 34.9058 22.7399 34.9267 22.7607C34.9017 22.9476 34.8656 23.1288 34.8181 23.3046C34.6868 23.1391 34.5146 23.0439 34.3019 23.019C34.2837 23.0009 34.2658 22.9828 34.2476 22.9646C33.8413 22.8131 33.4234 22.6949 32.998 22.6111C32.5416 22.5432 32.1162 22.6203 31.7212 22.8423C31.7907 22.5122 31.8633 22.1859 31.9385 21.8633Z" fill="#F4CB18"/>
<path opacity="0.991" fill-rule="evenodd" clip-rule="evenodd" d="M39.7897 22.168C39.8223 22.2735 39.872 22.3823 39.9391 22.4943C40.026 22.5891 40.1215 22.6756 40.2244 22.7526C40.1592 22.7577 40.0959 22.7713 40.0342 22.7934C40.047 22.8199 40.0656 22.8431 40.0885 22.8614C40.0824 22.9118 40.0733 22.9617 40.0614 23.011L40.1021 23.0926C40.4868 23.4413 40.854 23.8089 41.2023 24.1939C41.3398 24.2896 41.4672 24.399 41.5827 24.5203C41.4379 24.5292 41.2928 24.5385 41.148 24.5475C41.225 24.6201 41.2976 24.6973 41.3653 24.7786C40.7574 25.0465 40.1415 25.3005 39.5181 25.54C39.2389 24.9107 38.9717 24.276 38.7167 23.6365C38.57 23.4249 38.4434 23.1982 38.3364 22.9566C38.3013 22.8904 38.2877 22.827 38.2956 22.7662C38.7907 22.5596 39.2888 22.3601 39.7897 22.168Z" fill="#D6C317"/>
<path opacity="0.993" fill-rule="evenodd" clip-rule="evenodd" d="M40.9028 21.7266C41.5929 22.5165 42.2632 23.3235 42.9131 24.1468C42.3991 24.3607 41.8829 24.5692 41.3647 24.7723C41.2969 24.691 41.2243 24.6138 41.1473 24.5412C41.2921 24.5322 41.4372 24.5229 41.582 24.514C41.4665 24.3927 41.3391 24.2833 41.2017 24.1876C40.8533 23.8026 40.4861 23.435 40.1015 23.0863L40.0607 23.0047C40.0729 22.9539 40.0819 22.904 40.0879 22.8551C40.0649 22.8368 40.0464 22.8136 40.0336 22.7871C40.0952 22.765 40.1585 22.7514 40.2237 22.7463C40.1208 22.6693 40.0253 22.5828 39.9385 22.488C39.8714 22.376 39.8217 22.2672 39.7891 22.1617C40.1601 22.0167 40.5315 21.8716 40.9028 21.7266Z" fill="#D4BF18"/>
<path opacity="0.973" fill-rule="evenodd" clip-rule="evenodd" d="M42.9131 24.1513C42.2632 23.3279 41.5929 22.5209 40.9028 21.731C41.3579 21.5463 41.815 21.3651 42.2747 21.1871C42.8647 22.0002 43.4398 22.8251 43.9997 23.6618C43.9837 23.6971 43.9565 23.7197 43.9182 23.7298C43.5824 23.8707 43.2475 24.0112 42.9131 24.1513Z" fill="#DAC918"/>
<path opacity="0.993" fill-rule="evenodd" clip-rule="evenodd" d="M23.3001 22.3555C23.8793 22.5842 24.4502 22.8337 25.0115 23.1034C25.0702 23.1281 25.1245 23.1326 25.1745 23.117C25.3591 23.6718 25.5493 24.2248 25.745 24.7758C25.6926 24.7993 25.638 24.8176 25.582 24.8302C25.3069 24.6869 25.0352 24.5373 24.767 24.3815C24.3272 24.2146 23.8836 24.0288 23.4359 23.824C23.1547 23.8078 22.8739 23.7851 22.5938 23.756C22.1168 23.5569 21.6457 23.3437 21.1812 23.117C21.8815 22.8469 22.588 22.593 23.3001 22.3555Z" fill="#F18618"/>
<path opacity="0.992" fill-rule="evenodd" clip-rule="evenodd" d="M34.8176 23.3071C34.7025 24.0345 34.5759 24.7596 34.4373 25.4827C33.586 25.478 32.7349 25.4827 31.8838 25.4963C32.0008 25.6498 32.1378 25.787 32.2912 25.9042C32.2777 25.9088 32.2641 25.9132 32.2505 25.9178C32.0438 25.8218 31.8354 25.731 31.6257 25.6458C31.4089 25.7832 31.1962 25.7832 30.9873 25.6458C31.0389 25.6192 31.0933 25.592 31.1503 25.5643C31.3543 24.6609 31.5445 23.7545 31.7208 22.8448C32.1158 22.6229 32.5412 22.5458 32.9976 22.6137C33.423 22.6975 33.8409 22.8157 34.2472 22.9672C34.2654 22.9853 34.2833 23.0035 34.3015 23.0216C34.5142 23.0465 34.6864 23.1416 34.8176 23.3071Z" fill="#F4C217"/>
<path opacity="0.987" fill-rule="evenodd" clip-rule="evenodd" d="M28.135 23.8773C27.3382 24.1764 26.5415 24.4755 25.7444 24.7747C25.5487 24.2237 25.3586 23.6707 25.174 23.1158C25.1602 23.0512 25.142 22.9876 25.1196 22.9255C25.1373 22.9094 25.1555 22.8913 25.174 22.8711C25.576 23.04 25.9745 23.2168 26.3692 23.4014C26.4776 23.4375 26.5863 23.4737 26.6952 23.5102L27.3744 23.5373C27.6311 23.6434 27.8847 23.7568 28.135 23.8773Z" fill="#F4A618"/>
<path opacity="0.995" fill-rule="evenodd" clip-rule="evenodd" d="M37.9426 22.8984C38.2652 23.5807 38.5732 24.2697 38.8662 24.9652C38.8605 24.9812 38.8515 24.9948 38.839 25.006C38.9683 25.1991 39.0273 25.4123 39.0156 25.645C38.9857 25.6872 38.9496 25.7236 38.907 25.7538C38.8822 25.7225 38.8594 25.7269 38.839 25.7674C38.1591 25.818 37.4981 25.9493 36.856 26.1617C36.8562 26.0791 36.8652 25.9975 36.8831 25.917C37.4378 25.7691 37.9994 25.6467 38.5674 25.5499C38.6304 25.514 38.6847 25.4686 38.7304 25.4139L38.7032 25.3867C38.7559 25.2836 38.7605 25.1792 38.7168 25.074C38.4265 24.3573 38.1139 23.65 37.7796 22.9528L37.9426 22.8984Z" fill="#EACA17"/>
<path opacity="0.988" fill-rule="evenodd" clip-rule="evenodd" d="M5.2347 20.9102C5.43944 22.0716 5.69321 23.2239 5.99534 24.3638C5.73071 25.1041 5.44993 25.8385 5.1532 26.5665C4.77875 25.9349 4.4254 25.2909 4.09375 24.6358V24.1735C4.45864 23.0775 4.83895 21.9898 5.2347 20.9102Z" fill="#F35C35"/>
<path opacity="0.97" fill-rule="evenodd" clip-rule="evenodd" d="M14.0906 20.8634C13.5818 22.1969 13.1509 23.5589 12.8003 24.9425C12.7667 25.1239 12.735 25.3053 12.7052 25.4864C12.6884 25.4894 12.6748 25.4984 12.6644 25.5136C12.5584 25.9857 12.4542 26.4573 12.352 26.9277C12.3556 26.9038 12.3465 26.8858 12.3249 26.8733C12.0157 26.7461 11.726 26.5919 11.4556 26.411C12.3193 24.5549 13.1977 22.7057 14.0906 20.8634Z" fill="#F36437"/>
<path opacity="0.981" fill-rule="evenodd" clip-rule="evenodd" d="M37.7793 22.9531C38.1126 23.6479 38.425 24.355 38.7165 25.0743C38.7602 25.1795 38.7556 25.2839 38.7029 25.387L38.7301 25.4142C38.6843 25.469 38.6291 25.515 38.5671 25.5502C38.0003 25.6467 37.4383 25.7692 36.8828 25.9173C37.0575 24.993 37.2341 24.0683 37.4125 23.1435C37.421 23.1215 37.4345 23.1034 37.4533 23.0891C37.5628 23.0436 37.6714 22.9982 37.7793 22.9531Z" fill="#F3CB17"/>
<path opacity="0.995" fill-rule="evenodd" clip-rule="evenodd" d="M21.1816 23.1174C21.6461 23.3442 22.1172 23.5573 22.5942 23.7565C22.8743 23.7855 23.1551 23.8082 23.4363 23.8244C23.884 24.0292 24.3276 24.215 24.7674 24.3819C25.0356 24.5377 25.3073 24.6873 25.5824 24.8306C24.9165 25.0892 24.2464 25.343 23.5721 25.5921C23.5515 25.5711 23.5243 25.5575 23.4906 25.5513C23.2366 25.5467 22.9832 25.5331 22.73 25.5105C22.3244 25.3329 21.9169 25.1608 21.5076 24.9938C21.4654 25.0664 21.479 25.13 21.5483 25.1842C21.5665 25.2203 21.5665 25.2568 21.5483 25.2929C21.4331 25.2421 21.3201 25.1877 21.2087 25.1298C21.1721 25.1871 21.181 25.2369 21.2359 25.2793V25.4153C21.1881 25.4191 21.143 25.4055 21.1001 25.3745C21.0802 25.4262 21.0802 25.4806 21.1001 25.5377C20.9884 25.5339 20.9069 25.5521 20.8556 25.5921C20.9132 25.6679 20.9311 25.7495 20.9099 25.8368C20.8683 25.768 20.8412 25.777 20.8284 25.864C20.8667 25.9858 20.9121 26.1036 20.9642 26.2175L20.9099 26.2719C20.9651 26.3195 20.974 26.3739 20.9371 26.4351C20.9553 26.4813 20.9735 26.5265 20.9914 26.5711C20.8102 26.6344 20.6293 26.6981 20.4481 26.7614C20.4261 26.7361 20.4033 26.7089 20.3802 26.6798C20.2397 26.2967 20.1175 25.9159 20.0134 25.5377C20.064 25.5388 20.1001 25.5162 20.1221 25.4697C20.0803 25.2119 20.0349 24.9535 19.9863 24.6947C19.9882 24.5475 19.9882 24.4023 19.9863 24.2596C19.9789 24.1891 19.9606 24.1203 19.932 24.0556C20.0029 23.9847 19.9936 23.9213 19.9048 23.8652C19.9773 23.8471 19.9773 23.829 19.9048 23.8109C19.958 23.7974 20.0131 23.7928 20.0678 23.7973C20.068 23.7385 20.0863 23.7022 20.1221 23.6885C20.0971 23.6442 20.0879 23.6034 20.0949 23.5661L20.1764 23.5389C20.1561 23.5207 20.1468 23.498 20.1493 23.4709C20.4896 23.3422 20.8338 23.2243 21.1816 23.1174Z" fill="#F08018"/>
<path opacity="0.992" fill-rule="evenodd" clip-rule="evenodd" d="M20.1484 23.4727C20.146 23.4998 20.1552 23.5224 20.1756 23.5407L20.0941 23.5679C20.087 23.6051 20.0962 23.6459 20.1212 23.6902C20.0854 23.704 20.0672 23.7402 20.0669 23.799C20.0122 23.7946 19.9571 23.7992 19.9039 23.8126C19.9764 23.8307 19.9764 23.8488 19.9039 23.867C19.9927 23.923 20.002 23.9865 19.9311 24.0573C19.9597 24.1221 19.9781 24.1909 19.9854 24.2613C19.9873 24.4041 19.9873 24.5493 19.9854 24.6964C20.034 24.9553 20.0794 25.2136 20.1212 25.4714C20.0992 25.5179 20.0631 25.5405 20.0126 25.5394C20.1166 25.9177 20.2389 26.2984 20.3793 26.6816C20.4024 26.7107 20.4252 26.7379 20.4472 26.7632C20.1563 26.8831 19.8621 27.0008 19.5643 27.1167C18.9865 28.0837 18.4025 29.0448 17.8122 29.9993C17.7948 29.9064 17.7578 29.8183 17.7035 29.7409C17.716 29.7298 17.725 29.7162 17.7307 29.7001L17.6492 29.537C17.6872 29.5005 17.6782 29.4777 17.622 29.469C17.628 29.42 17.6369 29.3703 17.6492 29.3194C17.6087 29.2993 17.5679 29.2811 17.5269 29.265C17.5085 29.2302 17.5128 29.1984 17.5405 29.1698C17.4452 29.1198 17.4359 29.0562 17.5133 28.9795C17.472 28.9046 17.4266 28.832 17.3775 28.7619C17.4093 28.691 17.3914 28.6183 17.3232 28.5444C17.3161 28.4644 17.3251 28.3918 17.3504 28.3268L17.296 28.2724V28.0549C17.2447 28.0255 17.2354 27.9893 17.2689 27.9461C17.2354 27.836 17.1993 27.7272 17.1602 27.6198C17.158 27.5678 17.167 27.5134 17.1874 27.4566C17.1659 27.427 17.1477 27.3954 17.133 27.3614C17.1137 27.251 17.1137 27.1469 17.133 27.0487C17.0817 26.8991 17.0456 26.7542 17.0244 26.6136C16.9948 26.4842 16.9948 26.3664 17.0244 26.2601L16.97 26.2057C17.0094 26.1385 17.0005 26.0705 16.9429 26.0017C17.2558 25.4255 17.5726 24.8498 17.8937 24.2749C18.6448 24.0046 19.3965 23.7372 20.1484 23.4727Z" fill="#F2861E"/>
<path opacity="0.991" fill-rule="evenodd" clip-rule="evenodd" d="M38.295 22.7621C38.2871 22.8229 38.3007 22.8863 38.3358 22.9525C38.4428 23.1941 38.5694 23.4207 38.7161 23.6323C38.9679 24.2644 39.2352 24.899 39.5175 25.5359C38.6006 25.9328 37.6768 26.3136 36.7466 26.6781C36.7694 26.4997 36.8058 26.3276 36.8552 26.1614C37.4974 25.949 38.1584 25.8177 38.8383 25.7671C38.8587 25.7266 38.8815 25.7222 38.9062 25.7535C38.9489 25.7233 38.985 25.6869 39.0149 25.6447C39.0266 25.4119 38.9676 25.1987 38.8383 25.0056C38.8508 24.9945 38.8598 24.9809 38.8655 24.9649C38.5724 24.2694 38.2645 23.5803 37.9419 22.8981C38.0566 22.8453 38.1745 22.7999 38.295 22.7621Z" fill="#DFC817"/>
<path opacity="0.746" fill-rule="evenodd" clip-rule="evenodd" d="M4.09374 24.1793V24.6416C3.97006 24.4925 3.97006 24.3384 4.09374 24.1793Z" fill="#14E1E8"/>
<path opacity="0.981" fill-rule="evenodd" clip-rule="evenodd" d="M23.5718 25.5907C22.7115 25.917 21.8515 26.2434 20.9911 26.5697C20.9732 26.5251 20.955 26.48 20.9368 26.4337C20.9737 26.3725 20.9648 26.3181 20.9096 26.2706L20.964 26.2162C20.9114 26.1013 20.866 25.9832 20.8281 25.8626C20.8409 25.7756 20.8681 25.7666 20.9096 25.8355C20.9308 25.7482 20.9129 25.6666 20.8553 25.5907C20.9066 25.5507 20.9881 25.5325 21.0998 25.5363C21.0799 25.4792 21.0799 25.4248 21.0998 25.3731C21.1427 25.4042 21.1878 25.4177 21.2356 25.4139V25.278C21.1807 25.2355 21.1718 25.1858 21.2084 25.1284C21.3198 25.1863 21.4328 25.2407 21.548 25.2916C21.5662 25.2554 21.5662 25.219 21.548 25.1828C21.4787 25.1287 21.4652 25.065 21.5073 24.9924C21.9166 25.1594 22.3241 25.3315 22.7297 25.5091C22.9829 25.5317 23.2363 25.5453 23.4903 25.5499C23.524 25.5562 23.5512 25.5698 23.5718 25.5907Z" fill="#F07B17"/>
<path opacity="0.988" fill-rule="evenodd" clip-rule="evenodd" d="M7.95168 29.5057C7.57036 28.6398 7.19907 27.7695 6.83789 26.895C7.20009 25.9794 7.56231 25.0641 7.92451 24.1484C8.71685 24.1631 9.50465 24.2039 10.2879 24.2708C9.5127 26.0173 8.73395 27.7623 7.95168 29.5057Z" fill="#F3673A"/>
<path opacity="0.989" fill-rule="evenodd" clip-rule="evenodd" d="M12.7052 25.4805H14.6611C13.7302 27.299 12.7885 29.112 11.8359 30.9193C11.938 29.5732 12.11 28.2407 12.3521 26.9218C12.4543 26.4513 12.5584 25.9798 12.6645 25.5077C12.6749 25.4924 12.6885 25.4835 12.7052 25.4805Z" fill="#F25538"/>
<path opacity="0.994" fill-rule="evenodd" clip-rule="evenodd" d="M34.4374 25.4822C34.321 26.173 34.1942 26.862 34.0571 27.549C33.9101 27.5403 33.7653 27.5675 33.6224 27.6305C33.5319 27.5944 33.4412 27.5579 33.3508 27.5218C33.1644 27.6009 32.9742 27.6145 32.7803 27.5626C32.5711 27.4668 32.3627 27.3717 32.1555 27.277C31.9884 27.3722 31.8118 27.3994 31.6257 27.3586C31.487 27.2915 31.3466 27.2281 31.2047 27.1682C31.09 27.2265 30.9658 27.2634 30.8379 27.277C30.6586 27.2003 30.4774 27.1277 30.2946 27.0595C30.1713 27.0891 30.0491 27.1255 29.9279 27.1682C29.8855 27.1527 29.8448 27.1345 29.8057 27.1139C29.7967 27.1321 29.7875 27.15 29.7785 27.1682C29.7709 27.1432 29.7573 27.1253 29.7377 27.1139C29.5905 26.8452 29.4639 26.564 29.3574 26.2708C29.901 26.0623 30.4443 25.8537 30.9874 25.6454C31.1963 25.7827 31.409 25.7827 31.6257 25.6454C31.8355 25.7305 32.0438 25.8213 32.2505 25.9173C32.2641 25.9127 32.2777 25.9083 32.2913 25.9037C32.1379 25.7866 32.0008 25.6494 31.8838 25.4958C32.7349 25.4822 33.586 25.4776 34.4374 25.4822Z" fill="#F2BE17"/>
<path opacity="0.975" fill-rule="evenodd" clip-rule="evenodd" d="M40.903 27.6852C40.9065 27.665 40.9019 27.6468 40.8894 27.6308C40.6034 27.3537 40.3181 27.0771 40.0337 26.8013C40.1695 26.7924 40.3053 26.7831 40.4412 26.7742C40.3887 26.6939 40.3254 26.6259 40.251 26.5702C41.3844 26.0954 42.5163 25.6149 43.6467 25.1289L43.6739 25.1561C42.9888 25.8974 42.3007 26.6363 41.6093 27.3724C41.3765 27.4845 41.141 27.5886 40.903 27.6852Z" fill="#D6C417"/>
<path opacity="0.993" fill-rule="evenodd" clip-rule="evenodd" d="M16.943 26C17.0006 26.0688 17.0096 26.1368 16.9702 26.204L17.0245 26.2583C16.9949 26.3647 16.9949 26.4824 17.0245 26.6119C17.0457 26.7525 17.0819 26.8974 17.1332 27.047C17.1139 27.1451 17.1139 27.2493 17.1332 27.3597C17.1479 27.3937 17.1661 27.4252 17.1875 27.4549C17.1672 27.5117 17.1582 27.5661 17.1604 27.6181C17.1995 27.7255 17.2356 27.8342 17.269 27.9444C17.2356 27.9876 17.2449 28.0238 17.2962 28.0532V28.2707L17.3505 28.3251C17.3253 28.3901 17.3163 28.4627 17.3234 28.5427C17.3915 28.6166 17.4095 28.6892 17.3777 28.7602C17.4269 28.8304 17.4722 28.903 17.5135 28.9778C17.4361 29.0544 17.4453 29.1181 17.5407 29.1681C17.513 29.1967 17.5086 29.2285 17.5271 29.2633C17.5681 29.2793 17.6089 29.2976 17.6493 29.3177C17.6371 29.3685 17.6282 29.4183 17.6222 29.4673C17.6784 29.476 17.6874 29.4988 17.6493 29.5352L17.7308 29.6984C17.7251 29.7144 17.7162 29.728 17.7037 29.7392C17.758 29.8165 17.795 29.9046 17.8123 29.9975C17.7262 30.17 17.6268 30.3331 17.5135 30.487C17.4684 30.3424 17.4231 30.1974 17.3777 30.0519C17.4095 30.0136 17.4002 29.982 17.3505 29.9567L17.3777 29.9296C17.3358 29.806 17.2905 29.6835 17.2419 29.5624C17.2476 29.5464 17.2565 29.5328 17.269 29.5216C17.2294 29.4599 17.2068 29.3919 17.2011 29.3177C17.1533 29.2913 17.1397 29.2595 17.1604 29.2225C17.1327 29.1262 17.0965 29.0357 17.0517 28.9506C17.0536 28.8725 17.0536 28.7956 17.0517 28.7194C17.0433 28.6974 17.0297 28.6794 17.011 28.665C16.9697 28.3882 16.9197 28.1298 16.8615 27.89C16.8887 27.8128 16.8705 27.7312 16.8072 27.6452V27.3189C16.7662 27.2798 16.757 27.239 16.78 27.1965C16.7212 26.9649 16.6848 26.7281 16.6714 26.4895C16.7483 26.3174 16.8387 26.1542 16.943 26Z" fill="#F28020"/>
<path opacity="0.987" fill-rule="evenodd" clip-rule="evenodd" d="M29.3577 26.2695C29.4642 26.5627 29.5908 26.8439 29.738 27.1125L30.2541 28.1459C30.2074 28.1457 30.1577 28.1367 30.1047 28.1187C29.2517 27.7391 28.396 27.3674 27.5376 27.0038C28.1401 26.7541 28.747 26.5094 29.3577 26.2695Z" fill="#F29E16"/>
<path opacity="0.99" fill-rule="evenodd" clip-rule="evenodd" d="M11.4558 26.4062C11.7262 26.5871 12.016 26.7413 12.3251 26.8686C12.3468 26.8811 12.3558 26.899 12.3523 26.9229C12.1102 28.2419 11.9382 29.5744 11.8361 30.9205C11.3869 31.847 10.9159 32.7628 10.4235 33.6671C9.93447 32.9597 9.47233 32.234 9.03809 31.4916C9.83757 29.7914 10.6435 28.0961 11.4558 26.4062Z" fill="#F1673A"/>
<path opacity="0.991" fill-rule="evenodd" clip-rule="evenodd" d="M16.6715 26.4885C16.6851 26.7281 16.7212 26.9639 16.7801 27.1956C16.757 27.238 16.7663 27.2788 16.8073 27.3179V27.6443C16.8706 27.7302 16.8888 27.8118 16.8616 27.889C16.9198 28.1289 16.9697 28.3872 17.011 28.664C17.0298 28.6785 17.0434 28.6964 17.0518 28.7184C17.0537 28.7946 17.0537 28.8715 17.0518 28.9496C17.0966 29.0347 17.1327 29.1253 17.1605 29.2215C17.1398 29.2585 17.1534 29.2903 17.2012 29.3167C17.2069 29.3909 17.2295 29.4589 17.2691 29.5207C17.2566 29.5318 17.2477 29.5454 17.2419 29.5614C17.2917 29.6852 17.3368 29.8076 17.3778 29.9286L17.3506 29.9558C17.4003 29.9811 17.4096 30.0126 17.3778 30.0509C17.4231 30.1964 17.4685 30.3414 17.5136 30.486C17.4797 30.5735 17.434 30.6558 17.3778 30.7308C17.0605 29.6985 16.8068 28.6608 16.6171 27.6171C16.6209 27.4422 16.6209 27.2698 16.6171 27.1004C16.5935 26.9747 16.5663 26.8524 16.5356 26.7333C16.5742 26.6471 16.6193 26.5655 16.6715 26.4885Z" fill="#F17923"/>
<path opacity="0.981" fill-rule="evenodd" clip-rule="evenodd" d="M40.2514 26.5703C40.3259 26.6261 40.3892 26.694 40.4416 26.7743C40.3058 26.7832 40.1699 26.7925 40.0341 26.8015C40.3185 27.0772 40.6038 27.3538 40.8898 27.6309C40.9023 27.6469 40.9069 27.6651 40.9034 27.6853C39.2257 28.4345 37.5414 29.1687 35.8506 29.888C35.5219 29.5473 35.35 29.1393 35.3345 28.6643C36.9712 27.961 38.6101 27.2629 40.2514 26.5703Z" fill="#DBCB16"/>
<path opacity="0.993" fill-rule="evenodd" clip-rule="evenodd" d="M16.5356 26.7305C16.5662 26.8496 16.5934 26.972 16.617 27.0976C16.6209 27.267 16.6209 27.4394 16.617 27.6143C16.8067 28.658 17.0604 29.6957 17.3777 30.728C17.3546 30.7927 17.3185 30.8471 17.269 30.8912C17.183 30.6011 17.0833 30.3152 16.9702 30.0346C16.9064 29.7468 16.8384 29.4521 16.7665 29.1507L16.7257 29.11C16.7347 29.0828 16.7439 29.0556 16.7529 29.0284C16.6687 28.7099 16.5872 28.3926 16.5084 28.0766C16.5144 27.9705 16.5144 27.8664 16.5084 27.7638C16.4519 27.502 16.4068 27.248 16.3726 27.0024C16.4272 26.9108 16.4815 26.8202 16.5356 26.7305Z" fill="#F17326"/>
<path opacity="0.99" fill-rule="evenodd" clip-rule="evenodd" d="M16.3726 27.0039C16.4069 27.2495 16.452 27.5035 16.5085 27.7653C16.5144 27.8679 16.5144 27.972 16.5085 28.0781C16.5873 28.3941 16.6687 28.7114 16.753 29.0299C16.744 29.0571 16.7348 29.0843 16.7258 29.1115L16.7665 29.1522C16.8385 29.4536 16.9064 29.7483 16.9703 30.0361C17.0833 30.3167 17.1831 30.6026 17.2691 30.8927C17.2533 30.9696 17.2172 31.033 17.1604 31.083C16.9684 30.5168 16.7964 29.9504 16.6443 29.3834C16.6481 29.3625 16.6573 29.3442 16.6715 29.329C16.6413 29.2896 16.6141 29.2534 16.59 29.2202C16.6025 29.2091 16.6114 29.1955 16.6171 29.1794C16.5438 28.985 16.5074 28.7946 16.5085 28.6084C16.4297 28.3938 16.3661 28.1809 16.3183 27.9693C16.3335 27.9497 16.3425 27.9269 16.3455 27.9013C16.3042 27.6925 16.2678 27.4839 16.2368 27.2758C16.2816 27.1858 16.327 27.0953 16.3726 27.0039Z" fill="#F16D29"/>
<path opacity="0.995" fill-rule="evenodd" clip-rule="evenodd" d="M27.5378 27.0039C28.3963 27.3675 29.252 27.7392 30.105 28.1189C30.158 28.1368 30.2077 28.1458 30.2544 28.1461C30.4552 28.4753 30.6455 28.8108 30.8249 29.1522C30.0505 29.4802 29.2717 29.7975 28.4886 30.104C28.2424 29.7578 28.0069 29.4041 27.7823 29.0435C27.4501 28.4634 27.1334 27.8741 26.8315 27.2758C27.0611 27.1701 27.2966 27.0792 27.5378 27.0039Z" fill="#F19816"/>
<path opacity="0.991" fill-rule="evenodd" clip-rule="evenodd" d="M34.0571 27.552C34.0525 27.6436 34.0389 27.7345 34.0164 27.8239C32.9536 28.2721 31.8896 28.7162 30.8244 29.1564C30.645 28.815 30.4548 28.4795 30.2539 28.1503L29.7378 27.1169C29.7574 27.1283 29.7709 27.1463 29.7785 27.1713C29.7875 27.1531 29.7967 27.1351 29.8057 27.1169C29.8448 27.1376 29.8856 27.1558 29.928 27.1713C30.0491 27.1286 30.1714 27.0921 30.2947 27.0625C30.4775 27.1308 30.6586 27.2033 30.838 27.2801C30.9673 27.2659 31.0895 27.2297 31.2047 27.1713C31.3467 27.2311 31.4871 27.2946 31.6258 27.3616C31.8119 27.4024 31.9885 27.3752 32.1555 27.2801C32.3628 27.3747 32.5712 27.4699 32.7803 27.5656C32.9743 27.6175 33.1645 27.6039 33.3508 27.5248C33.4413 27.561 33.532 27.5974 33.6225 27.6336C33.7654 27.5705 33.9101 27.5433 34.0571 27.552Z" fill="#F2B816"/>
<path opacity="0.988" fill-rule="evenodd" clip-rule="evenodd" d="M26.8312 27.2734C27.133 27.8717 27.4498 28.461 27.782 29.0411C27.7644 29.0492 27.7462 29.0585 27.7277 29.0683C27.537 28.9818 27.3468 28.8958 27.1572 28.8099C27.0124 28.8009 26.8674 28.7917 26.7226 28.7827C26.3192 28.5364 25.907 28.3051 25.4865 28.0893L25.4594 28.1165C25.3904 28.0449 25.3045 28.0041 25.2013 27.9941C25.1671 27.9827 25.1491 27.9601 25.147 27.9261C25.7085 27.7085 26.2697 27.491 26.8312 27.2734Z" fill="#EE7816"/>
<path opacity="0.989" fill-rule="evenodd" clip-rule="evenodd" d="M16.1013 27.5234C16.0994 27.6969 16.1266 27.8647 16.1828 28.0265L16.1556 28.0537C16.2855 28.5448 16.3941 29.0343 16.4816 29.5222C16.5691 29.8224 16.6552 30.1262 16.7397 30.4332C16.7836 30.5016 16.8201 30.5745 16.8483 30.6508C16.8899 30.8887 16.9396 31.1245 16.9978 31.3578C16.9684 31.4258 16.932 31.4894 16.8891 31.5482C16.7041 30.9877 16.5321 30.4212 16.3729 29.8485L16.4001 29.8213C16.364 29.7759 16.3276 29.7308 16.2914 29.6854C16.3039 29.6742 16.3129 29.6606 16.3186 29.6446C16.2445 29.3688 16.1722 29.1012 16.1013 28.8424C16.1195 28.7948 16.1287 28.7493 16.1285 28.7064L16.0877 28.6656C16.0504 28.3983 15.9913 28.1346 15.9111 27.877C15.9638 27.7521 16.0271 27.6344 16.1013 27.5234Z" fill="#F1602E"/>
<path opacity="0.978" fill-rule="evenodd" clip-rule="evenodd" d="M6.83737 26.8945C7.19855 27.769 7.56983 28.6393 7.95115 29.5052C7.78398 29.8943 7.61645 30.2843 7.44859 30.6745C7.4371 30.7142 7.41447 30.7278 7.38068 30.7153L6.19898 28.5534C6.18311 28.4783 6.19219 28.406 6.22614 28.3358C6.42686 27.8541 6.6306 27.3737 6.83737 26.8945Z" fill="#F15533"/>
<path opacity="0.993" fill-rule="evenodd" clip-rule="evenodd" d="M15.9107 27.875C15.9909 28.1326 16.0499 28.3964 16.0873 28.6636L16.128 28.7044C16.1283 28.7474 16.119 28.7928 16.1008 28.8404C16.1717 29.0993 16.244 29.3669 16.3182 29.6426C16.3125 29.6587 16.3035 29.6723 16.291 29.6834C16.3271 29.7288 16.3635 29.774 16.3997 29.8194L16.3725 29.8466C16.5317 30.4193 16.7036 30.9857 16.8886 31.5462C16.8226 31.6697 16.7501 31.7874 16.6713 31.8997C16.6238 31.8445 16.6148 31.7855 16.6442 31.723C16.5953 31.7143 16.5863 31.6963 16.617 31.6686C16.5453 31.5715 16.5138 31.4673 16.5219 31.3559C16.4575 31.305 16.4532 31.2599 16.5083 31.2199C16.4255 30.958 16.344 30.7043 16.2638 30.4584C16.269 30.3975 16.269 30.3388 16.2638 30.2817L16.1959 30.2137C16.1432 29.9968 16.0934 29.7792 16.0465 29.561C15.996 29.5621 15.9599 29.5396 15.9378 29.4931C15.9444 29.4237 15.9444 29.3557 15.9378 29.2891C15.9283 29.2565 15.9148 29.2565 15.8971 29.2891C15.8944 29.1966 15.8718 29.1104 15.8292 29.0308C15.8213 28.9413 15.8213 28.8507 15.8292 28.7588C15.7664 28.7493 15.7575 28.7221 15.802 28.6772C15.7931 28.6095 15.7659 28.5505 15.7205 28.5005C15.7265 28.4605 15.7357 28.4197 15.7477 28.3781C15.7268 28.3381 15.7088 28.2973 15.6934 28.2557C15.752 28.1197 15.8246 27.9928 15.9107 27.875Z" fill="#F15A30"/>
<path opacity="0.994" fill-rule="evenodd" clip-rule="evenodd" d="M25.1468 27.9293C25.149 27.9633 25.1669 27.9859 25.2011 27.9973C25.3044 28.0074 25.3902 28.0482 25.4592 28.1197L25.4864 28.0925C25.9085 28.3092 26.3203 28.5404 26.7224 28.7859C26.8672 28.7949 27.0123 28.8042 27.157 28.8131C27.3467 28.8991 27.5368 28.985 27.7275 29.0715C27.746 29.0617 27.7642 29.0524 27.7818 29.0443C28.0064 29.4049 28.242 29.7586 28.4882 30.1049C28.2002 30.2525 27.9014 30.3792 27.5917 30.4856C27.4659 30.4444 27.3469 30.3849 27.2385 30.3088C27.0302 30.2998 26.8221 30.2906 26.6137 30.2816C26.5004 30.2257 26.3822 30.1802 26.2606 30.1456C25.6684 29.8046 25.0797 29.4604 24.4948 29.1123C24.14 28.929 23.7775 28.7611 23.4082 28.6092C23.9923 28.3933 24.5717 28.1665 25.1468 27.9293Z" fill="#EE7315"/>
<path opacity="0.989" fill-rule="evenodd" clip-rule="evenodd" d="M16.237 27.2734C16.268 27.4815 16.3044 27.6901 16.3457 27.8989C16.3427 27.9245 16.3337 27.9473 16.3185 27.9669C16.3663 28.1785 16.4299 28.3914 16.5086 28.606C16.5076 28.7922 16.544 28.9826 16.6173 29.177C16.6116 29.1931 16.6026 29.2067 16.5901 29.2178C16.6143 29.251 16.6415 29.2872 16.6716 29.3266C16.6575 29.3418 16.6483 29.36 16.6445 29.381C16.7966 29.948 16.9686 30.5144 17.1606 31.0806C17.1199 31.1804 17.0655 31.2712 16.9976 31.3526C16.9395 31.1192 16.8898 30.8835 16.8482 30.6455C16.8199 30.5693 16.7835 30.4963 16.7396 30.428C16.6558 30.1236 16.5698 29.82 16.4815 29.517C16.394 29.0291 16.2853 28.5396 16.1555 28.0485L16.1827 28.0213C16.1264 27.8595 16.0993 27.6917 16.1012 27.5182C16.1397 27.432 16.1848 27.3504 16.237 27.2734Z" fill="#F1672B"/>
<path opacity="0.995" fill-rule="evenodd" clip-rule="evenodd" d="M15.6939 28.2578C15.7094 28.2994 15.7273 28.3402 15.7483 28.3802C15.7363 28.4218 15.7271 28.4626 15.7211 28.5026C15.7665 28.5526 15.7936 28.6116 15.8026 28.6793C15.758 28.7242 15.767 28.7514 15.8298 28.7609C15.8219 28.8528 15.8219 28.9434 15.8298 29.0328C15.8724 29.1125 15.895 29.1987 15.8977 29.2912C15.9153 29.2586 15.9289 29.2586 15.9384 29.2912C15.9449 29.3578 15.9449 29.4258 15.9384 29.4951C15.9604 29.5416 15.9966 29.5642 16.0471 29.5631C16.094 29.7813 16.1438 29.9989 16.1965 30.2158L16.2644 30.2838C16.2696 30.3409 16.2696 30.3996 16.2644 30.4605C16.3445 30.7064 16.426 30.9601 16.5089 31.222C16.4538 31.2619 16.4581 31.3071 16.5225 31.3579C16.5143 31.4694 16.5458 31.5736 16.6176 31.6707C16.5869 31.6984 16.5958 31.7164 16.6447 31.7251C16.6154 31.7876 16.6244 31.8466 16.6719 31.9018C16.5956 32.0553 16.5046 32.201 16.4002 32.3369C16.3574 32.2823 16.321 32.223 16.2916 32.1602C16.3285 32.1074 16.3196 32.0623 16.2644 32.0242C16.2872 31.9905 16.278 31.9587 16.2372 31.929C16.215 31.858 16.2014 31.7857 16.1965 31.7115C16.1756 31.6748 16.1438 31.6522 16.1014 31.6435C16.1104 31.5981 16.1196 31.5529 16.1286 31.5075C16.0832 31.4259 16.0381 31.3443 15.9928 31.2628C15.9566 31.1994 15.9566 31.1358 15.9928 31.0724C15.9678 31.0623 15.9452 31.0487 15.9248 31.0316C15.9202 31.0498 15.9159 31.0678 15.9113 31.086C15.9564 31.3117 15.9971 31.5385 16.0335 31.7659C16.0751 31.8015 16.0886 31.8379 16.0743 31.8746C16.0099 31.7856 15.9553 31.6898 15.9113 31.5891C15.9254 31.5739 15.9346 31.5556 15.9384 31.5347C15.8952 31.4083 15.8455 31.2859 15.789 31.1676C15.7757 31.1233 15.7711 31.0778 15.7754 31.0316C15.6366 31.0158 15.6094 31.0746 15.6939 31.2084C15.6915 31.247 15.6823 31.2878 15.6668 31.3308C15.6165 31.3106 15.5983 31.2834 15.6124 31.2492C15.5165 31.2785 15.5165 31.3193 15.6124 31.3715C15.5483 31.4221 15.544 31.4811 15.5989 31.5483C15.6986 31.5276 15.7121 31.4868 15.6396 31.4259C15.6567 31.4055 15.6703 31.383 15.6804 31.3579C15.7032 31.4083 15.7257 31.458 15.7483 31.5075C15.6268 31.5643 15.6043 31.6503 15.6804 31.7659C15.7043 31.7006 15.7225 31.6372 15.7347 31.5755C15.7629 31.606 15.7811 31.6424 15.789 31.6843C15.7977 31.827 15.8205 31.9676 15.8569 32.1058C15.848 32.1194 15.8387 32.133 15.8298 32.1466C15.6975 31.7066 15.666 31.7155 15.7347 32.1738C15.7434 32.2162 15.7659 32.248 15.8026 32.2689C15.8012 32.3649 15.8012 32.4601 15.8026 32.5545C15.87 32.6323 15.8971 32.7228 15.8841 32.8264H15.7483C15.7477 32.9719 15.7659 33.1215 15.8026 33.2751C15.7885 33.2904 15.7792 33.3086 15.7754 33.3295C15.7906 33.4038 15.8088 33.4761 15.8298 33.5471L15.8026 33.5743C15.8319 33.5925 15.8501 33.6197 15.8569 33.6558C15.9232 33.9642 15.9593 34.277 15.9656 34.594C15.9284 34.5897 15.892 34.5943 15.8569 34.6076C15.8996 34.6574 15.9224 34.7161 15.9248 34.7844C15.9553 35.0389 15.9914 35.2929 16.0335 35.5458C16.037 35.6239 16.0688 35.6873 16.1286 35.7362C16.1196 35.7544 16.1104 35.7724 16.1014 35.7906C16.1962 35.9801 16.2595 36.1795 16.2916 36.3889C16.2595 36.3829 16.2324 36.3919 16.2101 36.4161C16.3326 36.7791 16.4684 37.1372 16.6176 37.4902L16.5904 37.5174C16.6436 37.6586 16.698 37.7856 16.7534 37.8981C16.8001 37.9841 16.8362 38.0746 16.8621 38.1701C16.8509 38.1959 16.833 38.2139 16.8077 38.2245C16.8933 38.436 16.9838 38.6446 17.0794 38.8499L17.0522 38.8771C17.1082 38.9198 17.1264 38.9696 17.1065 39.0267C17.1639 39.1202 17.2092 39.22 17.2424 39.3258C17.2625 39.3473 17.2853 39.3653 17.3103 39.3802C17.3714 39.5581 17.4393 39.7212 17.514 39.8697C17.4123 40.0286 17.3036 40.1829 17.188 40.332C17.1544 40.2722 17.1182 40.2132 17.0794 40.1553C17.0954 40.1044 17.0772 40.059 17.025 40.0193L17.0522 39.9921C16.9878 39.8197 16.902 39.6611 16.7941 39.5162C16.7488 39.4074 16.7037 39.2986 16.6583 39.1899C16.604 39.1716 16.5678 39.1355 16.5496 39.0811C16.5122 38.9655 16.4714 38.8524 16.4274 38.7412C16.4546 38.7322 16.4817 38.7229 16.5089 38.714C16.4176 38.5078 16.3451 38.2949 16.2916 38.0749H16.1829C16.143 37.9419 16.1066 37.8059 16.0743 37.667C15.9903 37.6635 15.9403 37.6183 15.9248 37.531C15.8789 37.3243 15.8156 37.134 15.7347 36.9599C15.7195 36.8487 15.6969 36.7399 15.6668 36.6336H15.7483C15.7523 36.6051 15.7477 36.5779 15.7347 36.552C15.6687 36.4971 15.6187 36.4291 15.5853 36.3481L15.6124 36.3209C15.5853 36.2575 15.5581 36.1939 15.5309 36.1305L15.5581 36.1033C15.5219 36.031 15.4989 35.9527 15.4902 35.8722C15.4492 35.8515 15.4128 35.8243 15.3815 35.7906C15.3376 35.5111 15.2786 35.2343 15.205 34.9612C15.2216 34.9193 15.2216 34.8831 15.205 34.8524C15.2355 34.8295 15.2536 34.7977 15.2593 34.7572C15.2505 34.6482 15.2414 34.5394 15.2321 34.4309H15.1235C15.0914 34.3441 15.0914 34.2672 15.1235 34.1997C15.0974 34.1532 15.079 34.1026 15.0691 34.0502C15.0857 33.9716 15.0947 33.8946 15.0963 33.819C15.0782 33.7828 15.0601 33.7464 15.042 33.7102C14.9024 33.7252 14.8572 33.6708 14.9061 33.5471C14.888 33.5289 14.8699 33.5109 14.8518 33.4927C14.8685 33.3719 14.8685 33.2542 14.8518 33.1392C14.7733 33.0878 14.7824 33.0649 14.879 33.0712C14.8676 33.0122 14.8676 32.9578 14.879 32.908C14.8226 32.87 14.7682 32.8292 14.716 32.7856C14.7711 32.7419 14.7711 32.6921 14.716 32.6361C14.7608 32.5762 14.7517 32.5265 14.6888 32.4865C14.6873 32.4305 14.6919 32.3715 14.7024 32.3097C14.6174 32.282 14.5354 32.2456 14.4579 32.201L14.4307 32.0106C14.413 32.0432 14.3994 32.0432 14.39 32.0106C14.4221 31.9644 14.4221 31.9192 14.39 31.8746C14.2046 31.7928 14.0233 31.702 13.8467 31.6027C14.4553 30.4838 15.071 29.3688 15.6939 28.2578Z" fill="#EF5436"/>
<path opacity="0.995" fill-rule="evenodd" clip-rule="evenodd" d="M23.4085 28.6094C23.7777 28.7613 24.1403 28.9292 24.4951 29.1125C25.0799 29.4606 25.6686 29.8048 26.2608 30.1458C26.3828 30.1807 26.5007 30.2258 26.614 30.2818C26.8223 30.2908 27.0304 30.3 27.2388 30.309C27.3471 30.3851 27.4661 30.4446 27.5919 30.4858C27.527 30.5271 27.4545 30.5543 27.3746 30.5674C26.7495 30.5763 26.1247 30.5674 25.5002 30.5402C25.3589 30.4332 25.2035 30.3463 25.0384 30.2818C24.9441 30.2138 24.849 30.1458 24.7531 30.0779C24.0603 29.7044 23.3765 29.3145 22.7021 28.9085C22.9358 28.8093 23.171 28.7094 23.4085 28.6094Z" fill="#EE6F15"/>
<path opacity="0.979" fill-rule="evenodd" clip-rule="evenodd" d="M35.3342 28.6641C35.3496 29.1391 35.5216 29.5471 35.8503 29.8878C35.8028 29.9251 35.7484 29.9522 35.6873 29.9694C35.5425 29.8016 35.4021 29.6295 35.2662 29.4527C35.1755 29.2234 35.1076 28.9969 35.0625 28.7728C35.153 28.7367 35.2434 28.7005 35.3342 28.6641Z" fill="#E2C415"/>
<path opacity="0.977" fill-rule="evenodd" clip-rule="evenodd" d="M35.0625 28.7695C35.1076 28.9936 35.1755 29.2201 35.2662 29.4494C35.4021 29.6261 35.5425 29.7983 35.6873 29.9661C35.5559 30.0309 35.4197 30.0855 35.2798 30.1292C35.2396 30.0294 35.1807 29.9386 35.1032 29.8573C34.9115 29.5707 34.7982 29.2533 34.7637 28.9055C34.859 28.8555 34.9587 28.8101 35.0625 28.7695Z" fill="#EABB15"/>
<path opacity="0.993" fill-rule="evenodd" clip-rule="evenodd" d="M22.7018 28.9102C23.3758 29.3159 24.0592 29.7056 24.7528 30.0795C24.8487 30.1475 24.9438 30.2155 25.038 30.2835C25.2031 30.3479 25.3585 30.4348 25.4998 30.5418C26.1244 30.569 26.7492 30.578 27.3743 30.569C26.6982 30.8664 26.0191 31.1564 25.3368 31.4392C24.8999 31.2233 24.4509 31.0326 23.9921 30.8681C23.8433 30.7938 23.6982 30.7121 23.5575 30.6234C23.5464 30.6359 23.5328 30.6449 23.5167 30.6506C23.4214 30.6019 23.3217 30.5793 23.2179 30.5826C23.2742 30.5913 23.2831 30.6141 23.2451 30.6506C23.3092 30.7471 23.3728 30.8423 23.4353 30.9361C23.3592 30.9424 23.3002 30.9106 23.2587 30.8409C23.2405 30.8681 23.2405 30.8953 23.2587 30.9225C23.3119 30.9881 23.3616 31.056 23.4081 31.1265L23.3809 31.1537C23.4339 31.2263 23.479 31.3035 23.5167 31.3848L23.4896 31.412C23.4467 31.381 23.4016 31.3674 23.3538 31.3712C23.4225 31.4071 23.4225 31.4387 23.3538 31.4664C23.3953 31.5931 23.4586 31.7063 23.5439 31.8063C23.5002 31.8259 23.4594 31.8213 23.4217 31.7927L23.3809 31.8335C23.4195 31.8906 23.4559 31.9496 23.4896 32.0103C23.4209 32.038 23.4209 32.0696 23.4896 32.1055C23.4714 32.1324 23.4714 32.1639 23.4896 32.2006C23.4108 32.2355 23.3293 32.2627 23.2451 32.2822C23.1378 32.0334 23.0291 31.7843 22.9191 31.5344V31.3984C22.861 31.3457 22.8156 31.282 22.7833 31.2081L22.8104 31.1809C22.7743 31.1083 22.7379 31.0359 22.7018 30.9633C22.7143 30.9522 22.7232 30.9386 22.7289 30.9225C22.6553 30.801 22.5917 30.6737 22.5388 30.5418C22.5445 30.5258 22.5535 30.5122 22.566 30.501C22.5298 30.4377 22.4934 30.374 22.4573 30.3107C22.4964 30.2837 22.5236 30.2476 22.5388 30.2019C22.4834 30.1393 22.4744 30.0713 22.5116 29.9979C22.4595 29.8636 22.4051 29.7322 22.3486 29.6036C22.4057 29.6303 22.46 29.6213 22.5116 29.5764C22.4755 29.5492 22.4755 29.522 22.5116 29.4948C22.4866 29.4848 22.4641 29.4712 22.4437 29.454C22.3842 29.3178 22.3524 29.1818 22.3486 29.0461C22.4578 28.9855 22.5757 28.9401 22.7018 28.9102Z" fill="#EC6D16"/>
<path opacity="0.981" fill-rule="evenodd" clip-rule="evenodd" d="M34.7638 28.9102C34.7983 29.258 34.9116 29.5753 35.1034 29.862C35.1808 29.9433 35.2398 30.0341 35.28 30.1339C34.8157 30.357 34.3446 30.5656 33.8674 30.7594C33.8043 30.7776 33.741 30.7819 33.6772 30.773C33.4417 30.6732 33.2064 30.5736 32.9709 30.4738C32.8112 30.4559 32.6617 30.4877 32.5227 30.569C32.3569 30.4882 32.1893 30.4112 32.0201 30.3378C31.9261 30.3253 31.8354 30.3389 31.7484 30.3786C31.6876 30.3544 31.6333 30.3183 31.5854 30.2699C32.6357 29.7956 33.6951 29.3423 34.7638 28.9102Z" fill="#F0B115"/>
<path opacity="0.996" fill-rule="evenodd" clip-rule="evenodd" d="M22.3487 29.0425C22.3525 29.1782 22.3843 29.3142 22.4437 29.4504C22.4641 29.4675 22.4867 29.4811 22.5117 29.4912C22.4755 29.5184 22.4755 29.5456 22.5117 29.5728C22.46 29.6177 22.4057 29.6266 22.3487 29.6C22.4052 29.7286 22.4595 29.86 22.5117 29.9943C22.4744 30.0677 22.4834 30.1357 22.5388 30.1982C22.5236 30.2439 22.4964 30.2801 22.4573 30.307C22.4935 30.3704 22.5299 30.434 22.566 30.4974C22.5535 30.5085 22.5445 30.5221 22.5388 30.5382C22.5921 30.6706 22.6554 30.7976 22.729 30.9189C22.7233 30.9349 22.7143 30.9485 22.7018 30.9597C22.7379 31.0323 22.7743 31.1046 22.8105 31.1772L22.7833 31.2044C22.8156 31.2784 22.861 31.342 22.9191 31.3948V31.5308C23.0292 31.7807 23.1378 32.0298 23.2451 32.2786C23.1905 32.3213 23.1272 32.3485 23.055 32.3602C22.7994 31.858 22.5548 31.3502 22.3215 30.8373C22.3332 30.8158 22.3421 30.793 22.3487 30.7693C22.2354 30.5444 22.1403 30.3223 22.0634 30.1031C22.045 30.0683 22.0493 30.0364 22.077 30.0079C22.0354 29.9065 21.9901 29.8068 21.9412 29.7088L21.9683 29.6816C21.9124 29.5274 21.867 29.3778 21.8325 29.2329C22.0026 29.1641 22.1745 29.1007 22.3487 29.0425Z" fill="#EE7318"/>
<path opacity="0.991" fill-rule="evenodd" clip-rule="evenodd" d="M21.8331 29.2305C21.8676 29.3754 21.913 29.525 21.969 29.6792L21.9418 29.7064C21.9907 29.8044 22.036 29.9041 22.0776 30.0055C22.0499 30.0341 22.0456 30.0659 22.064 30.1007C22.1409 30.3199 22.236 30.542 22.3493 30.7669C22.3427 30.7906 22.3338 30.8134 22.3221 30.8349C22.5554 31.3479 22.8 31.8556 23.0556 32.3578C22.9733 32.4095 22.8828 32.4459 22.7839 32.4666C22.1939 31.5123 21.6598 30.5244 21.1812 29.5024C21.3944 29.407 21.6117 29.3164 21.8331 29.2305Z" fill="#EF7B1A"/>
<path opacity="0.99" fill-rule="evenodd" clip-rule="evenodd" d="M21.1813 29.5083C21.66 30.5303 22.194 31.5182 22.7841 32.4725C22.6999 32.5962 22.6091 32.7142 22.5124 32.826H18.8994C19.6044 31.7276 20.3196 30.6352 21.0455 29.5491C21.0903 29.5325 21.1357 29.5189 21.1813 29.5083Z" fill="#F0841D"/>
<path opacity="0.972" fill-rule="evenodd" clip-rule="evenodd" d="M38.2135 31.0294C38.0709 30.9237 37.9305 30.8149 37.7925 30.7031C37.7365 30.6865 37.6868 30.6593 37.6431 30.6215C37.627 30.6272 37.6134 30.6362 37.6023 30.6487L37.4665 30.5127L37.4393 30.5399C37.4013 30.5201 37.3605 30.5065 37.3171 30.4991L37.3442 30.4719C37.2945 30.4401 37.2445 30.4086 37.1948 30.3768L37.1677 30.404C37.1302 30.3642 37.0893 30.3278 37.0454 30.2952C38.0747 29.807 39.116 29.3494 40.1694 28.9219C39.5218 29.6289 38.8698 30.3316 38.2135 31.0294Z" fill="#DACB16"/>
<path opacity="0.977" fill-rule="evenodd" clip-rule="evenodd" d="M37.0456 30.293C37.0894 30.3256 37.1303 30.362 37.1678 30.4017L37.195 30.3746C37.2447 30.4064 37.2947 30.4379 37.3444 30.4697L37.3172 30.4969C37.3607 30.5043 37.4014 30.5179 37.4395 30.5377L37.4666 30.5105L37.6025 30.6465C37.6136 30.634 37.6272 30.625 37.6432 30.6193C37.687 30.6571 37.7367 30.6843 37.7926 30.7009C37.9306 30.8126 38.071 30.9214 38.2137 31.0272C38.1143 31.1485 37.9874 31.2301 37.8334 31.272C37.3797 31.0269 36.9271 30.7822 36.4751 30.5377C36.662 30.4488 36.8522 30.3672 37.0456 30.293Z" fill="#DCC815"/>
<path opacity="0.954" fill-rule="evenodd" clip-rule="evenodd" d="M33.8674 30.758C33.5531 30.913 33.2318 31.058 32.9031 31.1931C32.5074 30.9368 32.1223 30.6647 31.7485 30.3773C31.8355 30.3376 31.9262 30.324 32.0202 30.3365C32.1886 30.4094 32.3562 30.4866 32.5228 30.5677C32.6618 30.4864 32.8113 30.4545 32.971 30.4725C33.2065 30.5723 33.4418 30.6718 33.6773 30.7716C33.7411 30.7806 33.8044 30.7763 33.8674 30.758Z" fill="#F1AD15"/>
<path opacity="0.977" fill-rule="evenodd" clip-rule="evenodd" d="M36.4753 30.5425C36.9273 30.787 37.3799 31.0317 37.8336 31.2768C37.7725 31.3091 37.7089 31.3364 37.6434 31.3584C37.1796 31.1347 36.7264 30.8897 36.2852 30.6241C36.3452 30.5896 36.409 30.5622 36.4753 30.5425Z" fill="#E4BE15"/>
<path opacity="0.983" fill-rule="evenodd" clip-rule="evenodd" d="M25.3377 31.435C24.7196 31.6835 24.1038 31.9372 23.4904 32.1964C23.4722 32.1597 23.4722 32.1282 23.4904 32.1012C23.4217 32.0653 23.4217 32.0338 23.4904 32.0061C23.4567 31.9454 23.4203 31.8864 23.3817 31.8293L23.4225 31.7885C23.4603 31.8171 23.501 31.8217 23.5447 31.8021C23.4594 31.702 23.3961 31.5889 23.3546 31.4622C23.4233 31.4344 23.4233 31.4029 23.3546 31.367C23.4024 31.3632 23.4475 31.3768 23.4904 31.4078L23.5176 31.3806C23.48 31.2993 23.4345 31.2219 23.3817 31.1494L23.4089 31.1222C23.3625 31.0518 23.3126 30.9838 23.2595 30.9183C23.2413 30.8911 23.2413 30.8639 23.2595 30.8367C23.3011 30.9063 23.36 30.9381 23.4361 30.9319C23.3736 30.8381 23.31 30.7429 23.2459 30.6463C23.2839 30.6099 23.275 30.5871 23.2188 30.5784C23.3225 30.5751 23.4222 30.5977 23.5176 30.6463C23.5336 30.6406 23.5472 30.6317 23.5583 30.6191C23.6991 30.7079 23.8441 30.7896 23.993 30.8639C24.4517 31.0284 24.9007 31.2191 25.3377 31.435Z" fill="#EC6915"/>
<path opacity="0.978" fill-rule="evenodd" clip-rule="evenodd" d="M36.2853 30.6215C36.7265 30.8871 37.1797 31.1321 37.6436 31.3557C37.5191 31.4153 37.3923 31.4697 37.2632 31.5189C36.8045 31.3026 36.3599 31.0574 35.9321 30.7846C36.0449 30.7237 36.1625 30.6693 36.2853 30.6215Z" fill="#EBB515"/>
<path opacity="0.977" fill-rule="evenodd" clip-rule="evenodd" d="M35.9319 30.7891C36.3596 31.0618 36.8042 31.307 37.263 31.5233C37.2106 31.5502 37.1562 31.5774 37.1 31.6049C36.9126 31.5086 36.7224 31.4134 36.5295 31.3193C36.432 31.3136 36.3369 31.3 36.2443 31.2786C36.2019 31.3017 36.1748 31.2835 36.1628 31.2242C36.1517 31.2367 36.1381 31.2457 36.1221 31.2514C36.078 31.2337 36.033 31.2201 35.9862 31.2106C35.8265 31.1352 35.6725 31.0583 35.5244 30.9794C35.6513 30.9006 35.7871 30.8372 35.9319 30.7891Z" fill="#EEAF15"/>
<path opacity="0.971" fill-rule="evenodd" clip-rule="evenodd" d="M32.9979 32.0909C33.2691 32.4164 33.55 32.7339 33.84 33.0427C33.8308 33.0656 33.8126 33.0745 33.7857 33.0699C32.8115 32.67 31.8425 32.2575 30.879 31.8326C30.6345 31.8236 30.39 31.8144 30.1455 31.8054C29.9548 31.7189 29.7646 31.633 29.575 31.547C29.5565 31.5568 29.5383 31.5661 29.5207 31.5742C29.4401 31.4575 29.3492 31.3483 29.249 31.2479C29.5424 31.1149 29.8412 30.9879 30.1455 30.8672C30.901 31.3314 31.6434 31.8165 32.3731 32.3221C32.4002 32.3403 32.4274 32.3403 32.4546 32.3221C32.633 32.2372 32.8142 32.1603 32.9979 32.0909Z" fill="#F09015"/>
<path opacity="0.98" fill-rule="evenodd" clip-rule="evenodd" d="M35.5248 30.9767C35.6728 31.0556 35.8268 31.1326 35.9866 31.2079C36.0333 31.2174 36.0784 31.231 36.1224 31.2487C36.1384 31.243 36.152 31.234 36.1632 31.2215C36.1751 31.2808 36.2023 31.299 36.2447 31.2759C36.3373 31.2974 36.4324 31.311 36.5299 31.3167C36.7228 31.4108 36.9129 31.5059 37.1004 31.6022C36.6415 31.8092 36.1797 32.0088 35.7149 32.2005C35.6878 32.2029 35.6652 32.1937 35.647 32.1733C35.4995 32.2589 35.3411 32.2908 35.1716 32.2685C34.9269 32.164 34.6824 32.0599 34.4381 31.9557C34.2157 32.0612 33.994 32.0612 33.7726 31.9557C33.7112 31.9013 33.6433 31.8652 33.5688 31.847C34.2121 31.5416 34.8641 31.2514 35.5248 30.9767Z" fill="#F0AA15"/>
<path opacity="0.985" fill-rule="evenodd" clip-rule="evenodd" d="M16.3998 32.3313C16.3876 32.392 16.3595 32.4483 16.3183 32.4944C16.7559 34.8957 17.1905 37.2977 17.6222 39.7009C17.5959 39.7631 17.5597 39.8175 17.5135 39.864C17.4388 39.7156 17.3709 39.5524 17.3098 39.3745C17.2847 39.3597 17.2619 39.3414 17.2419 39.3202C17.2091 39.2152 17.1635 39.1147 17.1061 39.021C17.1259 38.9639 17.1077 38.9141 17.0517 38.8715L17.0789 38.8443C16.9833 38.6389 16.8928 38.4304 16.8072 38.2188C16.8325 38.2082 16.8504 38.1902 16.8616 38.1644C16.8358 38.069 16.7996 37.9784 16.7529 37.8925C16.6975 37.7799 16.6432 37.6529 16.5899 37.5117L16.6171 37.4845C16.468 37.1317 16.3321 36.7734 16.2096 36.4104C16.2319 36.3862 16.259 36.3772 16.2911 36.3832C16.2595 36.175 16.1953 35.9731 16.1009 35.7849C16.1099 35.7667 16.1191 35.7487 16.1281 35.7305C16.0683 35.6816 16.0366 35.6182 16.033 35.5402C15.991 35.2872 15.9547 35.0333 15.9244 34.7787C15.9219 34.7105 15.8991 34.6517 15.8564 34.602C15.8915 34.5886 15.9279 34.584 15.9651 34.5884C15.9589 34.2713 15.9227 33.9586 15.8564 33.6502C15.8497 33.614 15.8315 33.5868 15.8021 33.5686L15.8293 33.5414C15.8084 33.4704 15.7902 33.3981 15.775 33.3238C15.7788 33.3029 15.788 33.2847 15.8021 33.2695C15.7654 33.1158 15.7472 32.9662 15.7478 32.8208H15.8836C15.8967 32.7171 15.8695 32.6266 15.8021 32.5488C15.8008 32.4544 15.8008 32.3593 15.8021 32.2633C15.7654 32.2423 15.7429 32.2105 15.7342 32.1681C15.6655 31.7099 15.697 31.7009 15.8293 32.1409C15.8382 32.1273 15.8475 32.1137 15.8564 32.1001C15.82 31.9622 15.7973 31.821 15.7885 31.6786C15.7807 31.6367 15.7625 31.6003 15.7342 31.5698C15.722 31.6316 15.7038 31.6949 15.6799 31.7602C15.6038 31.6446 15.6264 31.5587 15.7478 31.5018C15.7252 31.4523 15.7027 31.4026 15.6799 31.3523C15.6698 31.3773 15.6562 31.3999 15.6391 31.4203C15.7117 31.4812 15.6981 31.522 15.5984 31.5426C15.5435 31.4755 15.5478 31.4164 15.612 31.3659C15.5161 31.3137 15.5161 31.2729 15.612 31.2435C15.5978 31.2778 15.616 31.305 15.6663 31.3251C15.6818 31.2821 15.691 31.2413 15.6935 31.2027C15.609 31.0689 15.6361 31.0102 15.775 31.0259C15.7706 31.0722 15.7752 31.1176 15.7885 31.1619C15.845 31.2802 15.8948 31.4026 15.9379 31.529C15.9341 31.55 15.9249 31.5682 15.9108 31.5834C15.9553 31.6851 16.0097 31.7803 16.0738 31.869C16.0882 31.8322 16.0746 31.7958 16.033 31.7602C15.9966 31.5328 15.9559 31.306 15.9108 31.0803C15.9154 31.0621 15.9197 31.0442 15.9244 31.0259C15.9447 31.0431 15.9673 31.0567 15.9923 31.0667C15.9561 31.1301 15.9561 31.1937 15.9923 31.2571C16.0376 31.3387 16.0827 31.4203 16.1281 31.5018C16.1191 31.5473 16.1099 31.5924 16.1009 31.6378C16.1433 31.6465 16.1751 31.6691 16.196 31.7058C16.2009 31.78 16.2145 31.8524 16.2368 31.9233C16.2775 31.953 16.2868 31.9848 16.2639 32.0185C16.3191 32.0566 16.328 32.1017 16.2911 32.1545C16.3213 32.2187 16.3577 32.2777 16.3998 32.3313Z" fill="#EE4F34"/>
<path opacity="0.979" fill-rule="evenodd" clip-rule="evenodd" d="M29.2491 31.2461C29.3493 31.3465 29.4402 31.4557 29.5208 31.5724C29.7699 31.8901 30.019 32.2071 30.2678 32.5242C30.5403 32.8011 30.7987 33.0916 31.042 33.3944C30.6051 33.1189 30.1659 32.847 29.7245 32.5786C29.5506 32.6591 29.3741 32.7317 29.1948 32.7962C28.5905 32.5583 27.9926 32.3044 27.4019 32.0347C28.0095 31.7579 28.6251 31.4949 29.2491 31.2461Z" fill="#EC6D15"/>
<path opacity="0.99" fill-rule="evenodd" clip-rule="evenodd" d="M33.786 33.0697C33.1639 33.3607 32.5345 33.6416 31.898 33.9128C31.6146 33.7371 31.3294 33.5647 31.0423 33.3961C30.7989 33.0932 30.5405 32.8028 30.268 32.5259C30.0192 32.2088 29.7701 31.8917 29.521 31.5741C29.5387 31.5659 29.5569 31.5567 29.5753 31.5469C29.7649 31.6328 29.9551 31.7187 30.1458 31.8052C30.3903 31.8142 30.6348 31.8234 30.8793 31.8324C31.8423 32.2572 32.811 32.6694 33.786 33.0697Z" fill="#EF8D14"/>
<path opacity="0.984" fill-rule="evenodd" clip-rule="evenodd" d="M13.8465 31.6055C14.0218 31.7042 14.2029 31.7947 14.3898 31.8774C14.4218 31.922 14.4218 31.9672 14.3898 32.0134C14.3992 32.046 14.4127 32.046 14.4305 32.0134L14.4577 32.2037C14.5352 32.2483 14.6171 32.2848 14.7022 32.3125C14.6917 32.3742 14.6871 32.4333 14.6886 32.4893C14.7515 32.5293 14.7605 32.579 14.7158 32.6388C14.7709 32.6949 14.7709 32.7446 14.7158 32.7884C14.768 32.832 14.8224 32.8728 14.8787 32.9108C14.8673 32.9606 14.8673 33.0149 14.8787 33.074C14.7821 33.0677 14.7731 33.0905 14.8516 33.1419C14.8683 33.257 14.8683 33.3747 14.8516 33.4955C14.8697 33.5137 14.8878 33.5316 14.9059 33.5499C14.8569 33.6736 14.9022 33.728 15.0417 33.713C15.0599 33.7492 15.0779 33.7856 15.0961 33.8218C15.0942 33.8995 15.0851 33.9769 15.0689 34.0529C15.0788 34.1054 15.0971 34.1559 15.1232 34.2025C15.0912 34.27 15.0912 34.3469 15.1232 34.4337H15.2319C15.2412 34.5422 15.2503 34.6509 15.2591 34.76C15.2534 34.8005 15.2353 34.8323 15.2047 34.8552C15.2214 34.8859 15.2214 34.9221 15.2047 34.9639C15.2784 35.237 15.3374 35.5139 15.3813 35.7934C15.4125 35.8271 15.4489 35.8543 15.49 35.8749C15.4989 35.9568 15.5218 36.0338 15.5579 36.1061L15.5307 36.1333C15.5579 36.1967 15.585 36.2603 15.6122 36.3237L15.585 36.3508C15.6185 36.4319 15.6684 36.4999 15.7345 36.5548C15.7475 36.5806 15.7521 36.6078 15.748 36.6364H15.6665C15.6967 36.7427 15.7192 36.8515 15.7345 36.9627C15.8154 37.1368 15.8787 37.3271 15.9246 37.5338C15.9401 37.6211 15.9901 37.6662 16.074 37.6698C16.1064 37.8087 16.1428 37.9447 16.1827 38.0777H16.2914C16.3449 38.2977 16.4174 38.5106 16.5087 38.7167C16.4815 38.7257 16.4543 38.735 16.4272 38.7439C16.4712 38.8552 16.5119 38.9683 16.5494 39.0839C16.5676 39.1382 16.6038 39.1744 16.6581 39.1926C16.7035 39.3014 16.7485 39.4102 16.7939 39.519C16.9018 39.6639 16.9876 39.8225 17.052 39.9949L17.0248 40.0221C17.077 40.0618 17.0952 40.1072 17.0792 40.158C17.118 40.216 17.1541 40.275 17.1878 40.3348C17.1878 40.353 17.1788 40.362 17.1606 40.362C16.3954 39.8138 15.6527 39.2334 14.9331 38.6216L13.7378 31.823C13.7459 31.7341 13.7822 31.6618 13.8465 31.6055Z" fill="#EE5939"/>
<path opacity="0.977" fill-rule="evenodd" clip-rule="evenodd" d="M33.568 31.8438C33.6425 31.862 33.7104 31.8981 33.7718 31.9525C33.9932 32.058 34.2148 32.058 34.4373 31.9525C34.6815 32.0567 34.926 32.1608 35.1708 32.2653C35.3403 32.2876 35.4987 32.2557 35.6462 32.1701C35.6644 32.1905 35.6869 32.1997 35.7141 32.1973C35.0994 32.5002 34.4742 32.7814 33.8397 33.0403C33.5496 32.7314 33.2688 32.414 32.9976 32.0885C33.1805 31.9909 33.3713 31.909 33.568 31.8438Z" fill="#F0A614"/>
<path opacity="0.982" fill-rule="evenodd" clip-rule="evenodd" d="M27.4022 32.0352C27.993 32.3048 28.5908 32.5587 29.1951 32.7966C27.7686 33.4359 26.3378 34.0704 24.9029 34.7002C24.9 34.6382 24.8774 34.5838 24.835 34.537C24.6826 34.3956 24.5558 34.2324 24.4547 34.0475C24.2909 33.861 24.1233 33.6796 23.9521 33.5036C25.0912 32.9935 26.2411 32.504 27.4022 32.0352Z" fill="#EB6615"/>
<path opacity="0.975" fill-rule="evenodd" clip-rule="evenodd" d="M9.03776 31.4922C9.472 32.2346 9.93415 32.9603 10.4232 33.6677C10.2021 34.1104 9.98021 34.5545 9.75765 35.0002C9.73339 35.0331 9.71076 35.0331 9.68973 35.0002C9.28179 34.2377 8.87431 33.4763 8.46729 32.7159C8.65013 32.3046 8.84032 31.8967 9.03776 31.4922Z" fill="#EF4F30"/>
<path opacity="0.991" fill-rule="evenodd" clip-rule="evenodd" d="M18.8988 32.8241H22.5118C21.5018 34.2842 20.4788 35.7347 19.4421 37.1752C19.4299 37.1491 19.4117 37.1265 19.3878 37.1072L19.415 37.08C19.3596 36.8799 19.2873 36.6895 19.1976 36.5089C19.1053 36.0609 18.9966 35.6165 18.8717 35.1764C18.8977 35.1451 18.8885 35.118 18.8445 35.0948C18.8537 35.0133 18.8355 34.9317 18.7902 34.8501L18.8173 34.8229C18.6973 34.589 18.6201 34.3397 18.5864 34.0751L18.5457 34.0343C18.5525 33.9774 18.5525 33.923 18.5457 33.8711C18.5082 33.8352 18.4992 33.7988 18.5185 33.7623C18.481 33.7264 18.4721 33.69 18.4913 33.6535C18.4756 33.6182 18.4574 33.5864 18.437 33.5584C18.584 33.3098 18.7377 33.0651 18.8988 32.8241Z" fill="#EF821C"/>
<path opacity="0.967" fill-rule="evenodd" clip-rule="evenodd" d="M35.1171 34.346C34.8726 34.1285 34.6455 33.8921 34.438 33.639C35.1799 33.304 35.9223 32.9687 36.6656 32.6328L36.6927 32.66C36.1768 33.2306 35.6515 33.7927 35.1171 34.346Z" fill="#EFA114"/>
<path opacity="0.978" fill-rule="evenodd" clip-rule="evenodd" d="M23.9518 33.5039C24.1229 33.6799 24.2905 33.8612 24.4543 34.0478C24.5554 34.2327 24.6823 34.3959 24.8347 34.5373C24.877 34.5841 24.8996 34.6384 24.9026 34.7004L24.4951 34.8636C24.4516 34.7543 24.3791 34.6684 24.2778 34.6053C24.296 34.5963 24.3139 34.587 24.3321 34.5781C24.0819 34.2961 23.8374 34.0105 23.5986 33.7215C23.6812 33.5994 23.7988 33.5267 23.9518 33.5039Z" fill="#ED7719"/>
<path opacity="0.976" fill-rule="evenodd" clip-rule="evenodd" d="M34.4382 33.6406C34.6458 33.8938 34.8721 34.1293 35.1174 34.3477C34.9688 34.5373 34.8053 34.7146 34.6284 34.878C34.1724 35.0745 33.7196 35.2785 33.2701 35.4898C32.9373 35.2176 32.6199 34.9271 32.3193 34.6196C33.0175 34.2794 33.7238 33.9531 34.4382 33.6406Z" fill="#EE8A13"/>
<path opacity="0.962" fill-rule="evenodd" clip-rule="evenodd" d="M23.5983 33.7188C23.8371 34.0078 24.0816 34.2934 24.3318 34.5754C24.3136 34.5843 24.2956 34.5936 24.2774 34.6026C24.3788 34.6657 24.4513 34.7516 24.4947 34.8609C23.7184 35.2041 22.9398 35.5484 22.1585 35.8943L22.1313 35.8671C22.6211 35.1505 23.1101 34.4345 23.5983 33.7188Z" fill="#EE821B"/>
<path opacity="0.966" fill-rule="evenodd" clip-rule="evenodd" d="M29.5755 34.9445C29.0686 34.727 28.5614 34.5094 28.0542 34.2919C28.4106 34.1181 28.773 33.9503 29.1408 33.7888C29.2112 33.7531 29.2837 33.7349 29.3581 33.7344C29.7621 33.9862 30.1606 34.2445 30.5534 34.5094C30.2342 34.6692 29.9079 34.8144 29.5755 34.9445Z" fill="#EA6513"/>
<path opacity="0.99" fill-rule="evenodd" clip-rule="evenodd" d="M18.2737 33.8047C18.4769 34.4272 18.6443 35.0708 18.7763 35.7355C18.9556 36.3087 19.114 36.8798 19.2517 37.4487C19.2128 37.518 19.1675 37.5814 19.1159 37.6391C18.8252 36.5108 18.5264 35.3776 18.2194 34.2398C18.1387 34.0764 18.1566 33.9314 18.2737 33.8047Z" fill="#EE7322"/>
<path opacity="0.958" fill-rule="evenodd" clip-rule="evenodd" d="M12.8682 36.6036C12.4875 36.2044 12.1161 35.7964 11.7544 35.3798C11.9639 34.9513 12.1951 34.5338 12.4471 34.1289C12.5934 34.9529 12.7337 35.778 12.8682 36.6036Z" fill="#EE5C3A"/>
<path opacity="0.981" fill-rule="evenodd" clip-rule="evenodd" d="M18.2197 34.2422C18.5267 35.38 18.8255 36.5132 19.1162 37.6415C19.0369 37.7755 18.9464 37.9022 18.8445 38.0222C18.6157 36.7657 18.4074 35.5055 18.2197 34.2422Z" fill="#ED6C25"/>
<path opacity="0.98" fill-rule="evenodd" clip-rule="evenodd" d="M28.0539 34.2926C28.5611 34.5101 29.0683 34.7277 29.5752 34.9452C28.6825 35.3507 27.7861 35.754 26.8858 36.1554C26.7717 36.2742 26.6538 36.3876 26.5327 36.4953C26.2868 36.2299 26.0605 35.9487 25.8535 35.6523C26.1007 35.4184 26.3452 35.178 26.587 34.9316C27.0732 34.7108 27.5622 34.4979 28.0539 34.2926Z" fill="#EA6014"/>
<path opacity="0.991" fill-rule="evenodd" clip-rule="evenodd" d="M18.4374 33.5583C18.4578 33.5864 18.476 33.6182 18.4917 33.6535C18.4725 33.69 18.4814 33.7264 18.5189 33.7623C18.4996 33.7987 18.5086 33.8352 18.5461 33.8711C18.5529 33.923 18.5529 33.9774 18.5461 34.0342L18.5868 34.075C18.6205 34.3396 18.6977 34.589 18.8177 34.8229L18.7906 34.8501C18.8359 34.9317 18.8541 35.0132 18.8449 35.0948C18.8889 35.1179 18.8981 35.1451 18.8721 35.1764C18.9965 35.6145 19.1051 36.0586 19.198 36.5089C19.2877 36.6895 19.3599 36.8798 19.4154 37.08L19.3882 37.1072C19.4121 37.1265 19.4303 37.1491 19.4425 37.1752C19.3787 37.2668 19.3154 37.3574 19.2524 37.4471C19.1127 36.871 18.9541 36.2996 18.777 35.7339C18.645 35.0693 18.4776 34.4256 18.2744 33.8031C18.3089 33.7066 18.3632 33.625 18.4374 33.5583Z" fill="#EE7A1F"/>
<path opacity="0.976" fill-rule="evenodd" clip-rule="evenodd" d="M32.3188 34.6172C32.6193 34.9247 32.9368 35.2152 33.2696 35.4874C32.8892 35.6595 32.5089 35.832 32.1286 36.0041C31.9104 35.8591 31.6836 35.7274 31.4495 35.6098C31.2139 35.6008 30.9787 35.5916 30.7432 35.5826C30.6503 35.527 30.5495 35.4857 30.4443 35.4602C31.0591 35.1572 31.6843 34.8761 32.3188 34.6172Z" fill="#EA6513"/>
<path opacity="0.986" fill-rule="evenodd" clip-rule="evenodd" d="M11.755 35.3789C12.1167 35.7954 12.488 36.2035 12.8688 36.6026C12.9492 37.0437 13.0081 37.4884 13.0454 37.9352C12.7395 38.4295 12.4407 38.9281 12.1489 39.4308C12.1308 39.467 12.1127 39.467 12.0946 39.4308C11.661 38.6398 11.2309 37.8468 10.8042 37.0513C11.1102 36.4877 11.4272 35.9302 11.755 35.3789Z" fill="#ED462F"/>
<path opacity="0.979" fill-rule="evenodd" clip-rule="evenodd" d="M30.4442 35.461C30.5502 35.4868 30.6499 35.5276 30.743 35.5834C30.9786 35.5924 31.2138 35.6016 31.4493 35.6106C31.6862 35.7297 31.9125 35.8613 32.1285 36.0049C30.8607 36.576 29.5931 37.1471 28.3253 37.7181C28.2074 37.6186 28.0805 37.528 27.945 37.4462C27.976 37.4209 27.976 37.3983 27.945 37.3782C27.7516 37.2421 27.5614 37.1016 27.3745 36.9567C27.4897 36.8278 27.6255 36.7236 27.782 36.644C28.666 36.2421 29.5535 35.8478 30.4442 35.461Z" fill="#E95F13"/>
<path opacity="0.978" fill-rule="evenodd" clip-rule="evenodd" d="M25.8533 35.6562C26.0603 35.9527 26.2866 36.2339 26.5324 36.4993C26.4148 36.6352 26.2879 36.7622 26.1521 36.88C25.9068 36.6167 25.6712 36.3446 25.4458 36.0642C25.5727 35.9192 25.7085 35.7832 25.8533 35.6562Z" fill="#EC7318"/>
<path opacity="0.967" fill-rule="evenodd" clip-rule="evenodd" d="M27.3748 36.9571C27.5593 37.1001 27.7494 37.2407 27.9453 37.3786C27.9763 37.3987 27.9763 37.4213 27.9453 37.4466C28.0808 37.5284 28.2077 37.619 28.3256 37.7185C28.1746 37.7895 28.0205 37.8531 27.8638 37.9089C27.6601 37.7792 27.4699 37.6296 27.2933 37.4602C27.2675 37.4471 27.2403 37.4425 27.2118 37.4466C27.2178 37.4145 27.2088 37.3873 27.1847 37.365C27.1303 37.3375 27.085 37.3014 27.0488 37.2562C27.1567 37.1572 27.2653 37.0574 27.3748 36.9571Z" fill="#EB6B16"/>
<path opacity="0.97" fill-rule="evenodd" clip-rule="evenodd" d="M27.049 37.2539C27.0851 37.299 27.1305 37.3352 27.1848 37.3627C27.209 37.385 27.218 37.4122 27.212 37.4443C27.2405 37.4402 27.2677 37.4448 27.2935 37.4579C27.4701 37.6273 27.6602 37.7768 27.864 37.9066C27.7153 37.9899 27.561 38.0625 27.4022 38.1241C27.4051 38.1073 27.4141 38.0937 27.4293 38.0833C27.3839 38.0561 27.3389 38.0289 27.2935 38.0017C27.1259 37.8295 26.9538 37.6617 26.7773 37.4987C26.8673 37.4179 26.9577 37.3363 27.049 37.2539Z" fill="#EC7718"/>
<path opacity="0.968" fill-rule="evenodd" clip-rule="evenodd" d="M24.0607 36.0352C24.1023 36.0357 24.1159 36.0536 24.1015 36.0895C23.3542 36.8465 22.6162 37.6126 21.8875 38.3874C21.1994 38.6956 20.511 39.0039 19.8229 39.312C19.7349 39.3566 19.6442 39.3838 19.5513 39.3936C20.0623 38.7143 20.5784 38.0391 21.0997 37.3677C22.0923 36.9296 23.0795 36.4855 24.0607 36.0352Z" fill="#ED801B"/>
<path opacity="0.976" fill-rule="evenodd" clip-rule="evenodd" d="M25.4462 36.0625C25.6716 36.343 25.9072 36.6151 26.1525 36.8783C25.0524 38.0024 23.9385 39.1129 22.8111 40.2096C22.0589 40.5498 21.3073 40.8897 20.5564 41.2294C20.4043 40.8634 20.2685 40.4916 20.1489 40.1144C20.8438 39.7941 21.5409 39.4721 22.2407 39.149C23.3056 38.1146 24.3742 37.0858 25.4462 36.0625Z" fill="#EC801A"/>
<path opacity="0.941" fill-rule="evenodd" clip-rule="evenodd" d="M26.7771 37.4961C26.9512 37.6568 27.1232 37.8246 27.2932 37.9992C27.3386 38.0264 27.3837 38.0536 27.429 38.0808C27.4138 38.0911 27.4049 38.1047 27.4019 38.1216C26.5699 38.5159 25.7275 38.8877 24.8755 39.2365C25.5017 38.6459 26.1357 38.0655 26.7771 37.4961Z" fill="#EC801B"/>
<path opacity="0.989" fill-rule="evenodd" clip-rule="evenodd" d="M14.9323 38.6133C15.6519 39.2251 16.3946 39.8055 17.1599 40.3537C16.3211 41.5834 15.4607 42.7983 14.5792 43.9977C14.1176 43.1872 13.6738 42.3666 13.248 41.5367C13.8165 40.6321 14.3961 39.7346 14.9866 38.8444C14.9641 38.7685 14.946 38.6913 14.9323 38.6133Z" fill="#EB402D"/>
<path opacity="0.976" fill-rule="evenodd" clip-rule="evenodd" d="M20.1487 40.1055C20.2683 40.4827 20.4041 40.8544 20.5562 41.2204C20.4476 41.2656 20.3389 41.311 20.2302 41.3564C20.0952 40.9735 19.9594 40.6018 19.8228 40.2414C19.9247 40.1814 20.0344 40.1356 20.1487 40.1055Z" fill="#EC6F21"/>
<path opacity="0.975" fill-rule="evenodd" clip-rule="evenodd" d="M19.8226 40.25C19.9592 40.6103 20.095 40.9821 20.2301 41.365C20.1355 41.4166 20.0358 41.462 19.9312 41.5009C19.8973 41.3742 19.8429 41.2429 19.7682 41.1066L19.7954 41.0794C19.7528 41.0297 19.7299 40.9709 19.7275 40.9027C19.6911 40.8708 19.6592 40.8342 19.6324 40.7939C19.5732 40.6533 19.5278 40.5173 19.4966 40.386C19.6052 40.3406 19.7139 40.2951 19.8226 40.25Z" fill="#EB6227"/>
<path opacity="0.979" fill-rule="evenodd" clip-rule="evenodd" d="M19.4965 40.3828C19.5278 40.5142 19.5731 40.6501 19.6324 40.7907C19.659 40.831 19.6908 40.8671 19.7274 40.8995C19.7299 40.9678 19.7527 41.0265 19.7953 41.0763L19.7682 41.1035C19.8429 41.2397 19.8972 41.371 19.9312 41.4978C19.8108 41.5671 19.684 41.6215 19.5509 41.6609C19.4932 41.5956 19.4389 41.5276 19.3879 41.457C19.4004 41.4458 19.4093 41.4322 19.415 41.4162C19.3593 41.3539 19.3411 41.2859 19.3607 41.2122C19.3403 41.1717 19.3175 41.1674 19.2928 41.1986C19.3009 41.0371 19.251 40.8922 19.1434 40.7635C19.1752 40.6953 19.1662 40.6319 19.1162 40.5732C19.2412 40.5106 19.368 40.4473 19.4965 40.3828Z" fill="#EB562C"/>
<path opacity="0.976" fill-rule="evenodd" clip-rule="evenodd" d="M19.1164 40.5781C19.1664 40.6369 19.1753 40.7002 19.1435 40.7685C19.2511 40.8971 19.3011 41.0421 19.2929 41.2036C19.3177 41.1723 19.3405 41.1767 19.3609 41.2172C19.3413 41.2909 19.3595 41.3589 19.4152 41.4211C19.4095 41.4372 19.4005 41.4508 19.388 41.4619C19.4402 41.534 19.4945 41.602 19.551 41.6659C19.3177 41.7962 19.0732 41.9049 18.8175 41.9922C18.8319 41.9357 18.8591 41.8856 18.899 41.8427C18.8787 41.8021 18.8558 41.7978 18.8311 41.8291C18.7961 41.7923 18.7915 41.7559 18.8175 41.7203C18.7692 41.6822 18.7241 41.6414 18.6817 41.5979C18.707 41.5873 18.7249 41.5694 18.736 41.5435C18.7032 41.5082 18.6852 41.4674 18.6817 41.4211C18.6532 41.4252 18.626 41.4206 18.6002 41.4075C18.6364 41.3893 18.6364 41.3714 18.6002 41.3532C18.4715 41.289 18.3538 41.212 18.2471 41.122C18.2949 41.0421 18.3492 40.9651 18.4101 40.8909C18.6429 40.7788 18.8784 40.6747 19.1164 40.5781Z" fill="#EC4D30"/>
<path opacity="0.972" fill-rule="evenodd" clip-rule="evenodd" d="M18.2469 41.1172C18.3536 41.2072 18.4713 41.2842 18.6 41.3483C18.6362 41.3666 18.6362 41.3845 18.6 41.4027C18.6258 41.4158 18.653 41.4204 18.6815 41.4163C18.6851 41.4626 18.703 41.5033 18.7359 41.5387C18.7247 41.5645 18.7068 41.5825 18.6815 41.5931C18.7239 41.6366 18.769 41.6774 18.8174 41.7155C18.7913 41.7511 18.7959 41.7875 18.8309 41.8242C18.8557 41.793 18.8785 41.7973 18.8989 41.8378C18.8594 41.8799 18.8314 41.9314 18.8174 41.9874C18.2007 42.28 17.5805 42.5702 16.9565 42.8576C16.9383 42.8304 16.9383 42.8032 16.9565 42.776C17.383 42.218 17.8131 41.6651 18.2469 41.1172Z" fill="#EB462F"/>
</svg>
