<svg width="32" height="32" viewBox="0 0 32 32" fill="none" xmlns="http://www.w3.org/2000/svg">
<path d="M17.4135 16L20.4801 12.9333C20.8668 12.5467 20.8668 11.9067 20.4801 11.52C20.0935 11.1333 19.4535 11.1333 19.0668 11.52L16.0001 14.5867L12.9334 11.52C12.5468 11.1333 11.9068 11.1333 11.5201 11.52C11.1334 11.9067 11.1334 12.5467 11.5201 12.9333L14.5868 16L11.5201 19.0667C11.1334 19.4533 11.1334 20.0933 11.5201 20.48C11.7201 20.68 11.9734 20.7733 12.2268 20.7733C12.4801 20.7733 12.7334 20.68 12.9334 20.48L16.0001 17.4133L19.0668 20.48C19.2668 20.68 19.5201 20.7733 19.7735 20.7733C20.0268 20.7733 20.2801 20.68 20.4801 20.48C20.8668 20.0933 20.8668 19.4533 20.4801 19.0667L17.4135 16Z" fill="currentColor"/>
</svg>
