<svg xmlns="http://www.w3.org/2000/svg" width="16" height="16" viewBox="0 0 16 16" fill="none">
    <path d="M11.4906 5.72011L10.6261 10.6488C10.6142 10.7168 10.5835 10.781 10.5368 10.8358C10.4901 10.8906 10.4288 10.9342 10.3585 10.9627C10.2882 10.9912 10.2111 11.0037 10.134 10.9991C10.057 10.9945 9.9824 10.9729 9.91701 10.9363L7.022 9.32113C6.96183 9.28761 6.91104 9.24231 6.87351 9.18867C6.83598 9.13503 6.8127 9.07447 6.80543 9.01161C6.79816 8.94874 6.80711 8.88523 6.83158 8.82591C6.85605 8.76658 6.89541 8.71302 6.94665 8.66929L9.34991 6.61843C9.37688 6.59583 9.34515 6.5584 9.31342 6.57535L5.82989 8.43129C5.62284 8.54215 5.37695 8.58065 5.13985 8.53935L3.87873 8.32254C3.42346 8.24415 3.3608 7.68764 3.78831 7.53016L10.5317 5.04779C10.6466 5.00523 10.7721 4.99073 10.8954 5.00577C11.0187 5.02081 11.1352 5.06485 11.233 5.13335C11.3308 5.20186 11.4063 5.29234 11.4517 5.39548C11.4971 5.49862 11.5108 5.61068 11.4914 5.72011" fill="#0B420D"/>
    <path fill-rule="evenodd" clip-rule="evenodd" d="M8 0C3.58189 0 0 3.58189 0 8C0 12.4181 3.58189 16 8 16C12.4181 16 16 12.4181 16 8C16 3.58189 12.4181 0 8 0ZM1.3709 8C1.3709 7.12945 1.54236 6.26743 1.87551 5.46315C2.20865 4.65887 2.69695 3.92808 3.31252 3.31252C3.92808 2.69695 4.65887 2.20865 5.46315 1.87551C6.26743 1.54236 7.12945 1.3709 8 1.3709C8.87055 1.3709 9.73257 1.54236 10.5368 1.87551C11.3411 2.20865 12.0719 2.69695 12.6875 3.31252C13.3031 3.92808 13.7913 4.65887 14.1245 5.46315C14.4576 6.26743 14.6291 7.12945 14.6291 8C14.6291 9.75815 13.9307 11.4443 12.6875 12.6875C11.4443 13.9307 9.75815 14.6291 8 14.6291C6.24185 14.6291 4.55571 13.9307 3.31252 12.6875C2.06932 11.4443 1.3709 9.75815 1.3709 8Z" fill="#0B420D"/>
</svg>