<svg width="18" height="15" viewBox="0 0 18 15" fill="none" xmlns="http://www.w3.org/2000/svg">
    <path
        d="M14.86 7.32158C14.86 7.54363 14.7718 7.75657 14.6148 7.91358C14.4577 8.07059 14.2448 8.15879 14.0228 8.15879C13.8007 8.15879 13.5878 8.07059 13.4308 7.91358C13.2738 7.75657 13.1855 7.54363 13.1855 7.32158C13.1855 7.09954 13.2738 6.8866 13.4308 6.72959C13.5878 6.57258 13.8007 6.48438 14.0228 6.48438C14.2448 6.48438 14.4577 6.57258 14.6148 6.72959C14.7718 6.8866 14.86 7.09954 14.86 7.32158Z"
        fill="#5F6C72" />
    <path fill-rule="evenodd" clip-rule="evenodd"
        d="M7.2787 0H9.88409C11.4229 0 12.6419 9.98031e-08 13.5954 0.128093C14.5767 0.260372 15.3712 0.538325 15.9982 1.16456C16.7718 1.93898 17.0188 2.97544 17.1084 4.32084C17.5914 4.53265 17.9565 4.98223 17.9958 5.55153C18 5.6026 18 5.65702 18 5.70726V8.94391C18 8.99414 18 9.04856 17.9967 9.09879C17.9565 9.66809 17.5914 10.1185 17.1084 10.3312C17.0188 11.6757 16.7718 12.7122 15.9982 13.4866C15.3712 14.1128 14.5767 14.3908 13.5954 14.5231C12.641 14.6512 11.4229 14.6512 9.88409 14.6512H7.2787C5.73991 14.6512 4.52093 14.6512 3.56735 14.5231C2.58614 14.3908 1.79163 14.1128 1.16456 13.4866C0.538326 12.8595 0.260372 12.065 0.128093 11.0838C0 10.1294 0 8.91126 0 7.37247V7.2787C0 5.73991 0 4.52093 0.128093 3.56735C0.260372 2.58614 0.538326 1.79163 1.16456 1.16456C1.79163 0.538325 2.58614 0.260372 3.56735 0.128093C4.52177 9.98031e-08 5.73991 0 7.2787 0ZM15.8383 10.4651H14.2158C12.42 10.4651 10.8829 9.10214 10.8829 7.32558C10.8829 5.54902 12.42 4.18605 14.215 4.18605H15.8375C15.742 3.06335 15.5269 2.46977 15.1091 2.05284C14.755 1.6987 14.2694 1.48605 13.4272 1.37302C12.5673 1.25749 11.4329 1.25581 9.83637 1.25581H7.32474C5.72819 1.25581 4.5946 1.25749 3.73312 1.37302C2.89172 1.48605 2.40614 1.6987 2.052 2.05284C1.69786 2.40698 1.48605 2.89256 1.37302 3.73395C1.25749 4.5946 1.25581 5.72819 1.25581 7.32474C1.25581 8.9213 1.25749 10.0557 1.37302 10.9164C1.48605 11.7578 1.6987 12.2434 2.05284 12.5975C2.40698 12.9516 2.89256 13.1643 3.73479 13.2773C4.59544 13.3928 5.72902 13.3945 7.32558 13.3945H9.83721C11.4338 13.3945 12.5682 13.3928 13.4288 13.2773C14.2702 13.1643 14.7558 12.9516 15.11 12.5975C15.5277 12.1806 15.7429 11.5878 15.8383 10.4643M3.34884 3.97674C3.34884 3.81021 3.41499 3.6505 3.53275 3.53275C3.6505 3.41499 3.81021 3.34884 3.97674 3.34884H7.32558C7.49211 3.34884 7.65182 3.41499 7.76958 3.53275C7.88733 3.6505 7.95349 3.81021 7.95349 3.97674C7.95349 4.14328 7.88733 4.30299 7.76958 4.42074C7.65182 4.5385 7.49211 4.60465 7.32558 4.60465H3.97674C3.81021 4.60465 3.6505 4.5385 3.53275 4.42074C3.41499 4.30299 3.34884 4.14328 3.34884 3.97674ZM16.4713 5.44186H14.2158C13.0236 5.44186 12.1387 6.32847 12.1387 7.32558C12.1387 8.3227 13.0236 9.2093 14.215 9.2093H16.4905C16.663 9.19842 16.7375 9.08205 16.7433 9.01172V5.63944C16.7375 5.56912 16.663 5.45274 16.4905 5.4427L16.4713 5.44186Z"
        fill="#5F6C72" />
</svg>